G04*
G04 #@! TF.GenerationSoftware,Altium Limited,Altium Designer,21.3.2 (30)*
G04*
G04 Layer_Color=32896*
%FSLAX24Y24*%
%MOIN*%
G70*
G04*
G04 #@! TF.SameCoordinates,F3A22827-C8A6-453D-B49C-89BDF9855147*
G04*
G04*
G04 #@! TF.FilePolarity,Positive*
G04*
G01*
G75*
%ADD14C,0.0050*%
%ADD16C,0.0100*%
%ADD59C,0.0200*%
G36*
X6413Y19187D02*
X6425Y19186D01*
X6437Y19185D01*
X6449Y19183D01*
X6460Y19182D01*
X6470Y19180D01*
X6480Y19177D01*
X6488Y19175D01*
X6496Y19173D01*
X6503Y19171D01*
X6509Y19169D01*
X6514Y19167D01*
X6518Y19165D01*
X6521Y19164D01*
X6523Y19164D01*
X6524Y19163D01*
X6533Y19158D01*
X6543Y19154D01*
X6551Y19148D01*
X6558Y19143D01*
X6566Y19137D01*
X6572Y19132D01*
X6578Y19127D01*
X6583Y19122D01*
X6588Y19117D01*
X6592Y19112D01*
X6595Y19108D01*
X6598Y19105D01*
X6600Y19102D01*
X6602Y19100D01*
X6603Y19098D01*
X6603Y19098D01*
X6607Y19090D01*
X6611Y19082D01*
X6615Y19074D01*
X6618Y19065D01*
X6623Y19050D01*
X6626Y19035D01*
X6627Y19028D01*
X6628Y19022D01*
X6628Y19017D01*
X6629Y19012D01*
X6629Y19008D01*
Y19003D01*
X6628Y18986D01*
X6626Y18971D01*
X6623Y18956D01*
X6621Y18949D01*
X6619Y18942D01*
X6617Y18937D01*
X6615Y18931D01*
X6613Y18926D01*
X6612Y18922D01*
X6611Y18919D01*
X6610Y18917D01*
X6609Y18915D01*
Y18915D01*
X6601Y18899D01*
X6597Y18892D01*
X6593Y18885D01*
X6589Y18879D01*
X6585Y18874D01*
X6581Y18869D01*
X6577Y18864D01*
X6574Y18860D01*
X6571Y18856D01*
X6568Y18853D01*
X6566Y18851D01*
X6563Y18849D01*
X6562Y18848D01*
X6561Y18847D01*
X6561Y18847D01*
X6384D01*
Y19005D01*
X6459D01*
Y18921D01*
X6515D01*
X6521Y18928D01*
X6527Y18935D01*
X6532Y18942D01*
X6535Y18948D01*
X6539Y18954D01*
X6541Y18959D01*
X6542Y18962D01*
X6543Y18962D01*
Y18963D01*
X6546Y18971D01*
X6548Y18979D01*
X6550Y18987D01*
X6551Y18994D01*
X6552Y18999D01*
X6552Y19003D01*
Y19007D01*
X6552Y19015D01*
X6551Y19023D01*
X6549Y19031D01*
X6547Y19038D01*
X6544Y19044D01*
X6541Y19050D01*
X6538Y19056D01*
X6534Y19061D01*
X6531Y19065D01*
X6528Y19069D01*
X6525Y19072D01*
X6522Y19075D01*
X6520Y19077D01*
X6518Y19079D01*
X6517Y19080D01*
X6516Y19080D01*
X6508Y19086D01*
X6499Y19091D01*
X6490Y19094D01*
X6480Y19098D01*
X6470Y19101D01*
X6460Y19104D01*
X6440Y19107D01*
X6431Y19109D01*
X6422Y19110D01*
X6415Y19110D01*
X6408Y19111D01*
X6403Y19111D01*
X6398D01*
X6396D01*
X6395D01*
X6381Y19111D01*
X6369Y19110D01*
X6357Y19109D01*
X6346Y19107D01*
X6336Y19104D01*
X6327Y19102D01*
X6319Y19099D01*
X6311Y19096D01*
X6305Y19094D01*
X6299Y19092D01*
X6295Y19089D01*
X6291Y19087D01*
X6288Y19085D01*
X6285Y19084D01*
X6284Y19083D01*
X6284Y19082D01*
X6277Y19077D01*
X6272Y19070D01*
X6267Y19064D01*
X6263Y19058D01*
X6259Y19052D01*
X6256Y19045D01*
X6254Y19039D01*
X6252Y19033D01*
X6250Y19028D01*
X6249Y19023D01*
X6248Y19018D01*
X6248Y19014D01*
X6247Y19011D01*
Y19006D01*
X6248Y18996D01*
X6250Y18986D01*
X6253Y18977D01*
X6256Y18970D01*
X6260Y18963D01*
X6263Y18959D01*
X6265Y18956D01*
X6266Y18955D01*
X6273Y18947D01*
X6281Y18941D01*
X6290Y18936D01*
X6298Y18931D01*
X6306Y18928D01*
X6309Y18927D01*
X6312Y18926D01*
X6314Y18925D01*
X6316Y18925D01*
X6317Y18924D01*
X6318D01*
X6301Y18851D01*
X6289Y18854D01*
X6278Y18857D01*
X6268Y18860D01*
X6259Y18864D01*
X6250Y18868D01*
X6242Y18873D01*
X6235Y18877D01*
X6229Y18881D01*
X6223Y18885D01*
X6218Y18889D01*
X6213Y18893D01*
X6210Y18896D01*
X6207Y18898D01*
X6205Y18900D01*
X6205Y18902D01*
X6204Y18902D01*
X6198Y18910D01*
X6193Y18918D01*
X6188Y18926D01*
X6185Y18935D01*
X6181Y18944D01*
X6179Y18952D01*
X6174Y18969D01*
X6174Y18977D01*
X6173Y18984D01*
X6172Y18990D01*
X6171Y18996D01*
X6171Y19000D01*
Y19006D01*
X6171Y19016D01*
X6172Y19026D01*
X6173Y19035D01*
X6174Y19044D01*
X6176Y19052D01*
X6179Y19060D01*
X6181Y19067D01*
X6183Y19073D01*
X6186Y19079D01*
X6188Y19084D01*
X6191Y19089D01*
X6193Y19093D01*
X6194Y19095D01*
X6196Y19097D01*
X6196Y19099D01*
X6197Y19099D01*
X6202Y19106D01*
X6207Y19113D01*
X6220Y19125D01*
X6233Y19137D01*
X6245Y19146D01*
X6251Y19150D01*
X6257Y19153D01*
X6262Y19156D01*
X6266Y19158D01*
X6269Y19160D01*
X6272Y19162D01*
X6274Y19162D01*
X6274Y19163D01*
X6284Y19167D01*
X6295Y19171D01*
X6305Y19174D01*
X6316Y19177D01*
X6336Y19181D01*
X6347Y19183D01*
X6356Y19184D01*
X6365Y19185D01*
X6373Y19186D01*
X6381Y19186D01*
X6387Y19187D01*
X6392Y19187D01*
X6396D01*
X6398D01*
X6399D01*
X6413Y19187D01*
D02*
G37*
G36*
X6622Y18709D02*
X6332D01*
X6622Y18563D01*
Y18489D01*
X6178D01*
Y18557D01*
X6475D01*
X6178Y18706D01*
Y18778D01*
X6622D01*
Y18709D01*
D02*
G37*
G36*
Y18275D02*
X6621Y18259D01*
X6620Y18245D01*
X6618Y18233D01*
X6617Y18227D01*
X6615Y18222D01*
X6614Y18218D01*
X6613Y18214D01*
X6612Y18210D01*
X6611Y18207D01*
X6610Y18205D01*
X6610Y18204D01*
X6609Y18203D01*
Y18203D01*
X6604Y18192D01*
X6598Y18183D01*
X6592Y18174D01*
X6586Y18168D01*
X6580Y18162D01*
X6576Y18157D01*
X6573Y18155D01*
X6573Y18154D01*
X6572D01*
X6562Y18146D01*
X6551Y18140D01*
X6540Y18135D01*
X6529Y18130D01*
X6520Y18126D01*
X6515Y18124D01*
X6512Y18123D01*
X6509Y18122D01*
X6507Y18121D01*
X6506Y18121D01*
X6505D01*
X6488Y18116D01*
X6471Y18113D01*
X6454Y18111D01*
X6447Y18110D01*
X6439Y18109D01*
X6432Y18109D01*
X6425Y18108D01*
X6420D01*
X6415Y18108D01*
X6410D01*
X6407D01*
X6405D01*
X6405D01*
X6393D01*
X6382Y18108D01*
X6371Y18109D01*
X6361Y18110D01*
X6352Y18111D01*
X6343Y18111D01*
X6335Y18113D01*
X6328Y18114D01*
X6321Y18115D01*
X6315Y18116D01*
X6310Y18117D01*
X6306Y18118D01*
X6302Y18119D01*
X6300Y18120D01*
X6298Y18120D01*
X6298D01*
X6283Y18125D01*
X6269Y18131D01*
X6257Y18137D01*
X6252Y18140D01*
X6247Y18142D01*
X6242Y18145D01*
X6239Y18147D01*
X6236Y18149D01*
X6233Y18151D01*
X6231Y18153D01*
X6229Y18154D01*
X6229Y18154D01*
X6228Y18155D01*
X6219Y18163D01*
X6211Y18171D01*
X6204Y18179D01*
X6199Y18187D01*
X6195Y18193D01*
X6192Y18198D01*
X6191Y18200D01*
X6190Y18202D01*
X6190Y18202D01*
Y18203D01*
X6188Y18207D01*
X6186Y18213D01*
X6183Y18225D01*
X6181Y18238D01*
X6179Y18250D01*
X6179Y18256D01*
X6178Y18262D01*
Y18266D01*
X6178Y18270D01*
Y18413D01*
X6622D01*
Y18275D01*
D02*
G37*
G36*
X15844Y19076D02*
X16213D01*
Y19002D01*
X15844D01*
Y18895D01*
X15769D01*
Y19184D01*
X15844D01*
Y19076D01*
D02*
G37*
G36*
X16213Y18796D02*
X16062Y18715D01*
X16213Y18634D01*
Y18545D01*
X15981Y18671D01*
X15769Y18557D01*
Y18642D01*
X15902Y18715D01*
X15769Y18787D01*
Y18872D01*
X15982Y18758D01*
X16213Y18884D01*
Y18796D01*
D02*
G37*
G36*
X16290Y18258D02*
X16259D01*
Y18549D01*
X16290D01*
Y18258D01*
D02*
G37*
G36*
X16213Y17949D02*
X16137D01*
Y18152D01*
X16017D01*
Y17969D01*
X15942D01*
Y18152D01*
X15844D01*
Y17955D01*
X15769D01*
Y18225D01*
X16213D01*
Y17949D01*
D02*
G37*
G36*
Y17817D02*
X15923D01*
X16213Y17671D01*
Y17596D01*
X15769D01*
Y17665D01*
X16065D01*
X15769Y17814D01*
Y17885D01*
X16213D01*
Y17817D01*
D02*
G37*
G36*
X13013Y3496D02*
X13025Y3496D01*
X13037Y3495D01*
X13049Y3493D01*
X13060Y3491D01*
X13070Y3489D01*
X13080Y3487D01*
X13088Y3485D01*
X13096Y3483D01*
X13103Y3481D01*
X13109Y3479D01*
X13114Y3477D01*
X13118Y3475D01*
X13121Y3474D01*
X13123Y3474D01*
X13124Y3473D01*
X13133Y3468D01*
X13143Y3463D01*
X13151Y3458D01*
X13158Y3453D01*
X13166Y3447D01*
X13172Y3442D01*
X13178Y3437D01*
X13183Y3431D01*
X13188Y3426D01*
X13192Y3422D01*
X13195Y3418D01*
X13198Y3415D01*
X13200Y3412D01*
X13202Y3410D01*
X13203Y3408D01*
X13203Y3408D01*
X13207Y3400D01*
X13211Y3392D01*
X13215Y3384D01*
X13218Y3375D01*
X13223Y3360D01*
X13226Y3345D01*
X13227Y3338D01*
X13228Y3332D01*
X13228Y3327D01*
X13229Y3322D01*
X13229Y3318D01*
Y3313D01*
X13228Y3296D01*
X13226Y3280D01*
X13223Y3266D01*
X13221Y3259D01*
X13219Y3252D01*
X13217Y3246D01*
X13215Y3241D01*
X13213Y3236D01*
X13212Y3232D01*
X13211Y3229D01*
X13210Y3227D01*
X13209Y3225D01*
Y3225D01*
X13201Y3209D01*
X13197Y3202D01*
X13193Y3195D01*
X13189Y3189D01*
X13185Y3183D01*
X13181Y3179D01*
X13177Y3174D01*
X13174Y3170D01*
X13171Y3166D01*
X13168Y3163D01*
X13166Y3161D01*
X13163Y3159D01*
X13162Y3157D01*
X13161Y3157D01*
X13161Y3156D01*
X12984D01*
Y3315D01*
X13059D01*
Y3231D01*
X13115D01*
X13121Y3238D01*
X13127Y3245D01*
X13132Y3252D01*
X13135Y3258D01*
X13139Y3264D01*
X13141Y3269D01*
X13142Y3272D01*
X13143Y3272D01*
Y3273D01*
X13146Y3281D01*
X13148Y3289D01*
X13150Y3297D01*
X13151Y3303D01*
X13152Y3309D01*
X13152Y3313D01*
Y3317D01*
X13152Y3325D01*
X13151Y3333D01*
X13149Y3341D01*
X13147Y3348D01*
X13144Y3354D01*
X13141Y3360D01*
X13138Y3366D01*
X13134Y3371D01*
X13131Y3375D01*
X13128Y3379D01*
X13125Y3382D01*
X13122Y3385D01*
X13120Y3387D01*
X13118Y3389D01*
X13117Y3390D01*
X13116Y3390D01*
X13108Y3395D01*
X13099Y3400D01*
X13090Y3404D01*
X13080Y3408D01*
X13070Y3411D01*
X13060Y3414D01*
X13040Y3417D01*
X13031Y3419D01*
X13022Y3420D01*
X13015Y3420D01*
X13008Y3421D01*
X13003Y3421D01*
X12998D01*
X12996D01*
X12995D01*
X12981Y3421D01*
X12969Y3420D01*
X12957Y3419D01*
X12946Y3417D01*
X12936Y3414D01*
X12927Y3412D01*
X12919Y3409D01*
X12911Y3406D01*
X12905Y3404D01*
X12899Y3401D01*
X12895Y3399D01*
X12891Y3396D01*
X12888Y3395D01*
X12885Y3394D01*
X12884Y3393D01*
X12884Y3392D01*
X12877Y3387D01*
X12872Y3380D01*
X12867Y3374D01*
X12863Y3368D01*
X12859Y3362D01*
X12856Y3355D01*
X12854Y3349D01*
X12852Y3343D01*
X12850Y3338D01*
X12849Y3333D01*
X12848Y3328D01*
X12848Y3324D01*
X12847Y3321D01*
Y3316D01*
X12848Y3305D01*
X12850Y3296D01*
X12853Y3287D01*
X12856Y3279D01*
X12860Y3273D01*
X12863Y3269D01*
X12865Y3266D01*
X12866Y3265D01*
X12873Y3257D01*
X12881Y3250D01*
X12890Y3245D01*
X12898Y3241D01*
X12906Y3238D01*
X12909Y3237D01*
X12912Y3236D01*
X12914Y3235D01*
X12916Y3235D01*
X12917Y3234D01*
X12918D01*
X12901Y3161D01*
X12889Y3164D01*
X12878Y3167D01*
X12868Y3170D01*
X12859Y3174D01*
X12850Y3178D01*
X12842Y3182D01*
X12835Y3186D01*
X12829Y3191D01*
X12823Y3195D01*
X12818Y3199D01*
X12813Y3203D01*
X12810Y3206D01*
X12807Y3208D01*
X12806Y3210D01*
X12805Y3211D01*
X12804Y3212D01*
X12798Y3220D01*
X12793Y3228D01*
X12788Y3236D01*
X12785Y3245D01*
X12781Y3254D01*
X12779Y3262D01*
X12775Y3279D01*
X12774Y3287D01*
X12773Y3294D01*
X12772Y3300D01*
X12771Y3305D01*
X12771Y3310D01*
Y3316D01*
X12771Y3326D01*
X12772Y3336D01*
X12773Y3345D01*
X12775Y3354D01*
X12776Y3362D01*
X12779Y3369D01*
X12781Y3377D01*
X12783Y3383D01*
X12786Y3389D01*
X12788Y3394D01*
X12791Y3398D01*
X12793Y3402D01*
X12794Y3405D01*
X12796Y3407D01*
X12796Y3409D01*
X12797Y3409D01*
X12802Y3416D01*
X12807Y3423D01*
X12820Y3435D01*
X12833Y3447D01*
X12845Y3456D01*
X12851Y3459D01*
X12857Y3463D01*
X12862Y3466D01*
X12866Y3468D01*
X12869Y3470D01*
X12872Y3472D01*
X12874Y3472D01*
X12874Y3473D01*
X12884Y3477D01*
X12895Y3481D01*
X12905Y3484D01*
X12916Y3487D01*
X12936Y3491D01*
X12947Y3492D01*
X12956Y3494D01*
X12965Y3495D01*
X12973Y3495D01*
X12981Y3496D01*
X12987Y3496D01*
X12992Y3497D01*
X12996D01*
X12998D01*
X12999D01*
X13013Y3496D01*
D02*
G37*
G36*
X13222Y3019D02*
X12932D01*
X13222Y2873D01*
Y2799D01*
X12778D01*
Y2867D01*
X13075D01*
X12778Y3016D01*
Y3088D01*
X13222D01*
Y3019D01*
D02*
G37*
G36*
Y2585D02*
X13221Y2569D01*
X13220Y2555D01*
X13218Y2542D01*
X13217Y2537D01*
X13215Y2532D01*
X13214Y2528D01*
X13213Y2524D01*
X13212Y2520D01*
X13211Y2517D01*
X13210Y2515D01*
X13210Y2514D01*
X13209Y2513D01*
Y2512D01*
X13204Y2502D01*
X13198Y2493D01*
X13192Y2484D01*
X13186Y2477D01*
X13180Y2472D01*
X13176Y2467D01*
X13173Y2465D01*
X13173Y2464D01*
X13172D01*
X13162Y2456D01*
X13151Y2450D01*
X13140Y2444D01*
X13129Y2440D01*
X13120Y2436D01*
X13115Y2434D01*
X13112Y2433D01*
X13109Y2432D01*
X13107Y2431D01*
X13106Y2431D01*
X13105D01*
X13088Y2426D01*
X13071Y2423D01*
X13054Y2421D01*
X13047Y2420D01*
X13039Y2419D01*
X13032Y2418D01*
X13025Y2418D01*
X13020D01*
X13015Y2417D01*
X13010D01*
X13007D01*
X13005D01*
X13005D01*
X12993D01*
X12982Y2418D01*
X12971Y2418D01*
X12961Y2419D01*
X12952Y2420D01*
X12943Y2421D01*
X12935Y2423D01*
X12928Y2424D01*
X12921Y2425D01*
X12915Y2426D01*
X12910Y2427D01*
X12906Y2428D01*
X12902Y2429D01*
X12900Y2430D01*
X12898Y2430D01*
X12898D01*
X12883Y2435D01*
X12869Y2441D01*
X12857Y2446D01*
X12852Y2449D01*
X12847Y2452D01*
X12842Y2455D01*
X12839Y2457D01*
X12836Y2459D01*
X12833Y2461D01*
X12831Y2463D01*
X12829Y2464D01*
X12829Y2464D01*
X12828Y2465D01*
X12819Y2473D01*
X12811Y2481D01*
X12804Y2489D01*
X12799Y2497D01*
X12795Y2503D01*
X12792Y2508D01*
X12791Y2510D01*
X12790Y2511D01*
X12790Y2512D01*
Y2512D01*
X12788Y2517D01*
X12786Y2523D01*
X12783Y2535D01*
X12781Y2548D01*
X12779Y2560D01*
X12779Y2566D01*
X12778Y2571D01*
Y2576D01*
X12778Y2580D01*
Y2722D01*
X13222D01*
Y2585D01*
D02*
G37*
G36*
X12013Y3496D02*
X12025Y3496D01*
X12037Y3495D01*
X12049Y3493D01*
X12060Y3491D01*
X12070Y3489D01*
X12080Y3487D01*
X12088Y3485D01*
X12096Y3483D01*
X12103Y3481D01*
X12109Y3479D01*
X12114Y3477D01*
X12118Y3475D01*
X12121Y3474D01*
X12123Y3474D01*
X12124Y3473D01*
X12133Y3468D01*
X12143Y3463D01*
X12151Y3458D01*
X12158Y3453D01*
X12166Y3447D01*
X12172Y3442D01*
X12178Y3437D01*
X12183Y3431D01*
X12188Y3426D01*
X12192Y3422D01*
X12195Y3418D01*
X12198Y3415D01*
X12200Y3412D01*
X12202Y3410D01*
X12203Y3408D01*
X12203Y3408D01*
X12207Y3400D01*
X12211Y3392D01*
X12215Y3384D01*
X12218Y3375D01*
X12223Y3360D01*
X12226Y3345D01*
X12227Y3338D01*
X12228Y3332D01*
X12228Y3327D01*
X12229Y3322D01*
X12229Y3318D01*
Y3313D01*
X12228Y3296D01*
X12226Y3280D01*
X12223Y3266D01*
X12221Y3259D01*
X12219Y3252D01*
X12217Y3246D01*
X12215Y3241D01*
X12213Y3236D01*
X12212Y3232D01*
X12211Y3229D01*
X12210Y3227D01*
X12209Y3225D01*
Y3225D01*
X12201Y3209D01*
X12197Y3202D01*
X12193Y3195D01*
X12189Y3189D01*
X12185Y3183D01*
X12181Y3179D01*
X12177Y3174D01*
X12174Y3170D01*
X12171Y3166D01*
X12168Y3163D01*
X12166Y3161D01*
X12163Y3159D01*
X12162Y3157D01*
X12161Y3157D01*
X12161Y3156D01*
X11984D01*
Y3315D01*
X12059D01*
Y3231D01*
X12115D01*
X12121Y3238D01*
X12127Y3245D01*
X12132Y3252D01*
X12135Y3258D01*
X12139Y3264D01*
X12141Y3269D01*
X12142Y3272D01*
X12143Y3272D01*
Y3273D01*
X12146Y3281D01*
X12148Y3289D01*
X12150Y3297D01*
X12151Y3303D01*
X12152Y3309D01*
X12152Y3313D01*
Y3317D01*
X12152Y3325D01*
X12151Y3333D01*
X12149Y3341D01*
X12147Y3348D01*
X12144Y3354D01*
X12141Y3360D01*
X12138Y3366D01*
X12134Y3371D01*
X12131Y3375D01*
X12128Y3379D01*
X12125Y3382D01*
X12122Y3385D01*
X12120Y3387D01*
X12118Y3389D01*
X12117Y3390D01*
X12116Y3390D01*
X12108Y3395D01*
X12099Y3400D01*
X12090Y3404D01*
X12080Y3408D01*
X12070Y3411D01*
X12060Y3414D01*
X12040Y3417D01*
X12031Y3419D01*
X12022Y3420D01*
X12015Y3420D01*
X12008Y3421D01*
X12003Y3421D01*
X11998D01*
X11996D01*
X11995D01*
X11981Y3421D01*
X11969Y3420D01*
X11957Y3419D01*
X11946Y3417D01*
X11936Y3414D01*
X11927Y3412D01*
X11919Y3409D01*
X11911Y3406D01*
X11905Y3404D01*
X11899Y3401D01*
X11895Y3399D01*
X11891Y3396D01*
X11888Y3395D01*
X11885Y3394D01*
X11884Y3393D01*
X11884Y3392D01*
X11877Y3387D01*
X11872Y3380D01*
X11867Y3374D01*
X11863Y3368D01*
X11859Y3362D01*
X11856Y3355D01*
X11854Y3349D01*
X11852Y3343D01*
X11850Y3338D01*
X11849Y3333D01*
X11848Y3328D01*
X11848Y3324D01*
X11847Y3321D01*
Y3316D01*
X11848Y3305D01*
X11850Y3296D01*
X11853Y3287D01*
X11856Y3279D01*
X11860Y3273D01*
X11863Y3269D01*
X11865Y3266D01*
X11866Y3265D01*
X11873Y3257D01*
X11881Y3250D01*
X11890Y3245D01*
X11898Y3241D01*
X11906Y3238D01*
X11909Y3237D01*
X11912Y3236D01*
X11914Y3235D01*
X11916Y3235D01*
X11917Y3234D01*
X11918D01*
X11901Y3161D01*
X11889Y3164D01*
X11878Y3167D01*
X11868Y3170D01*
X11859Y3174D01*
X11850Y3178D01*
X11842Y3182D01*
X11835Y3186D01*
X11829Y3191D01*
X11823Y3195D01*
X11818Y3199D01*
X11813Y3203D01*
X11810Y3206D01*
X11807Y3208D01*
X11805Y3210D01*
X11805Y3211D01*
X11804Y3212D01*
X11798Y3220D01*
X11793Y3228D01*
X11788Y3236D01*
X11785Y3245D01*
X11781Y3254D01*
X11779Y3262D01*
X11775Y3279D01*
X11774Y3287D01*
X11773Y3294D01*
X11772Y3300D01*
X11771Y3305D01*
X11771Y3310D01*
Y3316D01*
X11771Y3326D01*
X11772Y3336D01*
X11773Y3345D01*
X11775Y3354D01*
X11776Y3362D01*
X11779Y3369D01*
X11781Y3377D01*
X11783Y3383D01*
X11786Y3389D01*
X11788Y3394D01*
X11791Y3398D01*
X11793Y3402D01*
X11794Y3405D01*
X11796Y3407D01*
X11796Y3409D01*
X11797Y3409D01*
X11802Y3416D01*
X11807Y3423D01*
X11820Y3435D01*
X11833Y3447D01*
X11845Y3456D01*
X11851Y3459D01*
X11857Y3463D01*
X11862Y3466D01*
X11866Y3468D01*
X11869Y3470D01*
X11872Y3472D01*
X11874Y3472D01*
X11874Y3473D01*
X11884Y3477D01*
X11895Y3481D01*
X11905Y3484D01*
X11916Y3487D01*
X11936Y3491D01*
X11947Y3492D01*
X11956Y3494D01*
X11965Y3495D01*
X11973Y3495D01*
X11981Y3496D01*
X11987Y3496D01*
X11992Y3497D01*
X11996D01*
X11998D01*
X11999D01*
X12013Y3496D01*
D02*
G37*
G36*
X12222Y3019D02*
X11932D01*
X12222Y2873D01*
Y2799D01*
X11778D01*
Y2867D01*
X12075D01*
X11778Y3016D01*
Y3088D01*
X12222D01*
Y3019D01*
D02*
G37*
G36*
Y2585D02*
X12221Y2569D01*
X12220Y2555D01*
X12218Y2542D01*
X12217Y2537D01*
X12215Y2532D01*
X12214Y2528D01*
X12213Y2524D01*
X12212Y2520D01*
X12211Y2517D01*
X12210Y2515D01*
X12210Y2514D01*
X12209Y2513D01*
Y2512D01*
X12204Y2502D01*
X12198Y2493D01*
X12192Y2484D01*
X12186Y2477D01*
X12180Y2472D01*
X12176Y2467D01*
X12173Y2465D01*
X12173Y2464D01*
X12172D01*
X12162Y2456D01*
X12151Y2450D01*
X12140Y2444D01*
X12129Y2440D01*
X12120Y2436D01*
X12115Y2434D01*
X12112Y2433D01*
X12109Y2432D01*
X12107Y2431D01*
X12106Y2431D01*
X12105D01*
X12088Y2426D01*
X12071Y2423D01*
X12054Y2421D01*
X12047Y2420D01*
X12039Y2419D01*
X12032Y2418D01*
X12025Y2418D01*
X12020D01*
X12015Y2417D01*
X12010D01*
X12007D01*
X12005D01*
X12005D01*
X11993D01*
X11982Y2418D01*
X11971Y2418D01*
X11961Y2419D01*
X11952Y2420D01*
X11943Y2421D01*
X11935Y2423D01*
X11928Y2424D01*
X11921Y2425D01*
X11915Y2426D01*
X11910Y2427D01*
X11906Y2428D01*
X11902Y2429D01*
X11900Y2430D01*
X11898Y2430D01*
X11898D01*
X11883Y2435D01*
X11869Y2441D01*
X11857Y2446D01*
X11852Y2449D01*
X11847Y2452D01*
X11842Y2455D01*
X11839Y2457D01*
X11836Y2459D01*
X11833Y2461D01*
X11831Y2463D01*
X11829Y2464D01*
X11829Y2464D01*
X11828Y2465D01*
X11819Y2473D01*
X11811Y2481D01*
X11804Y2489D01*
X11799Y2497D01*
X11795Y2503D01*
X11792Y2508D01*
X11791Y2510D01*
X11790Y2511D01*
X11790Y2512D01*
Y2512D01*
X11788Y2517D01*
X11786Y2523D01*
X11783Y2535D01*
X11781Y2548D01*
X11779Y2560D01*
X11779Y2566D01*
X11778Y2571D01*
Y2576D01*
X11778Y2580D01*
Y2722D01*
X12222D01*
Y2585D01*
D02*
G37*
G36*
X10222Y3336D02*
Y3256D01*
X9778Y3126D01*
Y3205D01*
X10107Y3294D01*
X9778Y3386D01*
Y3465D01*
X10222Y3336D01*
D02*
G37*
G36*
Y2952D02*
X10221Y2936D01*
X10220Y2922D01*
X10218Y2910D01*
X10217Y2904D01*
X10215Y2899D01*
X10214Y2895D01*
X10213Y2891D01*
X10212Y2887D01*
X10211Y2884D01*
X10210Y2882D01*
X10210Y2881D01*
X10209Y2880D01*
Y2880D01*
X10204Y2869D01*
X10198Y2860D01*
X10192Y2851D01*
X10186Y2845D01*
X10180Y2839D01*
X10176Y2834D01*
X10173Y2832D01*
X10173Y2831D01*
X10172D01*
X10162Y2823D01*
X10151Y2817D01*
X10140Y2812D01*
X10129Y2807D01*
X10120Y2803D01*
X10115Y2801D01*
X10112Y2800D01*
X10109Y2799D01*
X10107Y2798D01*
X10106Y2798D01*
X10105D01*
X10088Y2793D01*
X10071Y2790D01*
X10054Y2788D01*
X10047Y2787D01*
X10039Y2786D01*
X10032Y2786D01*
X10025Y2785D01*
X10020D01*
X10015Y2785D01*
X10010D01*
X10007D01*
X10005D01*
X10005D01*
X9993D01*
X9982Y2785D01*
X9971Y2786D01*
X9961Y2787D01*
X9952Y2788D01*
X9943Y2788D01*
X9935Y2790D01*
X9928Y2791D01*
X9921Y2792D01*
X9915Y2793D01*
X9910Y2794D01*
X9906Y2795D01*
X9902Y2796D01*
X9900Y2797D01*
X9898Y2797D01*
X9898D01*
X9883Y2802D01*
X9869Y2808D01*
X9857Y2814D01*
X9852Y2817D01*
X9847Y2819D01*
X9842Y2822D01*
X9839Y2824D01*
X9836Y2826D01*
X9833Y2828D01*
X9831Y2830D01*
X9829Y2831D01*
X9829Y2831D01*
X9828Y2832D01*
X9819Y2840D01*
X9811Y2849D01*
X9804Y2856D01*
X9799Y2864D01*
X9795Y2870D01*
X9792Y2875D01*
X9791Y2877D01*
X9790Y2879D01*
X9790Y2879D01*
Y2880D01*
X9788Y2884D01*
X9786Y2890D01*
X9783Y2902D01*
X9781Y2915D01*
X9779Y2927D01*
X9779Y2933D01*
X9778Y2939D01*
Y2943D01*
X9778Y2947D01*
Y3090D01*
X10222D01*
Y2952D01*
D02*
G37*
G36*
Y2585D02*
X10221Y2569D01*
X10220Y2555D01*
X10218Y2542D01*
X10217Y2537D01*
X10215Y2532D01*
X10214Y2528D01*
X10213Y2524D01*
X10212Y2520D01*
X10211Y2517D01*
X10210Y2515D01*
X10210Y2514D01*
X10209Y2513D01*
Y2512D01*
X10204Y2502D01*
X10198Y2493D01*
X10192Y2484D01*
X10186Y2478D01*
X10180Y2472D01*
X10176Y2467D01*
X10173Y2465D01*
X10173Y2464D01*
X10172D01*
X10162Y2456D01*
X10151Y2450D01*
X10140Y2445D01*
X10129Y2440D01*
X10120Y2436D01*
X10115Y2434D01*
X10112Y2433D01*
X10109Y2432D01*
X10107Y2431D01*
X10106Y2431D01*
X10105D01*
X10088Y2426D01*
X10071Y2423D01*
X10054Y2421D01*
X10047Y2420D01*
X10039Y2419D01*
X10032Y2419D01*
X10025Y2418D01*
X10020D01*
X10015Y2418D01*
X10010D01*
X10007D01*
X10005D01*
X10005D01*
X9993D01*
X9982Y2418D01*
X9971Y2419D01*
X9961Y2419D01*
X9952Y2420D01*
X9943Y2421D01*
X9935Y2423D01*
X9928Y2424D01*
X9921Y2425D01*
X9915Y2426D01*
X9910Y2427D01*
X9906Y2428D01*
X9902Y2429D01*
X9900Y2430D01*
X9898Y2430D01*
X9898D01*
X9883Y2435D01*
X9869Y2441D01*
X9857Y2447D01*
X9852Y2449D01*
X9847Y2452D01*
X9842Y2455D01*
X9839Y2457D01*
X9836Y2459D01*
X9833Y2461D01*
X9831Y2463D01*
X9829Y2464D01*
X9829Y2464D01*
X9828Y2465D01*
X9819Y2473D01*
X9811Y2481D01*
X9804Y2489D01*
X9799Y2497D01*
X9795Y2503D01*
X9792Y2508D01*
X9791Y2510D01*
X9790Y2511D01*
X9790Y2512D01*
Y2512D01*
X9788Y2517D01*
X9786Y2523D01*
X9783Y2535D01*
X9781Y2548D01*
X9779Y2560D01*
X9779Y2566D01*
X9778Y2572D01*
Y2576D01*
X9778Y2580D01*
Y2723D01*
X10222D01*
Y2585D01*
D02*
G37*
G36*
X8222Y3336D02*
Y3256D01*
X7778Y3126D01*
Y3205D01*
X8107Y3294D01*
X7778Y3386D01*
Y3465D01*
X8222Y3336D01*
D02*
G37*
G36*
Y2952D02*
X8221Y2936D01*
X8220Y2922D01*
X8218Y2910D01*
X8217Y2904D01*
X8215Y2899D01*
X8214Y2895D01*
X8213Y2891D01*
X8212Y2887D01*
X8211Y2884D01*
X8210Y2882D01*
X8210Y2881D01*
X8209Y2880D01*
Y2880D01*
X8204Y2869D01*
X8198Y2860D01*
X8192Y2851D01*
X8186Y2845D01*
X8180Y2839D01*
X8176Y2834D01*
X8173Y2832D01*
X8173Y2831D01*
X8172D01*
X8162Y2823D01*
X8151Y2817D01*
X8140Y2812D01*
X8129Y2807D01*
X8120Y2803D01*
X8115Y2801D01*
X8112Y2800D01*
X8109Y2799D01*
X8107Y2798D01*
X8106Y2798D01*
X8105D01*
X8088Y2793D01*
X8071Y2790D01*
X8054Y2788D01*
X8047Y2787D01*
X8039Y2786D01*
X8032Y2786D01*
X8025Y2785D01*
X8020D01*
X8015Y2785D01*
X8010D01*
X8007D01*
X8005D01*
X8005D01*
X7993D01*
X7982Y2785D01*
X7971Y2786D01*
X7961Y2787D01*
X7952Y2788D01*
X7943Y2788D01*
X7935Y2790D01*
X7928Y2791D01*
X7921Y2792D01*
X7915Y2793D01*
X7910Y2794D01*
X7906Y2795D01*
X7902Y2796D01*
X7900Y2797D01*
X7898Y2797D01*
X7898D01*
X7883Y2802D01*
X7869Y2808D01*
X7857Y2814D01*
X7852Y2817D01*
X7847Y2819D01*
X7842Y2822D01*
X7839Y2824D01*
X7836Y2826D01*
X7833Y2828D01*
X7831Y2830D01*
X7829Y2831D01*
X7829Y2831D01*
X7828Y2832D01*
X7819Y2840D01*
X7811Y2849D01*
X7804Y2856D01*
X7799Y2864D01*
X7795Y2870D01*
X7792Y2875D01*
X7791Y2877D01*
X7790Y2879D01*
X7790Y2879D01*
Y2880D01*
X7788Y2884D01*
X7786Y2890D01*
X7783Y2902D01*
X7781Y2915D01*
X7779Y2927D01*
X7779Y2933D01*
X7778Y2939D01*
Y2943D01*
X7778Y2947D01*
Y3090D01*
X8222D01*
Y2952D01*
D02*
G37*
G36*
Y2585D02*
X8221Y2569D01*
X8220Y2555D01*
X8218Y2542D01*
X8217Y2537D01*
X8215Y2532D01*
X8214Y2528D01*
X8213Y2524D01*
X8212Y2520D01*
X8211Y2517D01*
X8210Y2515D01*
X8210Y2514D01*
X8209Y2513D01*
Y2512D01*
X8204Y2502D01*
X8198Y2493D01*
X8192Y2484D01*
X8186Y2478D01*
X8180Y2472D01*
X8176Y2467D01*
X8173Y2465D01*
X8173Y2464D01*
X8172D01*
X8162Y2456D01*
X8151Y2450D01*
X8140Y2445D01*
X8129Y2440D01*
X8120Y2436D01*
X8115Y2434D01*
X8112Y2433D01*
X8109Y2432D01*
X8107Y2431D01*
X8106Y2431D01*
X8105D01*
X8088Y2426D01*
X8071Y2423D01*
X8054Y2421D01*
X8047Y2420D01*
X8039Y2419D01*
X8032Y2419D01*
X8025Y2418D01*
X8020D01*
X8015Y2418D01*
X8010D01*
X8007D01*
X8005D01*
X8005D01*
X7993D01*
X7982Y2418D01*
X7971Y2419D01*
X7961Y2419D01*
X7952Y2420D01*
X7943Y2421D01*
X7935Y2423D01*
X7928Y2424D01*
X7921Y2425D01*
X7915Y2426D01*
X7910Y2427D01*
X7906Y2428D01*
X7902Y2429D01*
X7900Y2430D01*
X7898Y2430D01*
X7898D01*
X7883Y2435D01*
X7869Y2441D01*
X7857Y2447D01*
X7852Y2449D01*
X7847Y2452D01*
X7842Y2455D01*
X7839Y2457D01*
X7836Y2459D01*
X7833Y2461D01*
X7831Y2463D01*
X7829Y2464D01*
X7829Y2464D01*
X7828Y2465D01*
X7819Y2473D01*
X7811Y2481D01*
X7804Y2489D01*
X7799Y2497D01*
X7795Y2503D01*
X7792Y2508D01*
X7791Y2510D01*
X7790Y2511D01*
X7790Y2512D01*
Y2512D01*
X7788Y2517D01*
X7786Y2523D01*
X7783Y2535D01*
X7781Y2548D01*
X7779Y2560D01*
X7779Y2566D01*
X7778Y2572D01*
Y2576D01*
X7778Y2580D01*
Y2723D01*
X8222D01*
Y2585D01*
D02*
G37*
G36*
X7222Y3336D02*
Y3256D01*
X6778Y3126D01*
Y3205D01*
X7107Y3294D01*
X6778Y3386D01*
Y3465D01*
X7222Y3336D01*
D02*
G37*
G36*
Y2952D02*
X7221Y2936D01*
X7220Y2922D01*
X7218Y2910D01*
X7217Y2904D01*
X7215Y2899D01*
X7214Y2895D01*
X7213Y2891D01*
X7212Y2887D01*
X7211Y2884D01*
X7210Y2882D01*
X7210Y2881D01*
X7209Y2880D01*
Y2880D01*
X7204Y2869D01*
X7198Y2860D01*
X7192Y2851D01*
X7186Y2845D01*
X7180Y2839D01*
X7176Y2834D01*
X7173Y2832D01*
X7173Y2831D01*
X7172D01*
X7162Y2823D01*
X7151Y2817D01*
X7140Y2812D01*
X7129Y2807D01*
X7120Y2803D01*
X7115Y2801D01*
X7112Y2800D01*
X7109Y2799D01*
X7107Y2798D01*
X7106Y2798D01*
X7105D01*
X7088Y2793D01*
X7071Y2790D01*
X7054Y2788D01*
X7047Y2787D01*
X7039Y2786D01*
X7032Y2786D01*
X7025Y2785D01*
X7020D01*
X7015Y2785D01*
X7010D01*
X7007D01*
X7005D01*
X7005D01*
X6993D01*
X6982Y2785D01*
X6971Y2786D01*
X6961Y2787D01*
X6952Y2788D01*
X6943Y2788D01*
X6935Y2790D01*
X6928Y2791D01*
X6921Y2792D01*
X6915Y2793D01*
X6910Y2794D01*
X6906Y2795D01*
X6902Y2796D01*
X6900Y2797D01*
X6898Y2797D01*
X6898D01*
X6883Y2802D01*
X6869Y2808D01*
X6857Y2814D01*
X6852Y2817D01*
X6847Y2819D01*
X6842Y2822D01*
X6839Y2824D01*
X6836Y2826D01*
X6833Y2828D01*
X6831Y2830D01*
X6829Y2831D01*
X6829Y2831D01*
X6828Y2832D01*
X6819Y2840D01*
X6811Y2849D01*
X6804Y2856D01*
X6799Y2864D01*
X6795Y2870D01*
X6792Y2875D01*
X6791Y2877D01*
X6790Y2879D01*
X6790Y2879D01*
Y2880D01*
X6788Y2884D01*
X6786Y2890D01*
X6783Y2902D01*
X6781Y2915D01*
X6779Y2927D01*
X6779Y2933D01*
X6778Y2939D01*
Y2943D01*
X6778Y2947D01*
Y3090D01*
X7222D01*
Y2952D01*
D02*
G37*
G36*
Y2585D02*
X7221Y2569D01*
X7220Y2555D01*
X7218Y2542D01*
X7217Y2537D01*
X7215Y2532D01*
X7214Y2528D01*
X7213Y2524D01*
X7212Y2520D01*
X7211Y2517D01*
X7210Y2515D01*
X7210Y2514D01*
X7209Y2513D01*
Y2512D01*
X7204Y2502D01*
X7198Y2493D01*
X7192Y2484D01*
X7186Y2478D01*
X7180Y2472D01*
X7176Y2467D01*
X7173Y2465D01*
X7173Y2464D01*
X7172D01*
X7162Y2456D01*
X7151Y2450D01*
X7140Y2445D01*
X7129Y2440D01*
X7120Y2436D01*
X7115Y2434D01*
X7112Y2433D01*
X7109Y2432D01*
X7107Y2431D01*
X7106Y2431D01*
X7105D01*
X7088Y2426D01*
X7071Y2423D01*
X7054Y2421D01*
X7047Y2420D01*
X7039Y2419D01*
X7032Y2419D01*
X7025Y2418D01*
X7020D01*
X7015Y2418D01*
X7010D01*
X7007D01*
X7005D01*
X7005D01*
X6993D01*
X6982Y2418D01*
X6971Y2419D01*
X6961Y2419D01*
X6952Y2420D01*
X6943Y2421D01*
X6935Y2423D01*
X6928Y2424D01*
X6921Y2425D01*
X6915Y2426D01*
X6910Y2427D01*
X6906Y2428D01*
X6902Y2429D01*
X6900Y2430D01*
X6898Y2430D01*
X6898D01*
X6883Y2435D01*
X6869Y2441D01*
X6857Y2447D01*
X6852Y2449D01*
X6847Y2452D01*
X6842Y2455D01*
X6839Y2457D01*
X6836Y2459D01*
X6833Y2461D01*
X6831Y2463D01*
X6829Y2464D01*
X6829Y2464D01*
X6828Y2465D01*
X6819Y2473D01*
X6811Y2481D01*
X6804Y2489D01*
X6799Y2497D01*
X6795Y2503D01*
X6792Y2508D01*
X6791Y2510D01*
X6790Y2511D01*
X6790Y2512D01*
Y2512D01*
X6788Y2517D01*
X6786Y2523D01*
X6783Y2535D01*
X6781Y2548D01*
X6779Y2560D01*
X6779Y2566D01*
X6778Y2572D01*
Y2576D01*
X6778Y2580D01*
Y2723D01*
X7222D01*
Y2585D01*
D02*
G37*
G36*
X19222Y19116D02*
X18872D01*
X19222Y19044D01*
Y18973D01*
X18872Y18901D01*
X19222D01*
Y18832D01*
X18778D01*
Y18943D01*
X19082Y19008D01*
X18778Y19074D01*
Y19184D01*
X19222D01*
Y19116D01*
D02*
G37*
G36*
X19022Y18774D02*
X19042Y18772D01*
X19059Y18769D01*
X19076Y18766D01*
X19091Y18762D01*
X19105Y18758D01*
X19118Y18753D01*
X19130Y18748D01*
X19140Y18744D01*
X19149Y18739D01*
X19157Y18734D01*
X19163Y18730D01*
X19168Y18727D01*
X19172Y18724D01*
X19174Y18723D01*
X19174Y18722D01*
X19184Y18714D01*
X19193Y18704D01*
X19200Y18694D01*
X19206Y18684D01*
X19211Y18673D01*
X19216Y18663D01*
X19219Y18653D01*
X19222Y18643D01*
X19225Y18633D01*
X19226Y18625D01*
X19228Y18617D01*
X19228Y18611D01*
X19229Y18605D01*
X19229Y18601D01*
Y18597D01*
X19229Y18583D01*
X19227Y18569D01*
X19224Y18557D01*
X19220Y18545D01*
X19216Y18534D01*
X19212Y18524D01*
X19206Y18514D01*
X19202Y18506D01*
X19197Y18499D01*
X19191Y18492D01*
X19187Y18486D01*
X19182Y18482D01*
X19179Y18478D01*
X19176Y18475D01*
X19174Y18474D01*
X19174Y18473D01*
X19162Y18464D01*
X19148Y18456D01*
X19135Y18449D01*
X19120Y18443D01*
X19106Y18438D01*
X19091Y18434D01*
X19077Y18431D01*
X19063Y18428D01*
X19051Y18426D01*
X19038Y18424D01*
X19027Y18423D01*
X19018Y18422D01*
X19011Y18422D01*
X19007Y18421D01*
X19005D01*
X19003D01*
X19001D01*
X19000D01*
X19000D01*
X18980Y18422D01*
X18961Y18423D01*
X18943Y18426D01*
X18927Y18429D01*
X18912Y18433D01*
X18898Y18437D01*
X18885Y18441D01*
X18874Y18446D01*
X18864Y18450D01*
X18855Y18455D01*
X18848Y18459D01*
X18841Y18463D01*
X18837Y18466D01*
X18834Y18469D01*
X18831Y18470D01*
X18831Y18471D01*
X18820Y18480D01*
X18811Y18490D01*
X18803Y18501D01*
X18796Y18511D01*
X18790Y18522D01*
X18785Y18533D01*
X18781Y18543D01*
X18778Y18553D01*
X18775Y18562D01*
X18774Y18570D01*
X18773Y18578D01*
X18772Y18585D01*
X18771Y18591D01*
X18771Y18595D01*
Y18598D01*
X18771Y18608D01*
X18772Y18617D01*
X18773Y18626D01*
X18775Y18635D01*
X18776Y18643D01*
X18778Y18651D01*
X18781Y18657D01*
X18783Y18664D01*
X18786Y18670D01*
X18788Y18675D01*
X18790Y18679D01*
X18792Y18683D01*
X18794Y18686D01*
X18795Y18687D01*
X18796Y18689D01*
X18796Y18689D01*
X18801Y18696D01*
X18806Y18703D01*
X18819Y18715D01*
X18831Y18725D01*
X18844Y18734D01*
X18849Y18738D01*
X18855Y18742D01*
X18860Y18744D01*
X18864Y18747D01*
X18867Y18749D01*
X18870Y18750D01*
X18872Y18750D01*
X18872Y18751D01*
X18882Y18755D01*
X18893Y18758D01*
X18914Y18764D01*
X18936Y18768D01*
X18947Y18770D01*
X18957Y18771D01*
X18966Y18772D01*
X18975Y18773D01*
X18983Y18774D01*
X18990D01*
X18995Y18774D01*
X18999D01*
X19002D01*
X19003D01*
X19022Y18774D01*
D02*
G37*
G36*
X19222Y18226D02*
X19221Y18211D01*
X19220Y18196D01*
X19218Y18184D01*
X19217Y18179D01*
X19215Y18174D01*
X19214Y18169D01*
X19213Y18165D01*
X19212Y18162D01*
X19211Y18159D01*
X19210Y18157D01*
X19210Y18156D01*
X19209Y18155D01*
Y18154D01*
X19204Y18144D01*
X19198Y18134D01*
X19192Y18126D01*
X19186Y18119D01*
X19180Y18113D01*
X19176Y18109D01*
X19173Y18106D01*
X19173Y18105D01*
X19172D01*
X19162Y18098D01*
X19151Y18092D01*
X19140Y18086D01*
X19129Y18081D01*
X19120Y18077D01*
X19115Y18076D01*
X19112Y18075D01*
X19109Y18074D01*
X19107Y18073D01*
X19106Y18073D01*
X19105D01*
X19088Y18068D01*
X19071Y18065D01*
X19054Y18063D01*
X19047Y18062D01*
X19039Y18061D01*
X19032Y18060D01*
X19025Y18060D01*
X19020D01*
X19015Y18059D01*
X19010D01*
X19007D01*
X19005D01*
X19005D01*
X18993D01*
X18982Y18060D01*
X18971Y18060D01*
X18961Y18061D01*
X18952Y18062D01*
X18943Y18063D01*
X18935Y18065D01*
X18928Y18066D01*
X18921Y18067D01*
X18915Y18068D01*
X18910Y18069D01*
X18906Y18070D01*
X18902Y18071D01*
X18900Y18072D01*
X18898Y18072D01*
X18898D01*
X18883Y18077D01*
X18869Y18082D01*
X18857Y18088D01*
X18852Y18091D01*
X18847Y18094D01*
X18842Y18097D01*
X18839Y18099D01*
X18836Y18101D01*
X18833Y18103D01*
X18831Y18104D01*
X18829Y18105D01*
X18829Y18106D01*
X18828Y18106D01*
X18819Y18115D01*
X18811Y18123D01*
X18804Y18131D01*
X18799Y18138D01*
X18795Y18145D01*
X18792Y18150D01*
X18791Y18152D01*
X18790Y18153D01*
X18790Y18154D01*
Y18154D01*
X18788Y18159D01*
X18786Y18165D01*
X18783Y18177D01*
X18781Y18190D01*
X18779Y18202D01*
X18779Y18208D01*
X18778Y18213D01*
Y18218D01*
X18778Y18222D01*
Y18364D01*
X19222D01*
Y18226D01*
D02*
G37*
G36*
Y17720D02*
X19146D01*
Y17923D01*
X19026D01*
Y17740D01*
X18952D01*
Y17923D01*
X18853D01*
Y17727D01*
X18778D01*
Y17996D01*
X19222D01*
Y17720D01*
D02*
G37*
G36*
X18213Y19111D02*
X18027D01*
Y19087D01*
X18028Y19079D01*
X18029Y19073D01*
X18029Y19068D01*
X18030Y19064D01*
X18031Y19061D01*
X18032Y19059D01*
X18032Y19059D01*
X18034Y19055D01*
X18037Y19051D01*
X18040Y19047D01*
X18043Y19044D01*
X18046Y19041D01*
X18049Y19039D01*
X18050Y19038D01*
X18051Y19037D01*
X18054Y19035D01*
X18057Y19033D01*
X18061Y19030D01*
X18066Y19027D01*
X18077Y19021D01*
X18089Y19014D01*
X18099Y19008D01*
X18104Y19005D01*
X18108Y19003D01*
X18111Y19001D01*
X18114Y19000D01*
X18116Y18999D01*
X18116Y18998D01*
X18213Y18945D01*
Y18857D01*
X18126Y18902D01*
X18117Y18906D01*
X18108Y18911D01*
X18100Y18915D01*
X18093Y18919D01*
X18087Y18923D01*
X18081Y18927D01*
X18075Y18930D01*
X18071Y18933D01*
X18067Y18935D01*
X18063Y18937D01*
X18060Y18939D01*
X18058Y18941D01*
X18056Y18942D01*
X18055Y18943D01*
X18054Y18944D01*
X18047Y18950D01*
X18040Y18956D01*
X18033Y18963D01*
X18028Y18969D01*
X18023Y18974D01*
X18020Y18979D01*
X18018Y18982D01*
X18017Y18982D01*
Y18983D01*
X18015Y18974D01*
X18013Y18966D01*
X18010Y18959D01*
X18007Y18952D01*
X18004Y18946D01*
X18000Y18940D01*
X17997Y18934D01*
X17994Y18930D01*
X17990Y18926D01*
X17987Y18922D01*
X17984Y18919D01*
X17982Y18916D01*
X17980Y18914D01*
X17978Y18912D01*
X17977Y18912D01*
X17977Y18911D01*
X17970Y18907D01*
X17964Y18903D01*
X17957Y18900D01*
X17950Y18897D01*
X17937Y18892D01*
X17923Y18889D01*
X17917Y18888D01*
X17911Y18888D01*
X17906Y18887D01*
X17902Y18887D01*
X17898Y18886D01*
X17896D01*
X17894D01*
X17893D01*
X17878Y18887D01*
X17865Y18889D01*
X17852Y18892D01*
X17842Y18895D01*
X17838Y18896D01*
X17834Y18898D01*
X17830Y18899D01*
X17828Y18901D01*
X17825Y18902D01*
X17824Y18903D01*
X17823Y18903D01*
X17822D01*
X17812Y18909D01*
X17804Y18916D01*
X17796Y18923D01*
X17790Y18930D01*
X17786Y18936D01*
X17783Y18940D01*
X17782Y18942D01*
X17782Y18944D01*
X17781Y18944D01*
Y18945D01*
X17779Y18950D01*
X17777Y18956D01*
X17775Y18962D01*
X17774Y18968D01*
X17772Y18983D01*
X17770Y18996D01*
X17770Y19003D01*
X17769Y19009D01*
Y19015D01*
X17769Y19020D01*
Y19184D01*
X18213D01*
Y19111D01*
D02*
G37*
G36*
Y18766D02*
X18062Y18685D01*
X18213Y18604D01*
Y18515D01*
X17981Y18641D01*
X17769Y18527D01*
Y18612D01*
X17902Y18685D01*
X17769Y18757D01*
Y18842D01*
X17982Y18728D01*
X18213Y18854D01*
Y18766D01*
D02*
G37*
G36*
X18290Y18228D02*
X18259D01*
Y18519D01*
X18290D01*
Y18228D01*
D02*
G37*
G36*
X18213Y17919D02*
X18137D01*
Y18122D01*
X18017D01*
Y17939D01*
X17942D01*
Y18122D01*
X17844D01*
Y17925D01*
X17769D01*
Y18195D01*
X18213D01*
Y17919D01*
D02*
G37*
G36*
Y17787D02*
X17923D01*
X18213Y17641D01*
Y17566D01*
X17769D01*
Y17635D01*
X18065D01*
X17769Y17784D01*
Y17855D01*
X18213D01*
Y17787D01*
D02*
G37*
G36*
X17216Y19106D02*
X17116Y19076D01*
Y18931D01*
X17216Y18899D01*
Y18819D01*
X16772Y18964D01*
Y19043D01*
X17216Y19184D01*
Y19106D01*
D02*
G37*
G36*
Y18710D02*
X16927D01*
X17216Y18564D01*
Y18490D01*
X16772D01*
Y18558D01*
X17069D01*
X16772Y18707D01*
Y18779D01*
X17216D01*
Y18710D01*
D02*
G37*
G36*
X16848Y18331D02*
X17216D01*
Y18257D01*
X16848D01*
Y18150D01*
X16772D01*
Y18439D01*
X16848D01*
Y18331D01*
D02*
G37*
G36*
X17294Y17853D02*
X17263D01*
Y18143D01*
X17294D01*
Y17853D01*
D02*
G37*
G36*
X17085Y17836D02*
X17098Y17834D01*
X17110Y17831D01*
X17121Y17827D01*
X17132Y17823D01*
X17142Y17819D01*
X17151Y17814D01*
X17159Y17808D01*
X17167Y17803D01*
X17174Y17797D01*
X17180Y17791D01*
X17186Y17784D01*
X17192Y17778D01*
X17197Y17771D01*
X17200Y17765D01*
X17204Y17758D01*
X17211Y17745D01*
X17216Y17733D01*
X17219Y17721D01*
X17221Y17710D01*
X17222Y17706D01*
X17223Y17702D01*
X17223Y17698D01*
Y17695D01*
X17224Y17693D01*
Y17689D01*
X17223Y17675D01*
X17222Y17663D01*
X17220Y17651D01*
X17218Y17640D01*
X17215Y17630D01*
X17211Y17621D01*
X17208Y17612D01*
X17204Y17605D01*
X17200Y17599D01*
X17197Y17593D01*
X17194Y17588D01*
X17191Y17585D01*
X17188Y17582D01*
X17186Y17580D01*
X17185Y17579D01*
X17185Y17578D01*
X17177Y17572D01*
X17169Y17566D01*
X17161Y17561D01*
X17153Y17557D01*
X17145Y17554D01*
X17137Y17551D01*
X17129Y17549D01*
X17121Y17547D01*
X17114Y17545D01*
X17108Y17544D01*
X17102Y17543D01*
X17097Y17543D01*
X17093Y17542D01*
X17090D01*
X17088D01*
X17087D01*
X17073Y17543D01*
X17060Y17544D01*
X17048Y17547D01*
X17039Y17549D01*
X17034Y17550D01*
X17030Y17551D01*
X17027Y17552D01*
X17024Y17553D01*
X17022Y17554D01*
X17021Y17555D01*
X17020Y17555D01*
X17019D01*
X17010Y17561D01*
X17000Y17567D01*
X16992Y17573D01*
X16986Y17579D01*
X16981Y17584D01*
X16977Y17589D01*
X16975Y17592D01*
X16974Y17592D01*
Y17593D01*
X16970Y17598D01*
X16967Y17603D01*
X16961Y17616D01*
X16955Y17629D01*
X16950Y17642D01*
X16948Y17648D01*
X16946Y17654D01*
X16944Y17659D01*
X16943Y17664D01*
X16941Y17668D01*
X16940Y17671D01*
X16940Y17672D01*
Y17673D01*
X16937Y17682D01*
X16934Y17691D01*
X16932Y17699D01*
X16929Y17705D01*
X16927Y17711D01*
X16924Y17717D01*
X16922Y17722D01*
X16921Y17726D01*
X16919Y17730D01*
X16917Y17733D01*
X16916Y17735D01*
X16915Y17737D01*
X16913Y17739D01*
X16913Y17740D01*
X16908Y17745D01*
X16903Y17748D01*
X16897Y17751D01*
X16893Y17752D01*
X16889Y17753D01*
X16885Y17754D01*
X16883D01*
X16882D01*
X16876Y17754D01*
X16870Y17752D01*
X16864Y17749D01*
X16860Y17746D01*
X16857Y17743D01*
X16854Y17741D01*
X16852Y17739D01*
X16852Y17738D01*
X16848Y17732D01*
X16845Y17725D01*
X16842Y17717D01*
X16841Y17709D01*
X16840Y17703D01*
X16839Y17698D01*
Y17693D01*
X16840Y17682D01*
X16841Y17673D01*
X16844Y17665D01*
X16846Y17659D01*
X16849Y17654D01*
X16851Y17650D01*
X16853Y17648D01*
X16854Y17647D01*
X16857Y17644D01*
X16860Y17642D01*
X16867Y17637D01*
X16876Y17633D01*
X16884Y17630D01*
X16891Y17628D01*
X16894Y17627D01*
X16897Y17627D01*
X16900Y17626D01*
X16902Y17626D01*
X16903D01*
X16903D01*
X16899Y17552D01*
X16888Y17553D01*
X16877Y17554D01*
X16866Y17556D01*
X16857Y17559D01*
X16848Y17562D01*
X16839Y17565D01*
X16832Y17569D01*
X16826Y17572D01*
X16820Y17576D01*
X16814Y17579D01*
X16810Y17582D01*
X16806Y17584D01*
X16803Y17587D01*
X16801Y17589D01*
X16800Y17590D01*
X16800Y17590D01*
X16794Y17597D01*
X16789Y17605D01*
X16784Y17613D01*
X16780Y17621D01*
X16776Y17630D01*
X16773Y17638D01*
X16771Y17646D01*
X16769Y17654D01*
X16768Y17662D01*
X16767Y17669D01*
X16766Y17674D01*
X16766Y17680D01*
X16765Y17684D01*
Y17691D01*
X16766Y17706D01*
X16768Y17720D01*
X16770Y17732D01*
X16771Y17737D01*
X16772Y17743D01*
X16774Y17747D01*
X16775Y17751D01*
X16777Y17755D01*
X16778Y17757D01*
X16779Y17760D01*
X16780Y17761D01*
X16780Y17762D01*
Y17763D01*
X16786Y17773D01*
X16794Y17782D01*
X16800Y17790D01*
X16808Y17796D01*
X16814Y17801D01*
X16819Y17805D01*
X16821Y17806D01*
X16823Y17807D01*
X16824Y17808D01*
X16824D01*
X16835Y17814D01*
X16846Y17818D01*
X16858Y17821D01*
X16867Y17823D01*
X16876Y17824D01*
X16880Y17824D01*
X16883D01*
X16886Y17825D01*
X16888D01*
X16889D01*
X16889D01*
X16900Y17824D01*
X16911Y17823D01*
X16921Y17821D01*
X16930Y17818D01*
X16937Y17816D01*
X16940Y17815D01*
X16942Y17814D01*
X16944Y17813D01*
X16946Y17812D01*
X16947Y17812D01*
X16947D01*
X16957Y17806D01*
X16965Y17801D01*
X16973Y17795D01*
X16979Y17790D01*
X16984Y17785D01*
X16988Y17781D01*
X16990Y17778D01*
X16991Y17777D01*
X16994Y17773D01*
X16997Y17768D01*
X17003Y17758D01*
X17008Y17746D01*
X17013Y17734D01*
X17016Y17725D01*
X17018Y17720D01*
X17019Y17716D01*
X17020Y17713D01*
X17021Y17710D01*
X17022Y17709D01*
Y17708D01*
X17025Y17699D01*
X17027Y17691D01*
X17030Y17683D01*
X17032Y17676D01*
X17034Y17670D01*
X17036Y17665D01*
X17038Y17660D01*
X17039Y17656D01*
X17041Y17653D01*
X17042Y17650D01*
X17043Y17647D01*
X17043Y17646D01*
X17044Y17643D01*
X17045Y17643D01*
X17047Y17638D01*
X17050Y17634D01*
X17053Y17630D01*
X17056Y17627D01*
X17058Y17625D01*
X17060Y17624D01*
X17062Y17623D01*
X17062Y17622D01*
X17066Y17620D01*
X17071Y17618D01*
X17079Y17616D01*
X17082Y17616D01*
X17085Y17615D01*
X17087D01*
X17088D01*
X17097Y17616D01*
X17105Y17618D01*
X17112Y17621D01*
X17119Y17625D01*
X17124Y17629D01*
X17128Y17632D01*
X17130Y17634D01*
X17131Y17635D01*
X17137Y17642D01*
X17140Y17651D01*
X17143Y17660D01*
X17146Y17668D01*
X17147Y17675D01*
X17147Y17679D01*
Y17682D01*
X17148Y17684D01*
Y17687D01*
X17147Y17693D01*
X17147Y17699D01*
X17144Y17710D01*
X17140Y17720D01*
X17135Y17728D01*
X17128Y17735D01*
X17121Y17742D01*
X17113Y17747D01*
X17105Y17752D01*
X17097Y17756D01*
X17090Y17759D01*
X17082Y17762D01*
X17076Y17764D01*
X17071Y17765D01*
X17066Y17766D01*
X17064Y17766D01*
X17063D01*
X17071Y17838D01*
X17085Y17836D01*
D02*
G37*
G36*
X17216Y17204D02*
X17141D01*
Y17407D01*
X17021D01*
Y17224D01*
X16946D01*
Y17407D01*
X16848D01*
Y17211D01*
X16772D01*
Y17480D01*
X17216D01*
Y17204D01*
D02*
G37*
G36*
Y16884D02*
X17141D01*
Y17067D01*
X16776D01*
Y17140D01*
X17216D01*
Y16884D01*
D02*
G37*
G36*
X10490Y19182D02*
X10504Y19180D01*
X10515Y19177D01*
X10527Y19173D01*
X10538Y19169D01*
X10547Y19165D01*
X10556Y19160D01*
X10565Y19154D01*
X10573Y19149D01*
X10579Y19143D01*
X10586Y19137D01*
X10592Y19130D01*
X10597Y19124D01*
X10602Y19118D01*
X10606Y19111D01*
X10610Y19104D01*
X10616Y19091D01*
X10621Y19079D01*
X10625Y19067D01*
X10627Y19057D01*
X10628Y19052D01*
X10628Y19048D01*
X10629Y19044D01*
Y19041D01*
X10629Y19039D01*
Y19035D01*
X10629Y19022D01*
X10628Y19009D01*
X10626Y18997D01*
X10623Y18986D01*
X10620Y18976D01*
X10617Y18967D01*
X10613Y18959D01*
X10609Y18951D01*
X10606Y18945D01*
X10603Y18939D01*
X10599Y18934D01*
X10596Y18931D01*
X10594Y18928D01*
X10592Y18926D01*
X10591Y18925D01*
X10590Y18924D01*
X10583Y18918D01*
X10575Y18912D01*
X10567Y18907D01*
X10558Y18903D01*
X10550Y18900D01*
X10542Y18897D01*
X10534Y18895D01*
X10527Y18893D01*
X10520Y18891D01*
X10513Y18890D01*
X10508Y18889D01*
X10503Y18889D01*
X10498Y18888D01*
X10495D01*
X10493D01*
X10493D01*
X10479Y18889D01*
X10465Y18890D01*
X10454Y18893D01*
X10444Y18895D01*
X10440Y18896D01*
X10436Y18897D01*
X10433Y18899D01*
X10430Y18900D01*
X10428Y18900D01*
X10426Y18901D01*
X10425Y18902D01*
X10425D01*
X10415Y18907D01*
X10406Y18913D01*
X10398Y18919D01*
X10391Y18925D01*
X10386Y18931D01*
X10382Y18935D01*
X10380Y18938D01*
X10379Y18938D01*
Y18939D01*
X10376Y18944D01*
X10373Y18949D01*
X10366Y18962D01*
X10360Y18975D01*
X10356Y18988D01*
X10353Y18995D01*
X10351Y19000D01*
X10350Y19005D01*
X10348Y19010D01*
X10347Y19014D01*
X10346Y19017D01*
X10345Y19019D01*
Y19019D01*
X10342Y19028D01*
X10340Y19037D01*
X10337Y19045D01*
X10335Y19052D01*
X10332Y19057D01*
X10330Y19063D01*
X10328Y19068D01*
X10326Y19072D01*
X10325Y19076D01*
X10323Y19079D01*
X10322Y19081D01*
X10320Y19083D01*
X10319Y19085D01*
X10318Y19086D01*
X10313Y19091D01*
X10308Y19094D01*
X10303Y19097D01*
X10298Y19098D01*
X10294Y19099D01*
X10291Y19100D01*
X10289D01*
X10288D01*
X10281Y19100D01*
X10275Y19098D01*
X10270Y19095D01*
X10266Y19092D01*
X10262Y19089D01*
X10259Y19087D01*
X10258Y19085D01*
X10257Y19085D01*
X10253Y19078D01*
X10250Y19071D01*
X10248Y19063D01*
X10246Y19056D01*
X10245Y19049D01*
X10245Y19044D01*
Y19039D01*
X10245Y19028D01*
X10247Y19019D01*
X10249Y19011D01*
X10252Y19005D01*
X10255Y19000D01*
X10257Y18996D01*
X10259Y18994D01*
X10259Y18993D01*
X10262Y18990D01*
X10266Y18988D01*
X10273Y18983D01*
X10281Y18979D01*
X10289Y18976D01*
X10297Y18974D01*
X10300Y18973D01*
X10303Y18973D01*
X10305Y18972D01*
X10307Y18972D01*
X10308D01*
X10309D01*
X10305Y18898D01*
X10293Y18899D01*
X10282Y18901D01*
X10272Y18902D01*
X10262Y18905D01*
X10253Y18908D01*
X10245Y18911D01*
X10237Y18915D01*
X10231Y18918D01*
X10225Y18922D01*
X10220Y18925D01*
X10215Y18928D01*
X10212Y18931D01*
X10209Y18933D01*
X10207Y18935D01*
X10206Y18936D01*
X10206Y18936D01*
X10199Y18943D01*
X10194Y18951D01*
X10189Y18959D01*
X10185Y18967D01*
X10182Y18976D01*
X10179Y18984D01*
X10177Y18992D01*
X10175Y19000D01*
X10174Y19008D01*
X10173Y19015D01*
X10172Y19021D01*
X10171Y19026D01*
X10171Y19030D01*
Y19037D01*
X10171Y19052D01*
X10173Y19066D01*
X10175Y19078D01*
X10177Y19084D01*
X10178Y19089D01*
X10179Y19093D01*
X10181Y19097D01*
X10182Y19101D01*
X10183Y19103D01*
X10184Y19106D01*
X10185Y19107D01*
X10186Y19108D01*
Y19109D01*
X10192Y19119D01*
X10199Y19128D01*
X10206Y19136D01*
X10213Y19143D01*
X10220Y19148D01*
X10225Y19151D01*
X10227Y19152D01*
X10228Y19153D01*
X10229Y19154D01*
X10230D01*
X10241Y19160D01*
X10252Y19164D01*
X10263Y19167D01*
X10273Y19169D01*
X10282Y19170D01*
X10285Y19170D01*
X10289D01*
X10291Y19171D01*
X10293D01*
X10294D01*
X10295D01*
X10306Y19170D01*
X10317Y19169D01*
X10327Y19167D01*
X10335Y19164D01*
X10342Y19162D01*
X10345Y19161D01*
X10348Y19160D01*
X10350Y19159D01*
X10351Y19158D01*
X10352Y19158D01*
X10353D01*
X10362Y19152D01*
X10371Y19147D01*
X10378Y19141D01*
X10385Y19136D01*
X10390Y19131D01*
X10393Y19127D01*
X10395Y19124D01*
X10396Y19123D01*
X10399Y19119D01*
X10402Y19114D01*
X10408Y19104D01*
X10414Y19092D01*
X10418Y19081D01*
X10422Y19071D01*
X10423Y19066D01*
X10425Y19062D01*
X10426Y19059D01*
X10427Y19057D01*
X10427Y19055D01*
Y19055D01*
X10430Y19045D01*
X10433Y19037D01*
X10435Y19029D01*
X10438Y19022D01*
X10440Y19016D01*
X10442Y19011D01*
X10443Y19006D01*
X10445Y19002D01*
X10446Y18999D01*
X10447Y18996D01*
X10448Y18994D01*
X10449Y18992D01*
X10450Y18990D01*
X10450Y18989D01*
X10453Y18984D01*
X10455Y18980D01*
X10459Y18976D01*
X10461Y18973D01*
X10464Y18971D01*
X10466Y18970D01*
X10467Y18969D01*
X10468Y18968D01*
X10472Y18966D01*
X10476Y18964D01*
X10484Y18963D01*
X10488Y18962D01*
X10491Y18962D01*
X10493D01*
X10493D01*
X10503Y18963D01*
X10511Y18964D01*
X10518Y18967D01*
X10524Y18971D01*
X10529Y18975D01*
X10533Y18978D01*
X10535Y18980D01*
X10536Y18981D01*
X10542Y18989D01*
X10546Y18997D01*
X10549Y19006D01*
X10551Y19014D01*
X10552Y19022D01*
X10553Y19025D01*
Y19028D01*
X10553Y19030D01*
Y19033D01*
X10553Y19039D01*
X10552Y19045D01*
X10550Y19056D01*
X10545Y19066D01*
X10540Y19074D01*
X10534Y19082D01*
X10526Y19088D01*
X10519Y19093D01*
X10511Y19098D01*
X10503Y19102D01*
X10495Y19105D01*
X10488Y19108D01*
X10482Y19110D01*
X10476Y19111D01*
X10472Y19112D01*
X10469Y19113D01*
X10468D01*
X10477Y19184D01*
X10490Y19182D01*
D02*
G37*
G36*
Y18843D02*
X10504Y18841D01*
X10515Y18838D01*
X10527Y18834D01*
X10538Y18830D01*
X10547Y18826D01*
X10556Y18821D01*
X10565Y18815D01*
X10573Y18810D01*
X10579Y18804D01*
X10586Y18798D01*
X10592Y18791D01*
X10597Y18785D01*
X10602Y18779D01*
X10606Y18772D01*
X10610Y18765D01*
X10616Y18752D01*
X10621Y18740D01*
X10625Y18728D01*
X10627Y18718D01*
X10628Y18713D01*
X10628Y18709D01*
X10629Y18705D01*
Y18702D01*
X10629Y18700D01*
Y18696D01*
X10629Y18683D01*
X10628Y18670D01*
X10626Y18658D01*
X10623Y18647D01*
X10620Y18637D01*
X10617Y18628D01*
X10613Y18620D01*
X10609Y18612D01*
X10606Y18606D01*
X10603Y18600D01*
X10599Y18595D01*
X10596Y18592D01*
X10594Y18589D01*
X10592Y18587D01*
X10591Y18586D01*
X10590Y18585D01*
X10583Y18579D01*
X10575Y18573D01*
X10567Y18568D01*
X10558Y18564D01*
X10550Y18561D01*
X10542Y18558D01*
X10534Y18556D01*
X10527Y18554D01*
X10520Y18552D01*
X10513Y18551D01*
X10508Y18550D01*
X10503Y18550D01*
X10498Y18549D01*
X10495D01*
X10493D01*
X10493D01*
X10479Y18550D01*
X10465Y18551D01*
X10454Y18554D01*
X10444Y18556D01*
X10440Y18557D01*
X10436Y18558D01*
X10433Y18560D01*
X10430Y18561D01*
X10428Y18561D01*
X10426Y18562D01*
X10425Y18563D01*
X10425D01*
X10415Y18568D01*
X10406Y18574D01*
X10398Y18580D01*
X10391Y18586D01*
X10386Y18592D01*
X10382Y18596D01*
X10380Y18599D01*
X10379Y18599D01*
Y18600D01*
X10376Y18605D01*
X10373Y18610D01*
X10366Y18623D01*
X10360Y18636D01*
X10356Y18649D01*
X10353Y18656D01*
X10351Y18661D01*
X10350Y18666D01*
X10348Y18671D01*
X10347Y18675D01*
X10346Y18678D01*
X10345Y18680D01*
Y18680D01*
X10342Y18689D01*
X10340Y18698D01*
X10337Y18706D01*
X10335Y18713D01*
X10332Y18719D01*
X10330Y18724D01*
X10328Y18729D01*
X10326Y18733D01*
X10325Y18737D01*
X10323Y18740D01*
X10322Y18742D01*
X10320Y18744D01*
X10319Y18746D01*
X10318Y18747D01*
X10313Y18752D01*
X10308Y18755D01*
X10303Y18758D01*
X10298Y18759D01*
X10294Y18760D01*
X10291Y18761D01*
X10289D01*
X10288D01*
X10281Y18761D01*
X10275Y18759D01*
X10270Y18756D01*
X10266Y18753D01*
X10262Y18750D01*
X10259Y18748D01*
X10258Y18746D01*
X10257Y18746D01*
X10253Y18739D01*
X10250Y18732D01*
X10248Y18724D01*
X10246Y18717D01*
X10245Y18710D01*
X10245Y18705D01*
Y18700D01*
X10245Y18689D01*
X10247Y18680D01*
X10249Y18672D01*
X10252Y18666D01*
X10255Y18661D01*
X10257Y18657D01*
X10259Y18655D01*
X10259Y18654D01*
X10262Y18651D01*
X10266Y18649D01*
X10273Y18644D01*
X10281Y18640D01*
X10289Y18637D01*
X10297Y18635D01*
X10300Y18634D01*
X10303Y18634D01*
X10305Y18633D01*
X10307Y18633D01*
X10308D01*
X10309D01*
X10305Y18559D01*
X10293Y18560D01*
X10282Y18562D01*
X10272Y18564D01*
X10262Y18566D01*
X10253Y18569D01*
X10245Y18572D01*
X10237Y18576D01*
X10231Y18579D01*
X10225Y18583D01*
X10220Y18586D01*
X10215Y18589D01*
X10212Y18592D01*
X10209Y18594D01*
X10207Y18596D01*
X10206Y18597D01*
X10206Y18597D01*
X10199Y18604D01*
X10194Y18612D01*
X10189Y18620D01*
X10185Y18628D01*
X10182Y18637D01*
X10179Y18645D01*
X10177Y18653D01*
X10175Y18661D01*
X10174Y18669D01*
X10173Y18676D01*
X10172Y18682D01*
X10171Y18687D01*
X10171Y18691D01*
Y18698D01*
X10171Y18713D01*
X10173Y18727D01*
X10175Y18739D01*
X10177Y18745D01*
X10178Y18750D01*
X10179Y18754D01*
X10181Y18758D01*
X10182Y18762D01*
X10183Y18764D01*
X10184Y18767D01*
X10185Y18768D01*
X10186Y18769D01*
Y18770D01*
X10192Y18780D01*
X10199Y18789D01*
X10206Y18797D01*
X10213Y18804D01*
X10220Y18809D01*
X10225Y18812D01*
X10227Y18813D01*
X10228Y18814D01*
X10229Y18815D01*
X10230D01*
X10241Y18821D01*
X10252Y18825D01*
X10263Y18828D01*
X10273Y18830D01*
X10282Y18831D01*
X10285Y18831D01*
X10289D01*
X10291Y18832D01*
X10293D01*
X10294D01*
X10295D01*
X10306Y18831D01*
X10317Y18830D01*
X10327Y18828D01*
X10335Y18825D01*
X10342Y18823D01*
X10345Y18822D01*
X10348Y18821D01*
X10350Y18820D01*
X10351Y18819D01*
X10352Y18819D01*
X10353D01*
X10362Y18813D01*
X10371Y18808D01*
X10378Y18802D01*
X10385Y18797D01*
X10390Y18792D01*
X10393Y18788D01*
X10395Y18785D01*
X10396Y18784D01*
X10399Y18780D01*
X10402Y18775D01*
X10408Y18765D01*
X10414Y18753D01*
X10418Y18742D01*
X10422Y18732D01*
X10423Y18727D01*
X10425Y18723D01*
X10426Y18720D01*
X10427Y18718D01*
X10427Y18716D01*
Y18716D01*
X10430Y18706D01*
X10433Y18698D01*
X10435Y18690D01*
X10438Y18683D01*
X10440Y18677D01*
X10442Y18672D01*
X10443Y18667D01*
X10445Y18663D01*
X10446Y18660D01*
X10447Y18657D01*
X10448Y18655D01*
X10449Y18653D01*
X10450Y18651D01*
X10450Y18650D01*
X10453Y18645D01*
X10455Y18641D01*
X10459Y18637D01*
X10461Y18634D01*
X10464Y18632D01*
X10466Y18631D01*
X10467Y18630D01*
X10468Y18629D01*
X10472Y18627D01*
X10476Y18626D01*
X10484Y18624D01*
X10488Y18623D01*
X10491Y18623D01*
X10493D01*
X10493D01*
X10503Y18624D01*
X10511Y18626D01*
X10518Y18628D01*
X10524Y18632D01*
X10529Y18636D01*
X10533Y18639D01*
X10535Y18641D01*
X10536Y18642D01*
X10542Y18650D01*
X10546Y18658D01*
X10549Y18667D01*
X10551Y18675D01*
X10552Y18683D01*
X10553Y18686D01*
Y18689D01*
X10553Y18691D01*
Y18694D01*
X10553Y18700D01*
X10552Y18706D01*
X10550Y18717D01*
X10545Y18727D01*
X10540Y18735D01*
X10534Y18743D01*
X10526Y18749D01*
X10519Y18754D01*
X10511Y18759D01*
X10503Y18763D01*
X10495Y18766D01*
X10488Y18769D01*
X10482Y18771D01*
X10476Y18772D01*
X10472Y18773D01*
X10469Y18774D01*
X10468D01*
X10477Y18845D01*
X10490Y18843D01*
D02*
G37*
G36*
X9622Y19116D02*
X9272D01*
X9622Y19044D01*
Y18973D01*
X9272Y18901D01*
X9622D01*
Y18832D01*
X9178D01*
Y18943D01*
X9482Y19008D01*
X9178Y19074D01*
Y19184D01*
X9622D01*
Y19116D01*
D02*
G37*
G36*
X9422Y18774D02*
X9442Y18772D01*
X9459Y18769D01*
X9476Y18766D01*
X9491Y18762D01*
X9505Y18758D01*
X9518Y18753D01*
X9530Y18748D01*
X9540Y18744D01*
X9549Y18739D01*
X9557Y18734D01*
X9563Y18730D01*
X9568Y18727D01*
X9572Y18724D01*
X9574Y18723D01*
X9574Y18722D01*
X9584Y18714D01*
X9593Y18704D01*
X9600Y18694D01*
X9606Y18684D01*
X9611Y18673D01*
X9616Y18663D01*
X9619Y18653D01*
X9622Y18643D01*
X9625Y18633D01*
X9626Y18625D01*
X9628Y18617D01*
X9628Y18611D01*
X9629Y18605D01*
X9629Y18601D01*
Y18597D01*
X9629Y18583D01*
X9627Y18569D01*
X9624Y18557D01*
X9620Y18545D01*
X9616Y18534D01*
X9612Y18524D01*
X9606Y18514D01*
X9602Y18506D01*
X9597Y18499D01*
X9591Y18492D01*
X9587Y18486D01*
X9582Y18482D01*
X9579Y18478D01*
X9576Y18475D01*
X9574Y18474D01*
X9574Y18473D01*
X9562Y18464D01*
X9548Y18456D01*
X9535Y18449D01*
X9520Y18443D01*
X9506Y18438D01*
X9491Y18434D01*
X9477Y18431D01*
X9463Y18428D01*
X9451Y18426D01*
X9438Y18424D01*
X9427Y18423D01*
X9418Y18422D01*
X9411Y18422D01*
X9407Y18421D01*
X9405D01*
X9403D01*
X9401D01*
X9400D01*
X9400D01*
X9380Y18422D01*
X9361Y18423D01*
X9343Y18426D01*
X9327Y18429D01*
X9312Y18433D01*
X9298Y18437D01*
X9285Y18441D01*
X9274Y18446D01*
X9264Y18450D01*
X9255Y18455D01*
X9248Y18459D01*
X9241Y18463D01*
X9237Y18466D01*
X9234Y18469D01*
X9231Y18470D01*
X9231Y18471D01*
X9220Y18480D01*
X9211Y18490D01*
X9203Y18501D01*
X9196Y18511D01*
X9190Y18522D01*
X9185Y18533D01*
X9181Y18543D01*
X9178Y18553D01*
X9175Y18562D01*
X9174Y18570D01*
X9173Y18578D01*
X9172Y18585D01*
X9171Y18591D01*
X9171Y18595D01*
Y18598D01*
X9171Y18608D01*
X9172Y18617D01*
X9173Y18626D01*
X9175Y18635D01*
X9176Y18643D01*
X9178Y18651D01*
X9181Y18657D01*
X9183Y18664D01*
X9186Y18670D01*
X9188Y18675D01*
X9190Y18679D01*
X9192Y18683D01*
X9194Y18686D01*
X9195Y18687D01*
X9196Y18689D01*
X9196Y18689D01*
X9201Y18696D01*
X9206Y18703D01*
X9219Y18715D01*
X9231Y18725D01*
X9244Y18734D01*
X9249Y18738D01*
X9255Y18742D01*
X9260Y18744D01*
X9264Y18747D01*
X9268Y18749D01*
X9270Y18750D01*
X9272Y18750D01*
X9272Y18751D01*
X9282Y18755D01*
X9293Y18758D01*
X9314Y18764D01*
X9336Y18768D01*
X9347Y18770D01*
X9357Y18771D01*
X9366Y18772D01*
X9375Y18773D01*
X9383Y18774D01*
X9390D01*
X9395Y18774D01*
X9399D01*
X9402D01*
X9403D01*
X9422Y18774D01*
D02*
G37*
G36*
X9490Y18380D02*
X9504Y18378D01*
X9515Y18375D01*
X9527Y18371D01*
X9538Y18367D01*
X9547Y18363D01*
X9556Y18358D01*
X9565Y18352D01*
X9573Y18347D01*
X9579Y18341D01*
X9586Y18335D01*
X9592Y18328D01*
X9597Y18322D01*
X9602Y18316D01*
X9606Y18309D01*
X9610Y18302D01*
X9616Y18289D01*
X9621Y18277D01*
X9625Y18265D01*
X9627Y18255D01*
X9628Y18250D01*
X9628Y18246D01*
X9629Y18242D01*
Y18239D01*
X9629Y18237D01*
Y18233D01*
X9629Y18220D01*
X9628Y18207D01*
X9626Y18195D01*
X9623Y18184D01*
X9620Y18174D01*
X9617Y18165D01*
X9613Y18157D01*
X9609Y18149D01*
X9606Y18143D01*
X9603Y18137D01*
X9599Y18133D01*
X9596Y18129D01*
X9594Y18126D01*
X9592Y18124D01*
X9591Y18123D01*
X9590Y18122D01*
X9583Y18116D01*
X9574Y18110D01*
X9567Y18105D01*
X9558Y18102D01*
X9550Y18098D01*
X9542Y18095D01*
X9534Y18093D01*
X9527Y18091D01*
X9520Y18089D01*
X9513Y18088D01*
X9508Y18087D01*
X9503Y18087D01*
X9498Y18086D01*
X9495D01*
X9493D01*
X9493D01*
X9479Y18087D01*
X9465Y18088D01*
X9454Y18091D01*
X9444Y18093D01*
X9440Y18094D01*
X9436Y18095D01*
X9433Y18097D01*
X9430Y18098D01*
X9428Y18098D01*
X9426Y18099D01*
X9425Y18100D01*
X9425D01*
X9415Y18105D01*
X9406Y18111D01*
X9398Y18117D01*
X9391Y18123D01*
X9386Y18129D01*
X9382Y18133D01*
X9380Y18136D01*
X9379Y18136D01*
Y18137D01*
X9376Y18142D01*
X9373Y18147D01*
X9366Y18160D01*
X9360Y18173D01*
X9356Y18186D01*
X9353Y18193D01*
X9351Y18198D01*
X9350Y18203D01*
X9348Y18208D01*
X9347Y18212D01*
X9346Y18215D01*
X9345Y18217D01*
Y18217D01*
X9342Y18226D01*
X9340Y18235D01*
X9337Y18243D01*
X9335Y18250D01*
X9332Y18256D01*
X9330Y18261D01*
X9328Y18266D01*
X9326Y18270D01*
X9325Y18274D01*
X9323Y18277D01*
X9322Y18279D01*
X9320Y18281D01*
X9319Y18283D01*
X9318Y18284D01*
X9313Y18289D01*
X9308Y18292D01*
X9303Y18295D01*
X9298Y18296D01*
X9294Y18297D01*
X9291Y18298D01*
X9289D01*
X9288D01*
X9281Y18298D01*
X9275Y18296D01*
X9270Y18293D01*
X9266Y18290D01*
X9262Y18288D01*
X9259Y18285D01*
X9258Y18283D01*
X9257Y18283D01*
X9253Y18276D01*
X9250Y18269D01*
X9248Y18261D01*
X9246Y18254D01*
X9245Y18247D01*
X9245Y18242D01*
Y18237D01*
X9245Y18226D01*
X9247Y18217D01*
X9249Y18209D01*
X9252Y18203D01*
X9255Y18198D01*
X9257Y18194D01*
X9259Y18192D01*
X9259Y18191D01*
X9262Y18188D01*
X9266Y18186D01*
X9273Y18181D01*
X9281Y18177D01*
X9289Y18174D01*
X9297Y18172D01*
X9300Y18171D01*
X9303Y18171D01*
X9305Y18170D01*
X9307Y18170D01*
X9308D01*
X9309D01*
X9305Y18096D01*
X9293Y18097D01*
X9282Y18099D01*
X9272Y18101D01*
X9262Y18103D01*
X9253Y18106D01*
X9245Y18109D01*
X9237Y18113D01*
X9231Y18116D01*
X9225Y18120D01*
X9220Y18123D01*
X9215Y18126D01*
X9212Y18129D01*
X9209Y18131D01*
X9207Y18133D01*
X9206Y18134D01*
X9205Y18134D01*
X9199Y18141D01*
X9194Y18149D01*
X9189Y18157D01*
X9185Y18165D01*
X9182Y18174D01*
X9179Y18182D01*
X9177Y18190D01*
X9175Y18198D01*
X9174Y18206D01*
X9173Y18213D01*
X9172Y18219D01*
X9171Y18224D01*
X9171Y18228D01*
Y18235D01*
X9171Y18250D01*
X9173Y18264D01*
X9175Y18276D01*
X9177Y18282D01*
X9178Y18287D01*
X9179Y18291D01*
X9181Y18295D01*
X9182Y18299D01*
X9183Y18301D01*
X9184Y18304D01*
X9185Y18305D01*
X9186Y18306D01*
Y18307D01*
X9192Y18317D01*
X9199Y18326D01*
X9206Y18334D01*
X9213Y18341D01*
X9220Y18346D01*
X9225Y18349D01*
X9227Y18350D01*
X9228Y18351D01*
X9229Y18352D01*
X9230D01*
X9241Y18358D01*
X9252Y18362D01*
X9263Y18365D01*
X9273Y18367D01*
X9282Y18368D01*
X9285Y18368D01*
X9289D01*
X9291Y18369D01*
X9293D01*
X9294D01*
X9295D01*
X9306Y18368D01*
X9317Y18367D01*
X9327Y18365D01*
X9335Y18362D01*
X9342Y18360D01*
X9345Y18359D01*
X9348Y18358D01*
X9350Y18357D01*
X9351Y18356D01*
X9352Y18356D01*
X9353D01*
X9362Y18350D01*
X9371Y18345D01*
X9378Y18339D01*
X9385Y18334D01*
X9390Y18329D01*
X9393Y18325D01*
X9395Y18322D01*
X9396Y18321D01*
X9399Y18317D01*
X9402Y18312D01*
X9408Y18302D01*
X9414Y18290D01*
X9418Y18279D01*
X9422Y18269D01*
X9423Y18264D01*
X9425Y18260D01*
X9426Y18257D01*
X9427Y18255D01*
X9427Y18253D01*
Y18253D01*
X9430Y18243D01*
X9433Y18235D01*
X9435Y18227D01*
X9438Y18220D01*
X9440Y18214D01*
X9442Y18209D01*
X9443Y18204D01*
X9445Y18200D01*
X9446Y18197D01*
X9447Y18194D01*
X9448Y18192D01*
X9449Y18190D01*
X9450Y18188D01*
X9450Y18187D01*
X9453Y18182D01*
X9455Y18178D01*
X9459Y18174D01*
X9461Y18171D01*
X9464Y18169D01*
X9466Y18168D01*
X9467Y18167D01*
X9468Y18166D01*
X9472Y18164D01*
X9476Y18163D01*
X9484Y18161D01*
X9488Y18160D01*
X9491Y18160D01*
X9493D01*
X9493D01*
X9503Y18161D01*
X9511Y18163D01*
X9518Y18165D01*
X9524Y18169D01*
X9529Y18173D01*
X9533Y18176D01*
X9535Y18178D01*
X9536Y18179D01*
X9542Y18187D01*
X9546Y18195D01*
X9549Y18204D01*
X9551Y18212D01*
X9552Y18220D01*
X9553Y18223D01*
Y18226D01*
X9553Y18228D01*
Y18231D01*
X9553Y18237D01*
X9552Y18243D01*
X9550Y18254D01*
X9545Y18264D01*
X9540Y18272D01*
X9534Y18280D01*
X9526Y18286D01*
X9519Y18291D01*
X9511Y18296D01*
X9503Y18300D01*
X9495Y18303D01*
X9488Y18306D01*
X9482Y18308D01*
X9476Y18309D01*
X9472Y18310D01*
X9469Y18311D01*
X9468D01*
X9477Y18382D01*
X9490Y18380D01*
D02*
G37*
G36*
X9622Y17953D02*
X9178D01*
Y18027D01*
X9622D01*
Y17953D01*
D02*
G37*
G36*
X8622Y19116D02*
X8272D01*
X8622Y19044D01*
Y18973D01*
X8272Y18901D01*
X8622D01*
Y18832D01*
X8178D01*
Y18943D01*
X8482Y19008D01*
X8178Y19074D01*
Y19184D01*
X8622D01*
Y19116D01*
D02*
G37*
G36*
Y18688D02*
X8178D01*
Y18761D01*
X8622D01*
Y18688D01*
D02*
G37*
G36*
X8490Y18634D02*
X8504Y18632D01*
X8515Y18629D01*
X8527Y18626D01*
X8538Y18622D01*
X8547Y18617D01*
X8556Y18612D01*
X8565Y18607D01*
X8573Y18601D01*
X8579Y18595D01*
X8586Y18589D01*
X8592Y18583D01*
X8597Y18576D01*
X8602Y18570D01*
X8606Y18563D01*
X8610Y18557D01*
X8616Y18543D01*
X8621Y18531D01*
X8625Y18519D01*
X8627Y18509D01*
X8628Y18504D01*
X8628Y18500D01*
X8629Y18497D01*
Y18494D01*
X8629Y18491D01*
Y18488D01*
X8629Y18474D01*
X8628Y18461D01*
X8626Y18449D01*
X8623Y18439D01*
X8620Y18428D01*
X8617Y18419D01*
X8613Y18411D01*
X8609Y18404D01*
X8606Y18397D01*
X8603Y18392D01*
X8599Y18387D01*
X8596Y18383D01*
X8594Y18380D01*
X8592Y18378D01*
X8591Y18377D01*
X8590Y18377D01*
X8583Y18370D01*
X8575Y18365D01*
X8567Y18360D01*
X8558Y18356D01*
X8550Y18352D01*
X8542Y18349D01*
X8534Y18347D01*
X8527Y18345D01*
X8520Y18344D01*
X8514Y18343D01*
X8508Y18342D01*
X8503Y18341D01*
X8498Y18341D01*
X8495D01*
X8493D01*
X8493D01*
X8479Y18341D01*
X8465Y18343D01*
X8454Y18345D01*
X8444Y18347D01*
X8440Y18349D01*
X8436Y18349D01*
X8433Y18351D01*
X8430Y18352D01*
X8428Y18352D01*
X8426Y18353D01*
X8425Y18354D01*
X8425D01*
X8415Y18359D01*
X8406Y18365D01*
X8398Y18371D01*
X8391Y18378D01*
X8386Y18383D01*
X8382Y18387D01*
X8380Y18390D01*
X8379Y18391D01*
Y18391D01*
X8376Y18396D01*
X8373Y18402D01*
X8366Y18414D01*
X8360Y18428D01*
X8356Y18441D01*
X8353Y18447D01*
X8351Y18453D01*
X8350Y18458D01*
X8348Y18463D01*
X8347Y18466D01*
X8346Y18469D01*
X8345Y18471D01*
Y18472D01*
X8342Y18481D01*
X8340Y18489D01*
X8337Y18497D01*
X8335Y18504D01*
X8332Y18510D01*
X8330Y18516D01*
X8328Y18520D01*
X8326Y18525D01*
X8325Y18528D01*
X8323Y18531D01*
X8322Y18534D01*
X8320Y18535D01*
X8319Y18537D01*
X8318Y18538D01*
X8313Y18543D01*
X8308Y18547D01*
X8303Y18549D01*
X8298Y18551D01*
X8294Y18552D01*
X8291Y18553D01*
X8289D01*
X8288D01*
X8281Y18552D01*
X8275Y18550D01*
X8270Y18548D01*
X8266Y18545D01*
X8262Y18542D01*
X8259Y18539D01*
X8258Y18537D01*
X8257Y18537D01*
X8253Y18530D01*
X8250Y18523D01*
X8248Y18515D01*
X8246Y18508D01*
X8245Y18502D01*
X8245Y18496D01*
Y18491D01*
X8245Y18481D01*
X8247Y18472D01*
X8249Y18464D01*
X8252Y18457D01*
X8255Y18452D01*
X8257Y18448D01*
X8259Y18446D01*
X8259Y18445D01*
X8262Y18442D01*
X8266Y18440D01*
X8273Y18435D01*
X8281Y18432D01*
X8289Y18429D01*
X8297Y18427D01*
X8300Y18426D01*
X8303Y18425D01*
X8305Y18425D01*
X8307Y18424D01*
X8308D01*
X8309D01*
X8305Y18350D01*
X8293Y18351D01*
X8282Y18353D01*
X8272Y18355D01*
X8262Y18357D01*
X8253Y18360D01*
X8245Y18364D01*
X8237Y18367D01*
X8231Y18371D01*
X8225Y18374D01*
X8220Y18378D01*
X8215Y18380D01*
X8212Y18383D01*
X8209Y18385D01*
X8207Y18387D01*
X8206Y18388D01*
X8206Y18389D01*
X8199Y18396D01*
X8194Y18404D01*
X8189Y18411D01*
X8185Y18420D01*
X8182Y18428D01*
X8179Y18437D01*
X8177Y18444D01*
X8175Y18452D01*
X8174Y18460D01*
X8173Y18467D01*
X8172Y18473D01*
X8171Y18478D01*
X8171Y18483D01*
Y18489D01*
X8171Y18504D01*
X8173Y18518D01*
X8175Y18531D01*
X8177Y18536D01*
X8178Y18541D01*
X8179Y18546D01*
X8181Y18550D01*
X8182Y18553D01*
X8183Y18556D01*
X8184Y18558D01*
X8185Y18560D01*
X8186Y18561D01*
Y18561D01*
X8192Y18571D01*
X8199Y18580D01*
X8206Y18588D01*
X8213Y18595D01*
X8220Y18600D01*
X8225Y18604D01*
X8227Y18605D01*
X8228Y18606D01*
X8229Y18607D01*
X8230D01*
X8241Y18612D01*
X8252Y18616D01*
X8263Y18619D01*
X8273Y18621D01*
X8282Y18622D01*
X8285Y18623D01*
X8289D01*
X8291Y18623D01*
X8293D01*
X8294D01*
X8295D01*
X8306Y18623D01*
X8317Y18621D01*
X8327Y18619D01*
X8335Y18617D01*
X8342Y18614D01*
X8345Y18613D01*
X8348Y18612D01*
X8350Y18611D01*
X8351Y18611D01*
X8352Y18610D01*
X8353D01*
X8362Y18605D01*
X8371Y18599D01*
X8378Y18594D01*
X8385Y18588D01*
X8390Y18583D01*
X8393Y18579D01*
X8395Y18577D01*
X8396Y18576D01*
X8399Y18571D01*
X8402Y18566D01*
X8408Y18556D01*
X8414Y18544D01*
X8418Y18533D01*
X8422Y18523D01*
X8423Y18519D01*
X8425Y18515D01*
X8426Y18511D01*
X8427Y18509D01*
X8427Y18507D01*
Y18507D01*
X8430Y18498D01*
X8433Y18489D01*
X8435Y18481D01*
X8438Y18474D01*
X8440Y18469D01*
X8442Y18463D01*
X8443Y18459D01*
X8445Y18455D01*
X8446Y18451D01*
X8447Y18448D01*
X8448Y18446D01*
X8449Y18444D01*
X8450Y18442D01*
X8450Y18441D01*
X8453Y18437D01*
X8455Y18433D01*
X8459Y18429D01*
X8461Y18426D01*
X8464Y18424D01*
X8466Y18422D01*
X8467Y18421D01*
X8468Y18421D01*
X8472Y18418D01*
X8476Y18417D01*
X8484Y18415D01*
X8488Y18414D01*
X8491Y18414D01*
X8493D01*
X8493D01*
X8503Y18415D01*
X8511Y18417D01*
X8518Y18420D01*
X8524Y18423D01*
X8529Y18427D01*
X8533Y18430D01*
X8535Y18432D01*
X8536Y18433D01*
X8542Y18441D01*
X8546Y18449D01*
X8549Y18458D01*
X8551Y18467D01*
X8552Y18474D01*
X8553Y18477D01*
Y18480D01*
X8553Y18482D01*
Y18486D01*
X8553Y18492D01*
X8552Y18498D01*
X8550Y18508D01*
X8545Y18518D01*
X8540Y18527D01*
X8534Y18534D01*
X8526Y18540D01*
X8519Y18546D01*
X8511Y18551D01*
X8503Y18555D01*
X8495Y18558D01*
X8488Y18560D01*
X8482Y18562D01*
X8476Y18564D01*
X8472Y18564D01*
X8469Y18565D01*
X8468D01*
X8477Y18636D01*
X8490Y18634D01*
D02*
G37*
G36*
X8422Y18293D02*
X8442Y18291D01*
X8459Y18289D01*
X8476Y18286D01*
X8491Y18282D01*
X8505Y18278D01*
X8518Y18273D01*
X8530Y18268D01*
X8540Y18263D01*
X8549Y18258D01*
X8557Y18254D01*
X8563Y18250D01*
X8568Y18247D01*
X8572Y18244D01*
X8574Y18243D01*
X8575Y18242D01*
X8584Y18233D01*
X8593Y18224D01*
X8600Y18214D01*
X8606Y18203D01*
X8611Y18193D01*
X8616Y18183D01*
X8619Y18172D01*
X8622Y18163D01*
X8625Y18153D01*
X8626Y18145D01*
X8628Y18137D01*
X8628Y18131D01*
X8629Y18125D01*
X8629Y18121D01*
Y18117D01*
X8629Y18103D01*
X8627Y18089D01*
X8624Y18077D01*
X8620Y18065D01*
X8616Y18054D01*
X8612Y18043D01*
X8606Y18034D01*
X8602Y18026D01*
X8597Y18018D01*
X8591Y18012D01*
X8587Y18006D01*
X8582Y18002D01*
X8579Y17998D01*
X8576Y17995D01*
X8575Y17994D01*
X8574Y17993D01*
X8562Y17984D01*
X8548Y17976D01*
X8535Y17969D01*
X8520Y17963D01*
X8506Y17958D01*
X8491Y17954D01*
X8477Y17950D01*
X8463Y17948D01*
X8451Y17946D01*
X8438Y17944D01*
X8427Y17943D01*
X8418Y17942D01*
X8411Y17942D01*
X8407Y17941D01*
X8405D01*
X8403D01*
X8401D01*
X8400D01*
X8400D01*
X8380Y17942D01*
X8361Y17943D01*
X8343Y17946D01*
X8327Y17949D01*
X8312Y17952D01*
X8298Y17957D01*
X8285Y17961D01*
X8274Y17966D01*
X8264Y17970D01*
X8255Y17975D01*
X8248Y17979D01*
X8241Y17982D01*
X8237Y17986D01*
X8234Y17988D01*
X8231Y17990D01*
X8231Y17990D01*
X8220Y18000D01*
X8211Y18010D01*
X8203Y18020D01*
X8196Y18031D01*
X8190Y18041D01*
X8185Y18052D01*
X8181Y18063D01*
X8178Y18073D01*
X8175Y18082D01*
X8174Y18090D01*
X8173Y18098D01*
X8172Y18105D01*
X8171Y18110D01*
X8171Y18114D01*
Y18118D01*
X8171Y18128D01*
X8172Y18137D01*
X8173Y18146D01*
X8175Y18155D01*
X8176Y18163D01*
X8178Y18170D01*
X8181Y18177D01*
X8183Y18184D01*
X8186Y18190D01*
X8188Y18195D01*
X8190Y18199D01*
X8192Y18202D01*
X8194Y18205D01*
X8195Y18207D01*
X8196Y18209D01*
X8196Y18209D01*
X8201Y18216D01*
X8206Y18223D01*
X8219Y18235D01*
X8231Y18245D01*
X8244Y18254D01*
X8249Y18258D01*
X8255Y18261D01*
X8260Y18264D01*
X8264Y18266D01*
X8267Y18268D01*
X8270Y18270D01*
X8272Y18270D01*
X8272Y18271D01*
X8282Y18275D01*
X8293Y18278D01*
X8314Y18284D01*
X8336Y18288D01*
X8347Y18290D01*
X8357Y18291D01*
X8366Y18292D01*
X8375Y18292D01*
X8383Y18293D01*
X8390D01*
X8395Y18294D01*
X8399D01*
X8402D01*
X8403D01*
X8422Y18293D01*
D02*
G37*
G36*
X7490Y19182D02*
X7503Y19180D01*
X7515Y19177D01*
X7526Y19173D01*
X7537Y19169D01*
X7547Y19165D01*
X7556Y19160D01*
X7564Y19154D01*
X7572Y19149D01*
X7579Y19143D01*
X7585Y19137D01*
X7591Y19130D01*
X7596Y19124D01*
X7601Y19118D01*
X7605Y19111D01*
X7609Y19104D01*
X7616Y19091D01*
X7621Y19079D01*
X7624Y19067D01*
X7626Y19057D01*
X7627Y19052D01*
X7627Y19048D01*
X7628Y19044D01*
Y19041D01*
X7628Y19039D01*
Y19035D01*
X7628Y19022D01*
X7627Y19009D01*
X7625Y18997D01*
X7623Y18986D01*
X7620Y18976D01*
X7616Y18967D01*
X7613Y18959D01*
X7609Y18951D01*
X7605Y18945D01*
X7602Y18939D01*
X7598Y18934D01*
X7595Y18931D01*
X7593Y18928D01*
X7591Y18926D01*
X7590Y18925D01*
X7590Y18924D01*
X7582Y18918D01*
X7574Y18912D01*
X7566Y18907D01*
X7558Y18903D01*
X7550Y18900D01*
X7541Y18897D01*
X7533Y18895D01*
X7526Y18893D01*
X7519Y18891D01*
X7513Y18890D01*
X7507Y18889D01*
X7502Y18889D01*
X7498Y18888D01*
X7495D01*
X7493D01*
X7492D01*
X7478Y18889D01*
X7465Y18890D01*
X7453Y18893D01*
X7443Y18895D01*
X7439Y18896D01*
X7435Y18897D01*
X7432Y18899D01*
X7429Y18900D01*
X7427Y18900D01*
X7426Y18901D01*
X7425Y18902D01*
X7424D01*
X7414Y18907D01*
X7405Y18913D01*
X7397Y18919D01*
X7391Y18925D01*
X7385Y18931D01*
X7381Y18935D01*
X7379Y18938D01*
X7379Y18938D01*
Y18939D01*
X7375Y18944D01*
X7372Y18949D01*
X7366Y18962D01*
X7360Y18975D01*
X7355Y18988D01*
X7352Y18995D01*
X7350Y19000D01*
X7349Y19005D01*
X7348Y19010D01*
X7346Y19014D01*
X7345Y19017D01*
X7345Y19019D01*
Y19019D01*
X7342Y19028D01*
X7339Y19037D01*
X7337Y19045D01*
X7334Y19052D01*
X7332Y19057D01*
X7329Y19063D01*
X7327Y19068D01*
X7325Y19072D01*
X7324Y19076D01*
X7322Y19079D01*
X7321Y19081D01*
X7319Y19083D01*
X7318Y19085D01*
X7318Y19086D01*
X7313Y19091D01*
X7308Y19094D01*
X7302Y19097D01*
X7298Y19098D01*
X7293Y19099D01*
X7290Y19100D01*
X7288D01*
X7287D01*
X7281Y19100D01*
X7275Y19098D01*
X7269Y19095D01*
X7265Y19092D01*
X7261Y19089D01*
X7258Y19087D01*
X7257Y19085D01*
X7256Y19085D01*
X7253Y19078D01*
X7250Y19071D01*
X7247Y19063D01*
X7246Y19056D01*
X7245Y19049D01*
X7244Y19044D01*
Y19039D01*
X7245Y19028D01*
X7246Y19019D01*
X7249Y19011D01*
X7251Y19005D01*
X7254Y19000D01*
X7256Y18996D01*
X7258Y18994D01*
X7258Y18993D01*
X7261Y18990D01*
X7265Y18988D01*
X7272Y18983D01*
X7281Y18979D01*
X7288Y18976D01*
X7296Y18974D01*
X7299Y18973D01*
X7302Y18973D01*
X7305Y18972D01*
X7307Y18972D01*
X7308D01*
X7308D01*
X7304Y18898D01*
X7292Y18899D01*
X7282Y18901D01*
X7271Y18903D01*
X7261Y18905D01*
X7253Y18908D01*
X7244Y18911D01*
X7237Y18915D01*
X7230Y18918D01*
X7225Y18922D01*
X7219Y18925D01*
X7215Y18928D01*
X7211Y18931D01*
X7208Y18933D01*
X7206Y18935D01*
X7205Y18936D01*
X7205Y18936D01*
X7198Y18943D01*
X7194Y18951D01*
X7189Y18959D01*
X7185Y18967D01*
X7181Y18976D01*
X7178Y18984D01*
X7176Y18992D01*
X7174Y19000D01*
X7173Y19008D01*
X7172Y19015D01*
X7171Y19021D01*
X7170Y19026D01*
X7170Y19030D01*
Y19037D01*
X7170Y19052D01*
X7172Y19066D01*
X7175Y19078D01*
X7176Y19084D01*
X7177Y19089D01*
X7179Y19093D01*
X7180Y19097D01*
X7182Y19101D01*
X7183Y19103D01*
X7184Y19106D01*
X7185Y19107D01*
X7185Y19108D01*
Y19109D01*
X7191Y19119D01*
X7198Y19128D01*
X7205Y19136D01*
X7213Y19143D01*
X7219Y19148D01*
X7224Y19151D01*
X7226Y19152D01*
X7227Y19153D01*
X7228Y19154D01*
X7229D01*
X7240Y19160D01*
X7251Y19164D01*
X7262Y19167D01*
X7272Y19169D01*
X7281Y19170D01*
X7285Y19170D01*
X7288D01*
X7290Y19171D01*
X7292D01*
X7293D01*
X7294D01*
X7305Y19170D01*
X7316Y19169D01*
X7326Y19167D01*
X7335Y19164D01*
X7342Y19162D01*
X7345Y19161D01*
X7347Y19160D01*
X7349Y19159D01*
X7350Y19158D01*
X7351Y19158D01*
X7352D01*
X7362Y19152D01*
X7370Y19147D01*
X7378Y19141D01*
X7384Y19136D01*
X7389Y19131D01*
X7393Y19127D01*
X7395Y19124D01*
X7396Y19123D01*
X7399Y19119D01*
X7402Y19114D01*
X7408Y19104D01*
X7413Y19092D01*
X7417Y19081D01*
X7421Y19071D01*
X7423Y19066D01*
X7424Y19062D01*
X7425Y19059D01*
X7426Y19057D01*
X7427Y19055D01*
Y19055D01*
X7430Y19045D01*
X7432Y19037D01*
X7435Y19029D01*
X7437Y19022D01*
X7439Y19016D01*
X7441Y19011D01*
X7442Y19006D01*
X7444Y19002D01*
X7445Y18999D01*
X7446Y18996D01*
X7447Y18994D01*
X7448Y18992D01*
X7449Y18990D01*
X7449Y18989D01*
X7452Y18984D01*
X7455Y18980D01*
X7458Y18976D01*
X7461Y18973D01*
X7463Y18971D01*
X7465Y18970D01*
X7467Y18969D01*
X7467Y18968D01*
X7471Y18966D01*
X7475Y18965D01*
X7484Y18963D01*
X7487Y18962D01*
X7490Y18962D01*
X7492D01*
X7493D01*
X7502Y18963D01*
X7510Y18965D01*
X7517Y18967D01*
X7524Y18971D01*
X7529Y18975D01*
X7533Y18978D01*
X7534Y18980D01*
X7535Y18981D01*
X7541Y18989D01*
X7545Y18997D01*
X7548Y19006D01*
X7551Y19014D01*
X7552Y19022D01*
X7552Y19025D01*
Y19028D01*
X7553Y19030D01*
Y19033D01*
X7552Y19039D01*
X7552Y19045D01*
X7549Y19056D01*
X7545Y19066D01*
X7539Y19074D01*
X7533Y19082D01*
X7526Y19088D01*
X7518Y19093D01*
X7510Y19098D01*
X7502Y19102D01*
X7495Y19105D01*
X7487Y19108D01*
X7481Y19110D01*
X7475Y19111D01*
X7471Y19112D01*
X7469Y19113D01*
X7468D01*
X7476Y19184D01*
X7490Y19182D01*
D02*
G37*
G36*
X7423Y18839D02*
X7441Y18838D01*
X7459Y18835D01*
X7475Y18832D01*
X7490Y18828D01*
X7504Y18823D01*
X7517Y18819D01*
X7529Y18814D01*
X7539Y18810D01*
X7548Y18805D01*
X7556Y18801D01*
X7563Y18797D01*
X7567Y18793D01*
X7571Y18791D01*
X7573Y18789D01*
X7574Y18789D01*
X7584Y18780D01*
X7592Y18771D01*
X7599Y18762D01*
X7605Y18752D01*
X7611Y18743D01*
X7615Y18733D01*
X7619Y18723D01*
X7622Y18715D01*
X7624Y18706D01*
X7625Y18698D01*
X7627Y18691D01*
X7627Y18686D01*
X7628Y18681D01*
X7628Y18677D01*
Y18674D01*
X7628Y18663D01*
X7627Y18654D01*
X7625Y18644D01*
X7623Y18635D01*
X7621Y18626D01*
X7618Y18619D01*
X7615Y18611D01*
X7611Y18605D01*
X7608Y18599D01*
X7605Y18594D01*
X7602Y18589D01*
X7600Y18585D01*
X7597Y18582D01*
X7596Y18580D01*
X7595Y18579D01*
X7595Y18578D01*
X7588Y18571D01*
X7580Y18564D01*
X7571Y18559D01*
X7563Y18553D01*
X7545Y18543D01*
X7527Y18536D01*
X7519Y18533D01*
X7511Y18530D01*
X7503Y18528D01*
X7498Y18526D01*
X7492Y18525D01*
X7489Y18524D01*
X7486Y18523D01*
X7485D01*
X7458Y18594D01*
X7467Y18596D01*
X7475Y18598D01*
X7483Y18600D01*
X7490Y18603D01*
X7496Y18605D01*
X7502Y18608D01*
X7507Y18611D01*
X7512Y18613D01*
X7516Y18616D01*
X7520Y18618D01*
X7523Y18620D01*
X7525Y18622D01*
X7527Y18623D01*
X7529Y18624D01*
X7529Y18625D01*
X7530Y18625D01*
X7533Y18629D01*
X7537Y18633D01*
X7542Y18641D01*
X7546Y18650D01*
X7549Y18657D01*
X7551Y18664D01*
X7551Y18670D01*
X7552Y18672D01*
Y18675D01*
X7551Y18682D01*
X7550Y18689D01*
X7548Y18695D01*
X7546Y18702D01*
X7541Y18713D01*
X7534Y18722D01*
X7531Y18726D01*
X7528Y18729D01*
X7525Y18732D01*
X7522Y18735D01*
X7520Y18737D01*
X7518Y18738D01*
X7517Y18739D01*
X7517Y18739D01*
X7509Y18744D01*
X7502Y18747D01*
X7493Y18750D01*
X7483Y18753D01*
X7464Y18758D01*
X7444Y18761D01*
X7435Y18762D01*
X7426Y18762D01*
X7418Y18763D01*
X7411Y18763D01*
X7406Y18764D01*
X7401D01*
X7399D01*
X7398D01*
X7383Y18763D01*
X7370Y18763D01*
X7357Y18761D01*
X7346Y18760D01*
X7335Y18758D01*
X7326Y18756D01*
X7317Y18753D01*
X7310Y18751D01*
X7303Y18749D01*
X7297Y18747D01*
X7292Y18745D01*
X7289Y18743D01*
X7286Y18741D01*
X7284Y18740D01*
X7283Y18739D01*
X7282Y18739D01*
X7276Y18734D01*
X7270Y18728D01*
X7266Y18723D01*
X7261Y18718D01*
X7258Y18712D01*
X7256Y18707D01*
X7253Y18701D01*
X7251Y18696D01*
X7249Y18687D01*
X7248Y18683D01*
X7247Y18680D01*
X7247Y18677D01*
Y18673D01*
X7248Y18662D01*
X7250Y18653D01*
X7253Y18645D01*
X7256Y18638D01*
X7260Y18632D01*
X7263Y18627D01*
X7265Y18625D01*
X7266Y18624D01*
X7274Y18617D01*
X7283Y18611D01*
X7292Y18606D01*
X7301Y18602D01*
X7309Y18599D01*
X7312Y18598D01*
X7315Y18597D01*
X7318Y18597D01*
X7319Y18596D01*
X7320Y18596D01*
X7321D01*
X7300Y18523D01*
X7289Y18526D01*
X7279Y18529D01*
X7270Y18532D01*
X7261Y18536D01*
X7254Y18539D01*
X7246Y18543D01*
X7240Y18546D01*
X7234Y18550D01*
X7229Y18553D01*
X7224Y18557D01*
X7221Y18559D01*
X7217Y18562D01*
X7215Y18564D01*
X7213Y18565D01*
X7212Y18566D01*
X7212Y18566D01*
X7204Y18574D01*
X7198Y18583D01*
X7193Y18591D01*
X7188Y18600D01*
X7184Y18608D01*
X7180Y18617D01*
X7177Y18625D01*
X7175Y18633D01*
X7173Y18640D01*
X7172Y18647D01*
X7171Y18654D01*
X7170Y18658D01*
Y18663D01*
X7170Y18666D01*
Y18669D01*
X7170Y18683D01*
X7172Y18695D01*
X7175Y18708D01*
X7179Y18719D01*
X7183Y18730D01*
X7188Y18740D01*
X7193Y18749D01*
X7198Y18757D01*
X7203Y18764D01*
X7208Y18770D01*
X7213Y18776D01*
X7217Y18780D01*
X7221Y18784D01*
X7224Y18786D01*
X7225Y18788D01*
X7226Y18788D01*
X7238Y18797D01*
X7252Y18805D01*
X7266Y18812D01*
X7281Y18818D01*
X7295Y18823D01*
X7310Y18827D01*
X7324Y18830D01*
X7339Y18833D01*
X7352Y18835D01*
X7364Y18837D01*
X7375Y18838D01*
X7384Y18839D01*
X7392Y18839D01*
X7395Y18840D01*
X7398D01*
X7400D01*
X7402D01*
X7403D01*
X7403D01*
X7423Y18839D01*
D02*
G37*
G36*
X7621Y18385D02*
X7487D01*
X7412Y18326D01*
X7621Y18226D01*
Y18131D01*
X7349Y18274D01*
X7177Y18137D01*
Y18236D01*
X7374Y18385D01*
X7177D01*
Y18458D01*
X7621D01*
Y18385D01*
D02*
G37*
%LPC*%
G36*
X6546Y18339D02*
X6253D01*
Y18291D01*
X6254Y18284D01*
Y18278D01*
X6254Y18273D01*
Y18268D01*
X6255Y18264D01*
X6255Y18260D01*
X6256Y18257D01*
Y18254D01*
X6257Y18250D01*
X6257Y18247D01*
Y18247D01*
X6260Y18239D01*
X6263Y18233D01*
X6267Y18227D01*
X6270Y18222D01*
X6273Y18217D01*
X6276Y18214D01*
X6278Y18212D01*
X6279Y18212D01*
X6285Y18206D01*
X6293Y18202D01*
X6300Y18199D01*
X6307Y18196D01*
X6314Y18193D01*
X6319Y18192D01*
X6321Y18191D01*
X6322D01*
X6323Y18190D01*
X6324D01*
X6335Y18188D01*
X6348Y18186D01*
X6360Y18185D01*
X6373Y18184D01*
X6379Y18184D01*
X6384D01*
X6389Y18183D01*
X6393D01*
X6396D01*
X6399D01*
X6401D01*
X6401D01*
X6418Y18184D01*
X6433Y18184D01*
X6440Y18185D01*
X6446Y18185D01*
X6452Y18186D01*
X6457Y18187D01*
X6462Y18187D01*
X6466Y18188D01*
X6469Y18189D01*
X6472Y18189D01*
X6475Y18190D01*
X6476D01*
X6477Y18190D01*
X6478D01*
X6488Y18193D01*
X6496Y18196D01*
X6504Y18199D01*
X6510Y18202D01*
X6514Y18204D01*
X6517Y18205D01*
X6519Y18207D01*
X6520Y18207D01*
X6524Y18211D01*
X6529Y18216D01*
X6532Y18220D01*
X6535Y18224D01*
X6537Y18228D01*
X6539Y18231D01*
X6540Y18233D01*
X6540Y18233D01*
X6542Y18240D01*
X6543Y18248D01*
X6545Y18256D01*
X6545Y18264D01*
X6546Y18272D01*
X6546Y18275D01*
Y18339D01*
D02*
G37*
G36*
X13146Y2649D02*
X12853D01*
Y2601D01*
X12854Y2594D01*
Y2588D01*
X12854Y2583D01*
Y2578D01*
X12855Y2573D01*
X12855Y2570D01*
X12856Y2566D01*
Y2564D01*
X12857Y2560D01*
X12857Y2557D01*
Y2557D01*
X12860Y2549D01*
X12863Y2542D01*
X12867Y2536D01*
X12870Y2532D01*
X12873Y2527D01*
X12876Y2524D01*
X12878Y2522D01*
X12879Y2522D01*
X12885Y2516D01*
X12893Y2512D01*
X12900Y2508D01*
X12907Y2505D01*
X12914Y2503D01*
X12919Y2502D01*
X12921Y2501D01*
X12922D01*
X12923Y2500D01*
X12924D01*
X12935Y2498D01*
X12948Y2496D01*
X12960Y2495D01*
X12973Y2494D01*
X12979Y2494D01*
X12984D01*
X12989Y2493D01*
X12993D01*
X12996D01*
X12999D01*
X13001D01*
X13001D01*
X13018Y2494D01*
X13033Y2494D01*
X13040Y2495D01*
X13046Y2495D01*
X13052Y2496D01*
X13057Y2497D01*
X13062Y2497D01*
X13066Y2498D01*
X13069Y2499D01*
X13072Y2499D01*
X13075Y2500D01*
X13076D01*
X13077Y2500D01*
X13078D01*
X13088Y2503D01*
X13096Y2505D01*
X13104Y2508D01*
X13110Y2511D01*
X13114Y2514D01*
X13117Y2515D01*
X13119Y2517D01*
X13120Y2517D01*
X13124Y2521D01*
X13129Y2526D01*
X13132Y2530D01*
X13135Y2534D01*
X13137Y2537D01*
X13139Y2540D01*
X13140Y2542D01*
X13140Y2543D01*
X13142Y2550D01*
X13144Y2558D01*
X13145Y2566D01*
X13145Y2574D01*
X13146Y2582D01*
X13146Y2585D01*
Y2649D01*
D02*
G37*
G36*
X12146D02*
X11853D01*
Y2601D01*
X11854Y2594D01*
Y2588D01*
X11854Y2583D01*
Y2578D01*
X11855Y2573D01*
X11855Y2570D01*
X11856Y2566D01*
Y2564D01*
X11857Y2560D01*
X11857Y2557D01*
Y2557D01*
X11860Y2549D01*
X11863Y2542D01*
X11867Y2536D01*
X11870Y2532D01*
X11873Y2527D01*
X11876Y2524D01*
X11878Y2522D01*
X11879Y2522D01*
X11885Y2516D01*
X11893Y2512D01*
X11900Y2508D01*
X11907Y2505D01*
X11914Y2503D01*
X11919Y2502D01*
X11921Y2501D01*
X11922D01*
X11923Y2500D01*
X11924D01*
X11935Y2498D01*
X11948Y2496D01*
X11960Y2495D01*
X11973Y2494D01*
X11979Y2494D01*
X11984D01*
X11989Y2493D01*
X11993D01*
X11996D01*
X11999D01*
X12001D01*
X12001D01*
X12018Y2494D01*
X12033Y2494D01*
X12040Y2495D01*
X12046Y2495D01*
X12052Y2496D01*
X12057Y2497D01*
X12062Y2497D01*
X12066Y2498D01*
X12069Y2499D01*
X12072Y2499D01*
X12075Y2500D01*
X12076D01*
X12077Y2500D01*
X12078D01*
X12088Y2503D01*
X12096Y2505D01*
X12104Y2508D01*
X12110Y2511D01*
X12114Y2514D01*
X12117Y2515D01*
X12119Y2517D01*
X12120Y2517D01*
X12124Y2521D01*
X12129Y2526D01*
X12132Y2530D01*
X12135Y2534D01*
X12137Y2537D01*
X12139Y2540D01*
X12140Y2542D01*
X12140Y2543D01*
X12142Y2550D01*
X12144Y2558D01*
X12145Y2566D01*
X12145Y2574D01*
X12146Y2582D01*
X12146Y2585D01*
Y2649D01*
D02*
G37*
G36*
X10146Y3016D02*
X9853D01*
Y2968D01*
X9854Y2961D01*
Y2955D01*
X9854Y2950D01*
Y2945D01*
X9855Y2941D01*
X9855Y2937D01*
X9856Y2934D01*
Y2931D01*
X9857Y2927D01*
X9857Y2924D01*
Y2924D01*
X9860Y2916D01*
X9863Y2910D01*
X9867Y2904D01*
X9870Y2899D01*
X9873Y2894D01*
X9876Y2891D01*
X9878Y2889D01*
X9879Y2889D01*
X9885Y2883D01*
X9893Y2879D01*
X9900Y2876D01*
X9907Y2873D01*
X9914Y2870D01*
X9919Y2869D01*
X9921Y2868D01*
X9922D01*
X9923Y2867D01*
X9924D01*
X9935Y2865D01*
X9948Y2863D01*
X9960Y2862D01*
X9973Y2861D01*
X9979Y2861D01*
X9984D01*
X9989Y2860D01*
X9993D01*
X9996D01*
X9999D01*
X10001D01*
X10001D01*
X10018Y2861D01*
X10033Y2861D01*
X10040Y2862D01*
X10046Y2862D01*
X10052Y2863D01*
X10057Y2864D01*
X10062Y2864D01*
X10066Y2865D01*
X10069Y2866D01*
X10072Y2866D01*
X10075Y2867D01*
X10076D01*
X10077Y2867D01*
X10078D01*
X10088Y2870D01*
X10096Y2873D01*
X10104Y2876D01*
X10110Y2879D01*
X10114Y2881D01*
X10117Y2882D01*
X10119Y2884D01*
X10120Y2884D01*
X10124Y2888D01*
X10129Y2893D01*
X10132Y2897D01*
X10135Y2901D01*
X10137Y2905D01*
X10139Y2908D01*
X10140Y2910D01*
X10140Y2910D01*
X10142Y2917D01*
X10144Y2925D01*
X10145Y2933D01*
X10145Y2941D01*
X10146Y2949D01*
X10146Y2952D01*
Y3016D01*
D02*
G37*
G36*
Y2649D02*
X9853D01*
Y2601D01*
X9854Y2594D01*
Y2588D01*
X9854Y2583D01*
Y2578D01*
X9855Y2573D01*
X9855Y2570D01*
X9856Y2567D01*
Y2564D01*
X9857Y2560D01*
X9857Y2557D01*
Y2557D01*
X9860Y2549D01*
X9863Y2542D01*
X9867Y2537D01*
X9870Y2532D01*
X9873Y2527D01*
X9876Y2524D01*
X9878Y2522D01*
X9879Y2522D01*
X9885Y2516D01*
X9893Y2512D01*
X9900Y2509D01*
X9907Y2506D01*
X9914Y2503D01*
X9919Y2502D01*
X9921Y2501D01*
X9922D01*
X9923Y2500D01*
X9924D01*
X9935Y2498D01*
X9948Y2496D01*
X9960Y2495D01*
X9973Y2494D01*
X9979Y2494D01*
X9984D01*
X9989Y2493D01*
X9993D01*
X9996D01*
X9999D01*
X10001D01*
X10001D01*
X10018Y2494D01*
X10033Y2494D01*
X10040Y2495D01*
X10046Y2495D01*
X10052Y2496D01*
X10057Y2497D01*
X10062Y2497D01*
X10066Y2498D01*
X10069Y2499D01*
X10072Y2499D01*
X10075Y2500D01*
X10076D01*
X10077Y2500D01*
X10078D01*
X10088Y2503D01*
X10096Y2506D01*
X10104Y2509D01*
X10110Y2511D01*
X10114Y2514D01*
X10117Y2515D01*
X10119Y2517D01*
X10120Y2517D01*
X10124Y2521D01*
X10129Y2526D01*
X10132Y2530D01*
X10135Y2534D01*
X10137Y2538D01*
X10139Y2541D01*
X10140Y2542D01*
X10140Y2543D01*
X10142Y2550D01*
X10144Y2558D01*
X10145Y2566D01*
X10145Y2574D01*
X10146Y2582D01*
X10146Y2585D01*
Y2649D01*
D02*
G37*
G36*
X8146Y3016D02*
X7853D01*
Y2968D01*
X7854Y2961D01*
Y2955D01*
X7854Y2950D01*
Y2945D01*
X7855Y2941D01*
X7855Y2937D01*
X7856Y2934D01*
Y2931D01*
X7857Y2927D01*
X7857Y2924D01*
Y2924D01*
X7860Y2916D01*
X7863Y2910D01*
X7867Y2904D01*
X7870Y2899D01*
X7873Y2894D01*
X7876Y2891D01*
X7878Y2889D01*
X7879Y2889D01*
X7885Y2883D01*
X7893Y2879D01*
X7900Y2876D01*
X7907Y2873D01*
X7914Y2870D01*
X7919Y2869D01*
X7921Y2868D01*
X7922D01*
X7923Y2867D01*
X7924D01*
X7935Y2865D01*
X7948Y2863D01*
X7960Y2862D01*
X7973Y2861D01*
X7979Y2861D01*
X7984D01*
X7989Y2860D01*
X7993D01*
X7996D01*
X7999D01*
X8001D01*
X8001D01*
X8018Y2861D01*
X8033Y2861D01*
X8040Y2862D01*
X8046Y2862D01*
X8052Y2863D01*
X8057Y2864D01*
X8062Y2864D01*
X8066Y2865D01*
X8069Y2866D01*
X8072Y2866D01*
X8075Y2867D01*
X8076D01*
X8077Y2867D01*
X8078D01*
X8088Y2870D01*
X8096Y2873D01*
X8104Y2876D01*
X8110Y2879D01*
X8114Y2881D01*
X8117Y2882D01*
X8119Y2884D01*
X8120Y2884D01*
X8124Y2888D01*
X8129Y2893D01*
X8132Y2897D01*
X8135Y2901D01*
X8137Y2905D01*
X8139Y2908D01*
X8140Y2910D01*
X8140Y2910D01*
X8142Y2917D01*
X8144Y2925D01*
X8145Y2933D01*
X8145Y2941D01*
X8146Y2949D01*
X8146Y2952D01*
Y3016D01*
D02*
G37*
G36*
Y2649D02*
X7853D01*
Y2601D01*
X7854Y2594D01*
Y2588D01*
X7854Y2583D01*
Y2578D01*
X7855Y2573D01*
X7855Y2570D01*
X7856Y2567D01*
Y2564D01*
X7857Y2560D01*
X7857Y2557D01*
Y2557D01*
X7860Y2549D01*
X7863Y2542D01*
X7867Y2537D01*
X7870Y2532D01*
X7873Y2527D01*
X7876Y2524D01*
X7878Y2522D01*
X7879Y2522D01*
X7885Y2516D01*
X7893Y2512D01*
X7900Y2509D01*
X7907Y2506D01*
X7914Y2503D01*
X7919Y2502D01*
X7921Y2501D01*
X7922D01*
X7923Y2500D01*
X7924D01*
X7935Y2498D01*
X7948Y2496D01*
X7960Y2495D01*
X7973Y2494D01*
X7979Y2494D01*
X7984D01*
X7989Y2493D01*
X7993D01*
X7996D01*
X7999D01*
X8001D01*
X8001D01*
X8018Y2494D01*
X8033Y2494D01*
X8040Y2495D01*
X8046Y2495D01*
X8052Y2496D01*
X8057Y2497D01*
X8062Y2497D01*
X8066Y2498D01*
X8069Y2499D01*
X8072Y2499D01*
X8075Y2500D01*
X8076D01*
X8077Y2500D01*
X8078D01*
X8088Y2503D01*
X8096Y2506D01*
X8104Y2509D01*
X8110Y2511D01*
X8114Y2514D01*
X8117Y2515D01*
X8119Y2517D01*
X8120Y2517D01*
X8124Y2521D01*
X8129Y2526D01*
X8132Y2530D01*
X8135Y2534D01*
X8137Y2538D01*
X8139Y2541D01*
X8140Y2542D01*
X8140Y2543D01*
X8142Y2550D01*
X8144Y2558D01*
X8145Y2566D01*
X8145Y2574D01*
X8146Y2582D01*
X8146Y2585D01*
Y2649D01*
D02*
G37*
G36*
X7146Y3016D02*
X6853D01*
Y2968D01*
X6854Y2961D01*
Y2955D01*
X6854Y2950D01*
Y2945D01*
X6855Y2941D01*
X6855Y2937D01*
X6856Y2934D01*
Y2931D01*
X6857Y2927D01*
X6857Y2924D01*
Y2924D01*
X6860Y2916D01*
X6863Y2910D01*
X6867Y2904D01*
X6870Y2899D01*
X6873Y2894D01*
X6876Y2891D01*
X6878Y2889D01*
X6879Y2889D01*
X6885Y2883D01*
X6893Y2879D01*
X6900Y2876D01*
X6907Y2873D01*
X6914Y2870D01*
X6919Y2869D01*
X6921Y2868D01*
X6922D01*
X6923Y2867D01*
X6924D01*
X6935Y2865D01*
X6948Y2863D01*
X6960Y2862D01*
X6973Y2861D01*
X6979Y2861D01*
X6984D01*
X6989Y2860D01*
X6993D01*
X6996D01*
X6999D01*
X7001D01*
X7001D01*
X7018Y2861D01*
X7033Y2861D01*
X7040Y2862D01*
X7046Y2862D01*
X7052Y2863D01*
X7057Y2864D01*
X7062Y2864D01*
X7066Y2865D01*
X7069Y2866D01*
X7072Y2866D01*
X7075Y2867D01*
X7076D01*
X7077Y2867D01*
X7078D01*
X7088Y2870D01*
X7096Y2873D01*
X7104Y2876D01*
X7110Y2879D01*
X7114Y2881D01*
X7117Y2882D01*
X7119Y2884D01*
X7120Y2884D01*
X7124Y2888D01*
X7129Y2893D01*
X7132Y2897D01*
X7135Y2901D01*
X7137Y2905D01*
X7139Y2908D01*
X7140Y2910D01*
X7140Y2910D01*
X7142Y2917D01*
X7144Y2925D01*
X7145Y2933D01*
X7145Y2941D01*
X7146Y2949D01*
X7146Y2952D01*
Y3016D01*
D02*
G37*
G36*
Y2649D02*
X6853D01*
Y2601D01*
X6854Y2594D01*
Y2588D01*
X6854Y2583D01*
Y2578D01*
X6855Y2573D01*
X6855Y2570D01*
X6856Y2567D01*
Y2564D01*
X6857Y2560D01*
X6857Y2557D01*
Y2557D01*
X6860Y2549D01*
X6863Y2542D01*
X6867Y2537D01*
X6870Y2532D01*
X6873Y2527D01*
X6876Y2524D01*
X6878Y2522D01*
X6879Y2522D01*
X6885Y2516D01*
X6893Y2512D01*
X6900Y2509D01*
X6907Y2506D01*
X6914Y2503D01*
X6919Y2502D01*
X6921Y2501D01*
X6922D01*
X6923Y2500D01*
X6924D01*
X6935Y2498D01*
X6948Y2496D01*
X6960Y2495D01*
X6973Y2494D01*
X6979Y2494D01*
X6984D01*
X6989Y2493D01*
X6993D01*
X6996D01*
X6999D01*
X7001D01*
X7001D01*
X7018Y2494D01*
X7033Y2494D01*
X7040Y2495D01*
X7046Y2495D01*
X7052Y2496D01*
X7057Y2497D01*
X7062Y2497D01*
X7066Y2498D01*
X7069Y2499D01*
X7072Y2499D01*
X7075Y2500D01*
X7076D01*
X7077Y2500D01*
X7078D01*
X7088Y2503D01*
X7096Y2506D01*
X7104Y2509D01*
X7110Y2511D01*
X7114Y2514D01*
X7117Y2515D01*
X7119Y2517D01*
X7120Y2517D01*
X7124Y2521D01*
X7129Y2526D01*
X7132Y2530D01*
X7135Y2534D01*
X7137Y2538D01*
X7139Y2541D01*
X7140Y2542D01*
X7140Y2543D01*
X7142Y2550D01*
X7144Y2558D01*
X7145Y2566D01*
X7145Y2574D01*
X7146Y2582D01*
X7146Y2585D01*
Y2649D01*
D02*
G37*
G36*
X19007Y18698D02*
X19003D01*
X19001D01*
X19000D01*
X18986Y18698D01*
X18973Y18697D01*
X18960Y18696D01*
X18949Y18694D01*
X18939Y18692D01*
X18929Y18689D01*
X18921Y18687D01*
X18913Y18684D01*
X18906Y18682D01*
X18900Y18679D01*
X18896Y18677D01*
X18892Y18675D01*
X18889Y18673D01*
X18887Y18671D01*
X18885Y18671D01*
X18885Y18670D01*
X18878Y18665D01*
X18872Y18659D01*
X18867Y18653D01*
X18863Y18647D01*
X18860Y18641D01*
X18857Y18635D01*
X18854Y18629D01*
X18852Y18624D01*
X18850Y18618D01*
X18849Y18613D01*
X18848Y18609D01*
X18848Y18605D01*
X18847Y18602D01*
Y18597D01*
X18848Y18589D01*
X18849Y18582D01*
X18851Y18574D01*
X18853Y18567D01*
X18856Y18561D01*
X18859Y18555D01*
X18862Y18549D01*
X18866Y18544D01*
X18869Y18540D01*
X18872Y18536D01*
X18876Y18533D01*
X18878Y18530D01*
X18881Y18528D01*
X18883Y18527D01*
X18884Y18526D01*
X18884Y18525D01*
X18892Y18520D01*
X18899Y18516D01*
X18908Y18512D01*
X18918Y18509D01*
X18927Y18506D01*
X18936Y18504D01*
X18955Y18501D01*
X18964Y18500D01*
X18972Y18499D01*
X18979Y18498D01*
X18986Y18498D01*
X18991Y18497D01*
X18995D01*
X18997D01*
X18998D01*
X19013Y18498D01*
X19026Y18498D01*
X19038Y18500D01*
X19050Y18502D01*
X19060Y18503D01*
X19070Y18506D01*
X19078Y18509D01*
X19086Y18511D01*
X19092Y18514D01*
X19098Y18517D01*
X19103Y18519D01*
X19107Y18521D01*
X19111Y18523D01*
X19113Y18524D01*
X19114Y18525D01*
X19114Y18526D01*
X19121Y18531D01*
X19127Y18537D01*
X19132Y18543D01*
X19136Y18549D01*
X19140Y18555D01*
X19143Y18561D01*
X19145Y18566D01*
X19147Y18572D01*
X19149Y18577D01*
X19150Y18582D01*
X19151Y18587D01*
X19152Y18590D01*
Y18593D01*
X19152Y18595D01*
Y18597D01*
X19152Y18605D01*
X19151Y18613D01*
X19149Y18620D01*
X19146Y18626D01*
X19141Y18639D01*
X19137Y18644D01*
X19133Y18650D01*
X19130Y18654D01*
X19126Y18658D01*
X19123Y18661D01*
X19120Y18664D01*
X19118Y18666D01*
X19116Y18668D01*
X19115Y18669D01*
X19114Y18669D01*
X19107Y18674D01*
X19099Y18679D01*
X19090Y18683D01*
X19081Y18686D01*
X19071Y18689D01*
X19061Y18691D01*
X19043Y18695D01*
X19034Y18696D01*
X19026Y18697D01*
X19019Y18697D01*
X19012Y18698D01*
X19007Y18698D01*
D02*
G37*
G36*
X19146Y18291D02*
X18853D01*
Y18243D01*
X18854Y18236D01*
Y18230D01*
X18854Y18225D01*
Y18220D01*
X18855Y18215D01*
X18855Y18212D01*
X18856Y18208D01*
Y18206D01*
X18857Y18201D01*
X18857Y18199D01*
Y18198D01*
X18860Y18191D01*
X18863Y18184D01*
X18867Y18178D01*
X18870Y18173D01*
X18873Y18169D01*
X18876Y18166D01*
X18878Y18164D01*
X18879Y18164D01*
X18885Y18158D01*
X18893Y18154D01*
X18900Y18150D01*
X18907Y18147D01*
X18914Y18145D01*
X18919Y18143D01*
X18921Y18142D01*
X18922D01*
X18923Y18142D01*
X18924D01*
X18935Y18139D01*
X18948Y18138D01*
X18960Y18136D01*
X18973Y18136D01*
X18979Y18135D01*
X18984D01*
X18989Y18135D01*
X18993D01*
X18996D01*
X18999D01*
X19001D01*
X19001D01*
X19018Y18135D01*
X19033Y18136D01*
X19040Y18136D01*
X19046Y18137D01*
X19052Y18138D01*
X19057Y18138D01*
X19062Y18139D01*
X19066Y18140D01*
X19069Y18140D01*
X19072Y18141D01*
X19075Y18141D01*
X19076D01*
X19077Y18142D01*
X19078D01*
X19088Y18144D01*
X19096Y18147D01*
X19104Y18150D01*
X19110Y18153D01*
X19114Y18156D01*
X19117Y18157D01*
X19119Y18159D01*
X19120Y18159D01*
X19124Y18163D01*
X19129Y18167D01*
X19132Y18171D01*
X19135Y18175D01*
X19137Y18179D01*
X19139Y18182D01*
X19140Y18184D01*
X19140Y18185D01*
X19142Y18192D01*
X19144Y18199D01*
X19145Y18208D01*
X19145Y18216D01*
X19146Y18224D01*
X19146Y18227D01*
Y18291D01*
D02*
G37*
G36*
X17956Y19111D02*
X17844D01*
Y19037D01*
X17844Y19029D01*
Y19023D01*
X17845Y19018D01*
Y19013D01*
X17845Y19008D01*
Y19005D01*
X17846Y19002D01*
X17846Y18999D01*
Y18997D01*
X17847Y18996D01*
X17847Y18994D01*
Y18994D01*
X17849Y18989D01*
X17852Y18984D01*
X17855Y18980D01*
X17858Y18977D01*
X17861Y18974D01*
X17863Y18972D01*
X17865Y18971D01*
X17865Y18971D01*
X17870Y18968D01*
X17876Y18966D01*
X17881Y18964D01*
X17887Y18963D01*
X17892Y18963D01*
X17896Y18962D01*
X17898D01*
X17899D01*
X17899D01*
X17907Y18963D01*
X17914Y18964D01*
X17920Y18965D01*
X17925Y18966D01*
X17929Y18968D01*
X17932Y18969D01*
X17934Y18970D01*
X17935Y18971D01*
X17939Y18974D01*
X17943Y18978D01*
X17946Y18982D01*
X17948Y18985D01*
X17950Y18988D01*
X17951Y18991D01*
X17952Y18993D01*
Y18993D01*
X17953Y18996D01*
X17954Y18999D01*
X17954Y19004D01*
X17955Y19009D01*
X17955Y19019D01*
X17956Y19030D01*
X17956Y19040D01*
Y19111D01*
D02*
G37*
G36*
X17041Y19054D02*
X16876Y19004D01*
X17041Y18954D01*
Y19054D01*
D02*
G37*
G36*
X9407Y18698D02*
X9403D01*
X9401D01*
X9400D01*
X9386Y18698D01*
X9373Y18697D01*
X9360Y18696D01*
X9349Y18694D01*
X9339Y18692D01*
X9329Y18689D01*
X9321Y18687D01*
X9313Y18684D01*
X9306Y18682D01*
X9300Y18679D01*
X9296Y18677D01*
X9292Y18675D01*
X9289Y18673D01*
X9287Y18671D01*
X9285Y18671D01*
X9285Y18670D01*
X9278Y18665D01*
X9272Y18659D01*
X9268Y18653D01*
X9263Y18647D01*
X9260Y18641D01*
X9257Y18635D01*
X9254Y18629D01*
X9252Y18624D01*
X9250Y18618D01*
X9249Y18613D01*
X9248Y18609D01*
X9248Y18605D01*
X9247Y18602D01*
Y18597D01*
X9248Y18589D01*
X9249Y18582D01*
X9251Y18574D01*
X9253Y18567D01*
X9256Y18561D01*
X9259Y18555D01*
X9262Y18549D01*
X9266Y18544D01*
X9269Y18540D01*
X9272Y18536D01*
X9276Y18533D01*
X9278Y18530D01*
X9281Y18528D01*
X9283Y18527D01*
X9284Y18526D01*
X9284Y18525D01*
X9292Y18520D01*
X9299Y18516D01*
X9308Y18512D01*
X9318Y18509D01*
X9327Y18506D01*
X9336Y18504D01*
X9355Y18501D01*
X9364Y18500D01*
X9372Y18499D01*
X9379Y18498D01*
X9386Y18498D01*
X9391Y18497D01*
X9395D01*
X9397D01*
X9398D01*
X9413Y18498D01*
X9426Y18498D01*
X9438Y18500D01*
X9450Y18502D01*
X9460Y18503D01*
X9470Y18506D01*
X9478Y18509D01*
X9486Y18511D01*
X9492Y18514D01*
X9498Y18517D01*
X9503Y18519D01*
X9507Y18521D01*
X9511Y18523D01*
X9513Y18524D01*
X9514Y18525D01*
X9514Y18526D01*
X9521Y18531D01*
X9527Y18537D01*
X9532Y18543D01*
X9536Y18549D01*
X9540Y18555D01*
X9543Y18561D01*
X9545Y18566D01*
X9547Y18572D01*
X9549Y18577D01*
X9550Y18582D01*
X9551Y18587D01*
X9552Y18590D01*
Y18593D01*
X9552Y18595D01*
Y18597D01*
X9552Y18605D01*
X9551Y18613D01*
X9549Y18620D01*
X9546Y18626D01*
X9541Y18639D01*
X9537Y18644D01*
X9533Y18650D01*
X9530Y18654D01*
X9526Y18658D01*
X9523Y18661D01*
X9520Y18664D01*
X9518Y18666D01*
X9516Y18668D01*
X9515Y18669D01*
X9514Y18669D01*
X9507Y18674D01*
X9499Y18679D01*
X9490Y18683D01*
X9481Y18686D01*
X9471Y18689D01*
X9461Y18691D01*
X9443Y18695D01*
X9434Y18696D01*
X9426Y18697D01*
X9419Y18697D01*
X9412Y18698D01*
X9407Y18698D01*
D02*
G37*
G36*
X8407Y18218D02*
X8403D01*
X8401D01*
X8400D01*
X8386Y18218D01*
X8373Y18217D01*
X8360Y18216D01*
X8349Y18214D01*
X8339Y18212D01*
X8329Y18209D01*
X8321Y18207D01*
X8313Y18204D01*
X8306Y18201D01*
X8300Y18199D01*
X8296Y18196D01*
X8292Y18195D01*
X8289Y18193D01*
X8287Y18191D01*
X8285Y18191D01*
X8285Y18190D01*
X8278Y18185D01*
X8272Y18179D01*
X8267Y18173D01*
X8263Y18167D01*
X8260Y18161D01*
X8257Y18155D01*
X8254Y18149D01*
X8252Y18143D01*
X8250Y18138D01*
X8249Y18133D01*
X8248Y18129D01*
X8248Y18125D01*
X8247Y18122D01*
Y18117D01*
X8248Y18109D01*
X8249Y18102D01*
X8251Y18094D01*
X8253Y18087D01*
X8256Y18081D01*
X8259Y18074D01*
X8262Y18069D01*
X8266Y18064D01*
X8269Y18060D01*
X8272Y18056D01*
X8276Y18053D01*
X8278Y18050D01*
X8281Y18048D01*
X8283Y18046D01*
X8284Y18045D01*
X8284Y18045D01*
X8292Y18040D01*
X8299Y18036D01*
X8308Y18032D01*
X8318Y18029D01*
X8327Y18026D01*
X8336Y18024D01*
X8355Y18020D01*
X8364Y18019D01*
X8372Y18018D01*
X8379Y18018D01*
X8386Y18017D01*
X8391Y18017D01*
X8395D01*
X8397D01*
X8398D01*
X8413Y18017D01*
X8426Y18018D01*
X8438Y18019D01*
X8450Y18021D01*
X8460Y18023D01*
X8470Y18026D01*
X8478Y18029D01*
X8486Y18031D01*
X8492Y18034D01*
X8498Y18037D01*
X8503Y18039D01*
X8507Y18041D01*
X8511Y18043D01*
X8513Y18044D01*
X8514Y18045D01*
X8514Y18045D01*
X8521Y18051D01*
X8527Y18057D01*
X8532Y18063D01*
X8536Y18069D01*
X8540Y18075D01*
X8543Y18081D01*
X8545Y18086D01*
X8547Y18092D01*
X8549Y18097D01*
X8550Y18102D01*
X8551Y18106D01*
X8552Y18110D01*
Y18113D01*
X8552Y18115D01*
Y18117D01*
X8552Y18125D01*
X8551Y18133D01*
X8549Y18140D01*
X8546Y18146D01*
X8541Y18159D01*
X8537Y18164D01*
X8533Y18169D01*
X8530Y18174D01*
X8526Y18178D01*
X8523Y18181D01*
X8520Y18184D01*
X8518Y18186D01*
X8516Y18188D01*
X8515Y18189D01*
X8514Y18189D01*
X8507Y18194D01*
X8499Y18198D01*
X8490Y18202D01*
X8481Y18206D01*
X8471Y18209D01*
X8461Y18211D01*
X8443Y18215D01*
X8434Y18216D01*
X8426Y18217D01*
X8419Y18217D01*
X8412Y18218D01*
X8407Y18218D01*
D02*
G37*
%LPD*%
D14*
X21670Y9450D02*
Y9670D01*
X21560D01*
X21523Y9633D01*
Y9560D01*
X21560Y9523D01*
X21670D01*
X21450Y9450D02*
X21377D01*
X21413D01*
Y9670D01*
X21450Y9633D01*
X21267Y9450D02*
X21193D01*
X21230D01*
Y9670D01*
X21267Y9633D01*
X21900Y1500D02*
X21680D01*
Y1390D01*
X21717Y1353D01*
X21790D01*
X21827Y1390D01*
Y1500D01*
X21717Y1280D02*
X21680Y1243D01*
Y1170D01*
X21717Y1133D01*
X21753D01*
X21790Y1170D01*
X21827Y1133D01*
X21863D01*
X21900Y1170D01*
Y1243D01*
X21863Y1280D01*
X21827D01*
X21790Y1243D01*
X21753Y1280D01*
X21717D01*
X21790Y1243D02*
Y1170D01*
X13270Y20550D02*
X13050D01*
Y20440D01*
X13087Y20403D01*
X13160D01*
X13197Y20440D01*
Y20550D01*
X13270Y20330D02*
Y20257D01*
Y20293D01*
X13050D01*
X13087Y20330D01*
Y20147D02*
X13050Y20110D01*
Y20037D01*
X13087Y20000D01*
X13233D01*
X13270Y20037D01*
Y20110D01*
X13233Y20147D01*
X13087D01*
X21890Y20550D02*
X21670D01*
Y20440D01*
X21707Y20403D01*
X21780D01*
X21817Y20440D01*
Y20550D01*
X21853Y20330D02*
X21890Y20293D01*
Y20220D01*
X21853Y20183D01*
X21707D01*
X21670Y20220D01*
Y20293D01*
X21707Y20330D01*
X21743D01*
X21780Y20293D01*
Y20183D01*
X14900Y1450D02*
X14680D01*
Y1340D01*
X14717Y1303D01*
X14790D01*
X14827Y1340D01*
Y1450D01*
X14680Y1230D02*
Y1083D01*
X14717D01*
X14863Y1230D01*
X14900D01*
D16*
X14500Y800D02*
Y1800D01*
X6500Y800D02*
X14500D01*
X6500Y1800D02*
X14500D01*
X6500Y800D02*
Y1800D01*
X7500Y1500D02*
Y1800D01*
Y800D02*
Y1100D01*
X13500Y19800D02*
Y20800D01*
X21500D01*
X13500Y19800D02*
X21500D01*
Y20800D01*
X20500Y19800D02*
Y20100D01*
Y20500D02*
Y20800D01*
X2900Y19800D02*
Y20800D01*
X11900Y20500D02*
Y20800D01*
Y19800D02*
Y20100D01*
X12900Y19800D02*
Y20800D01*
X2900Y19800D02*
X12900D01*
X2900Y20800D02*
X12900D01*
X15500Y800D02*
X21500D01*
Y1800D01*
X15500D02*
X21500D01*
X15500Y800D02*
Y1800D01*
X16500Y1500D02*
Y1800D01*
Y800D02*
Y1100D01*
X20550Y9800D02*
Y9989D01*
X22550Y9800D02*
Y9989D01*
X20550Y10603D02*
Y10993D01*
X22550Y10603D02*
Y10993D01*
X20550Y11607D02*
Y11997D01*
X22550Y11607D02*
Y11997D01*
X20550Y12611D02*
Y12800D01*
X22550Y12611D02*
Y12800D01*
X20550Y9800D02*
X22550D01*
X20550Y12800D02*
X22550D01*
D59*
X20280Y12850D02*
G03*
X20280Y12850I-100J0D01*
G01*
M02*
