G04*
G04 #@! TF.GenerationSoftware,Altium Limited,Altium Designer,21.3.2 (30)*
G04*
G04 Layer_Color=32768*
%FSLAX24Y24*%
%MOIN*%
G70*
G04*
G04 #@! TF.SameCoordinates,DEC0B546-127E-4CDD-B314-4E0B8DF39A68*
G04*
G04*
G04 #@! TF.FilePolarity,Positive*
G04*
G01*
G75*
%ADD22C,0.0080*%
%ADD228C,0.0110*%
%ADD229C,0.0087*%
%ADD230C,0.0087*%
%ADD231C,0.0071*%
%ADD249C,0.0057*%
D22*
X49534Y11620D02*
Y11353D01*
X49734D01*
X49667Y11486D01*
Y11553D01*
X49734Y11620D01*
X49867D01*
X49934Y11553D01*
Y11420D01*
X49867Y11353D01*
X49600Y11753D02*
X49534Y11820D01*
Y11953D01*
X49600Y12019D01*
X49867D01*
X49934Y11953D01*
Y11820D01*
X49867Y11753D01*
X49600D01*
X49934Y12219D02*
Y12353D01*
X49867Y12419D01*
X49734D01*
X49667Y12353D01*
Y12219D01*
X49734Y12153D01*
X49867D01*
X49934Y12219D01*
X49534Y12553D02*
X49934D01*
X49734D01*
X49667Y12619D01*
Y12753D01*
X49734Y12819D01*
X49934D01*
Y12952D02*
X49667D01*
Y13019D01*
X49734Y13086D01*
X49934D01*
X49734D01*
X49667Y13152D01*
X49734Y13219D01*
X49934D01*
Y13752D02*
Y13952D01*
X49867Y14019D01*
X49800Y13952D01*
Y13819D01*
X49734Y13752D01*
X49667Y13819D01*
Y14019D01*
X49934Y14152D02*
Y14285D01*
Y14219D01*
X49667D01*
Y14152D01*
X49934Y14485D02*
X49667D01*
Y14685D01*
X49734Y14752D01*
X49934D01*
X50067Y15018D02*
Y15085D01*
X50000Y15152D01*
X49667D01*
Y14952D01*
X49734Y14885D01*
X49867D01*
X49934Y14952D01*
Y15152D01*
Y15285D02*
Y15418D01*
Y15352D01*
X49534D01*
Y15285D01*
X49934Y15818D02*
Y15685D01*
X49867Y15618D01*
X49734D01*
X49667Y15685D01*
Y15818D01*
X49734Y15885D01*
X49800D01*
Y15618D01*
X49934Y16618D02*
Y16485D01*
X49867Y16418D01*
X49734D01*
X49667Y16485D01*
Y16618D01*
X49734Y16685D01*
X49800D01*
Y16418D01*
X49934Y16818D02*
X49667D01*
Y17018D01*
X49734Y17084D01*
X49934D01*
X49534Y17484D02*
X49934D01*
Y17284D01*
X49867Y17218D01*
X49734D01*
X49667Y17284D01*
Y17484D01*
X49934Y17818D02*
Y17684D01*
X49867Y17618D01*
X49734D01*
X49667Y17684D01*
Y17818D01*
X49734Y17884D01*
X49800D01*
Y17618D01*
X49534Y18284D02*
X49934D01*
Y18084D01*
X49867Y18018D01*
X49734D01*
X49667Y18084D01*
Y18284D01*
X50739Y11153D02*
X50606Y11020D01*
X50472D01*
X50339Y11153D01*
X50472Y11620D02*
Y11420D01*
X50539Y11353D01*
X50672D01*
X50739Y11420D01*
Y11620D01*
Y11820D02*
Y11953D01*
X50672Y12019D01*
X50539D01*
X50472Y11953D01*
Y11820D01*
X50539Y11753D01*
X50672D01*
X50739Y11820D01*
X50872Y12153D02*
X50472D01*
Y12353D01*
X50539Y12419D01*
X50672D01*
X50739Y12353D01*
Y12153D01*
Y12553D02*
Y12686D01*
Y12619D01*
X50339D01*
Y12553D01*
X50472Y12952D02*
Y13086D01*
X50539Y13152D01*
X50739D01*
Y12952D01*
X50672Y12886D01*
X50606Y12952D01*
Y13152D01*
X50739Y13286D02*
X50472D01*
Y13486D01*
X50539Y13552D01*
X50739D01*
X50472Y13752D02*
Y13886D01*
X50539Y13952D01*
X50739D01*
Y13752D01*
X50672Y13686D01*
X50606Y13752D01*
Y13952D01*
X50472Y14085D02*
X50739D01*
X50606D01*
X50539Y14152D01*
X50472Y14219D01*
Y14285D01*
X50739Y14485D02*
X50606Y14619D01*
X50472D01*
X50339Y14485D01*
X50739Y15218D02*
Y15352D01*
Y15285D01*
X50472D01*
Y15218D01*
X50739Y15552D02*
X50472D01*
Y15618D01*
X50539Y15685D01*
X50739D01*
X50539D01*
X50472Y15752D01*
X50539Y15818D01*
X50739D01*
X50872Y15952D02*
X50472D01*
Y16151D01*
X50539Y16218D01*
X50672D01*
X50739Y16151D01*
Y15952D01*
Y16551D02*
Y16418D01*
X50672Y16351D01*
X50539D01*
X50472Y16418D01*
Y16551D01*
X50539Y16618D01*
X50606D01*
Y16351D01*
X50339Y17018D02*
X50739D01*
Y16818D01*
X50672Y16751D01*
X50539D01*
X50472Y16818D01*
Y17018D01*
Y17218D02*
Y17351D01*
X50539Y17418D01*
X50739D01*
Y17218D01*
X50672Y17151D01*
X50606Y17218D01*
Y17418D01*
X50739Y17551D02*
X50472D01*
Y17751D01*
X50539Y17818D01*
X50739D01*
X50472Y18217D02*
Y18018D01*
X50539Y17951D01*
X50672D01*
X50739Y18018D01*
Y18217D01*
Y18551D02*
Y18417D01*
X50672Y18351D01*
X50539D01*
X50472Y18417D01*
Y18551D01*
X50539Y18617D01*
X50606D01*
Y18351D01*
X2920Y13997D02*
X2987Y13930D01*
X3120D01*
X3187Y13997D01*
Y14263D01*
X3120Y14330D01*
X2987D01*
X2920Y14263D01*
Y14197D01*
X2987Y14130D01*
X3187D01*
X3320Y14263D02*
X3387Y14330D01*
X3520D01*
X3586Y14263D01*
Y13997D01*
X3520Y13930D01*
X3387D01*
X3320Y13997D01*
Y14263D01*
X3786Y13930D02*
X3920D01*
X3986Y13997D01*
Y14130D01*
X3920Y14197D01*
X3786D01*
X3720Y14130D01*
Y13997D01*
X3786Y13930D01*
X4120Y14330D02*
Y13930D01*
Y14130D01*
X4186Y14197D01*
X4320D01*
X4386Y14130D01*
Y13930D01*
X4519D02*
Y14197D01*
X4586D01*
X4653Y14130D01*
Y13930D01*
Y14130D01*
X4719Y14197D01*
X4786Y14130D01*
Y13930D01*
X5586Y14330D02*
Y13930D01*
X5386D01*
X5319Y13997D01*
Y14130D01*
X5386Y14197D01*
X5586D01*
X5719Y13930D02*
X5852D01*
X5786D01*
Y14197D01*
X5719D01*
X6119Y13930D02*
Y14263D01*
Y14130D01*
X6052D01*
X6186D01*
X6119D01*
Y14263D01*
X6186Y14330D01*
X6452Y13930D02*
Y14263D01*
Y14130D01*
X6386D01*
X6519D01*
X6452D01*
Y14263D01*
X6519Y14330D01*
X6919Y13930D02*
X6785D01*
X6719Y13997D01*
Y14130D01*
X6785Y14197D01*
X6919D01*
X6985Y14130D01*
Y14063D01*
X6719D01*
X7119Y14197D02*
Y13930D01*
Y14063D01*
X7185Y14130D01*
X7252Y14197D01*
X7319D01*
X7718Y13930D02*
X7585D01*
X7519Y13997D01*
Y14130D01*
X7585Y14197D01*
X7718D01*
X7785Y14130D01*
Y14063D01*
X7519D01*
X7918Y13930D02*
Y14197D01*
X8118D01*
X8185Y14130D01*
Y13930D01*
X8385Y14263D02*
Y14197D01*
X8318D01*
X8452D01*
X8385D01*
Y13997D01*
X8452Y13930D01*
X8651D02*
X8785D01*
X8718D01*
Y14197D01*
X8651D01*
X9051D02*
X9185D01*
X9251Y14130D01*
Y13930D01*
X9051D01*
X8985Y13997D01*
X9051Y14063D01*
X9251D01*
X9385Y13930D02*
X9518D01*
X9451D01*
Y14330D01*
X9385D01*
X10118Y13930D02*
X10251D01*
X10184D01*
Y14197D01*
X10118D01*
X10451Y13930D02*
Y14197D01*
X10518D01*
X10584Y14130D01*
Y13930D01*
Y14130D01*
X10651Y14197D01*
X10717Y14130D01*
Y13930D01*
X10851Y13797D02*
Y14197D01*
X11051D01*
X11117Y14130D01*
Y13997D01*
X11051Y13930D01*
X10851D01*
X11451D02*
X11317D01*
X11251Y13997D01*
Y14130D01*
X11317Y14197D01*
X11451D01*
X11517Y14130D01*
Y14063D01*
X11251D01*
X11917Y14330D02*
Y13930D01*
X11717D01*
X11651Y13997D01*
Y14130D01*
X11717Y14197D01*
X11917D01*
X12117D02*
X12250D01*
X12317Y14130D01*
Y13930D01*
X12117D01*
X12050Y13997D01*
X12117Y14063D01*
X12317D01*
X12450Y13930D02*
Y14197D01*
X12650D01*
X12717Y14130D01*
Y13930D01*
X13117Y14197D02*
X12917D01*
X12850Y14130D01*
Y13997D01*
X12917Y13930D01*
X13117D01*
X13450D02*
X13317D01*
X13250Y13997D01*
Y14130D01*
X13317Y14197D01*
X13450D01*
X13517Y14130D01*
Y14063D01*
X13250D01*
X35563Y6130D02*
X35657D01*
X35752Y6224D01*
Y6318D01*
X35563Y6507D01*
X35469D01*
X35375Y6413D01*
Y6318D01*
X35422Y6271D01*
X35516D01*
X35657Y6413D01*
Y6601D02*
Y6695D01*
X35752Y6790D01*
X35846D01*
X36034Y6601D01*
Y6507D01*
X35940Y6413D01*
X35846D01*
X35657Y6601D01*
X36223Y6695D02*
X36317Y6790D01*
Y6884D01*
X36223Y6978D01*
X36129D01*
X36034Y6884D01*
Y6790D01*
X36129Y6695D01*
X36223D01*
X36176Y7214D02*
X36458Y6931D01*
X36317Y7072D01*
Y7167D01*
X36411Y7261D01*
X36506D01*
X36647Y7119D01*
X36741Y7214D02*
X36553Y7402D01*
X36600Y7449D01*
X36694D01*
X36835Y7308D01*
X36694Y7449D01*
Y7544D01*
X36788D01*
X36930Y7402D01*
X37212Y8250D02*
X37495Y7968D01*
X37354Y7826D01*
X37260D01*
X37165Y7921D01*
Y8015D01*
X37307Y8156D01*
X37589Y8062D02*
X37684Y8156D01*
X37637Y8109D01*
X37448Y8298D01*
X37401Y8250D01*
X37872Y8345D02*
X37637Y8580D01*
X37731Y8486D01*
X37684Y8439D01*
X37778Y8533D01*
X37731Y8486D01*
X37637Y8580D01*
Y8675D01*
X38108Y8580D02*
X37872Y8816D01*
X37966Y8722D01*
X37919Y8675D01*
X38014Y8769D01*
X37966Y8722D01*
X37872Y8816D01*
Y8910D01*
X38438D02*
X38344Y8816D01*
X38249D01*
X38155Y8910D01*
Y9004D01*
X38249Y9099D01*
X38344D01*
X38391Y9052D01*
X38202Y8863D01*
X38391Y9240D02*
X38579Y9052D01*
X38485Y9146D01*
Y9240D01*
Y9334D01*
X38532Y9381D01*
X39003Y9476D02*
X38909Y9381D01*
X38815D01*
X38721Y9476D01*
Y9570D01*
X38815Y9664D01*
X38909D01*
X38956Y9617D01*
X38768Y9429D01*
X39145Y9617D02*
X38956Y9806D01*
X39098Y9947D01*
X39192D01*
X39333Y9806D01*
X39239Y10183D02*
X39286Y10135D01*
X39239Y10088D01*
X39333Y10183D01*
X39286Y10135D01*
X39427Y9994D01*
X39522D01*
X39663Y10135D02*
X39757Y10230D01*
X39710Y10183D01*
X39522Y10371D01*
X39475Y10324D01*
X39757Y10607D02*
X39852Y10701D01*
X39946D01*
X40087Y10560D01*
X39946Y10418D01*
X39852D01*
Y10512D01*
X39993Y10654D01*
X40181Y10654D02*
X40276Y10748D01*
X40229Y10701D01*
X39946Y10984D01*
X39899Y10937D01*
X40700Y11172D02*
X40794Y11266D01*
X40747Y11219D01*
X40558Y11408D01*
X40511Y11361D01*
X40935Y11408D02*
X40747Y11596D01*
X40794Y11643D01*
X40888D01*
X41030Y11502D01*
X40888Y11643D01*
Y11738D01*
X40983D01*
X41124Y11596D01*
X41312D02*
X41030Y11879D01*
X41171Y12020D01*
X41265D01*
X41360Y11926D01*
Y11832D01*
X41218Y11691D01*
X41642Y12115D02*
X41548Y12020D01*
X41454D01*
X41360Y12115D01*
Y12209D01*
X41454Y12303D01*
X41548D01*
X41595Y12256D01*
X41407Y12068D01*
X41689Y12727D02*
X41972Y12445D01*
X41831Y12303D01*
X41737D01*
X41642Y12397D01*
Y12492D01*
X41784Y12633D01*
X41925Y12774D02*
X42019Y12869D01*
X42114D01*
X42255Y12727D01*
X42114Y12586D01*
X42019D01*
Y12680D01*
X42161Y12822D01*
X42349D02*
X42161Y13010D01*
X42302Y13151D01*
X42396D01*
X42538Y13010D01*
X42632Y13481D02*
X42491Y13340D01*
Y13246D01*
X42585Y13151D01*
X42679D01*
X42820Y13293D01*
X43056Y13528D02*
X42962Y13434D01*
X42868D01*
X42773Y13528D01*
Y13623D01*
X42868Y13717D01*
X42962D01*
X43009Y13670D01*
X42820Y13481D01*
D228*
X52744Y14075D02*
G03*
X52317Y14502I-428J0D01*
G01*
X50955Y15108D02*
G03*
X51259Y15234I0J430D01*
G01*
X52317Y15458D02*
G03*
X52744Y15886I0J428D01*
G01*
X51259Y14726D02*
G03*
X50955Y14852I-304J-304D01*
G01*
X52451Y4046D02*
G03*
X52744Y4753I-707J707D01*
G01*
X52744Y20247D02*
G03*
X52451Y20954I-1000J0D01*
G01*
X52185Y14502D02*
X52244D01*
X51707D02*
X51949D01*
X52185Y15458D02*
X52244D01*
X51707D02*
X51949D01*
X52244Y14502D02*
X52317D01*
X52244Y14291D02*
Y14502D01*
Y15458D02*
Y15667D01*
Y15458D02*
X52317D01*
X47132Y15112D02*
X47353D01*
X51244Y2508D02*
X51541Y2211D01*
X51703Y14291D02*
Y14498D01*
X51259Y15234D02*
X51483Y15458D01*
X51703Y15667D02*
Y15669D01*
X52744Y17713D02*
Y17717D01*
X51703Y15463D02*
Y15667D01*
X51259Y14726D02*
X51483Y14502D01*
X51244Y22492D02*
X51541Y22789D01*
X52744Y10813D02*
X52744Y10813D01*
Y11726D02*
Y14075D01*
Y18626D02*
Y20247D01*
Y15886D02*
Y17713D01*
X52744Y4753D02*
Y10818D01*
X48593Y15109D02*
X48860Y15108D01*
X48593Y15109D02*
X48593D01*
X47578Y15110D02*
X48256D01*
X48593Y15109D01*
X49085Y15108D02*
X49400Y15108D01*
X51078Y2673D02*
X52451Y4046D01*
X51078Y22327D02*
X52451Y20954D01*
D229*
X2204Y12535D02*
G03*
X2118Y12500I0J-121D01*
G01*
X3150Y12537D02*
G03*
X3089Y12512I0J-86D01*
G01*
X2630Y12498D02*
G03*
X2539Y12535I-90J-90D01*
G01*
X2887Y12310D02*
G03*
X2852Y12227I84J-84D01*
G01*
D02*
G03*
X2817Y12310I-119J-0D01*
G01*
X2852Y12227D02*
G03*
X2852Y12226I119J-0D01*
G01*
X2852D02*
G03*
X2852Y12227I-119J0D01*
G01*
X2852Y13033D02*
G03*
X2887Y12950I119J0D01*
G01*
X2852Y13034D02*
G03*
X2852Y13033I119J0D01*
G01*
X2817Y12950D02*
G03*
X2852Y13033I-84J84D01*
G01*
X3978Y12417D02*
G03*
X3688Y12537I-290J-290D01*
G01*
X4612Y12559D02*
G03*
X4469Y12500I0J-203D01*
G01*
X4310Y12397D02*
G03*
X4463Y12495I-143J394D01*
G01*
X4167Y12372D02*
G03*
X4307Y12396I0J419D01*
G01*
D02*
G03*
X4310Y12397I-140J395D01*
G01*
X2118Y12756D02*
G03*
X2204Y12720I86J86D01*
G01*
X3089Y12748D02*
G03*
X3150Y12723I61J61D01*
G01*
X2539Y12720D02*
G03*
X2623Y12755I0J118D01*
G01*
X4160Y12700D02*
G03*
X4644Y12901I0J684D01*
G01*
X4160Y12700D02*
G03*
X4107Y12723I-53J-53D01*
G01*
X4840Y12607D02*
G03*
X4860Y12559I68J0D01*
G01*
X3978Y12417D02*
G03*
X4164Y12372I186J360D01*
G01*
X4931Y12926D02*
G03*
X4840Y12707I219J-219D01*
G01*
X5626Y13296D02*
G03*
X5070Y13066I0J-786D01*
G01*
X5625Y13481D02*
G03*
X4940Y13197I0J-969D01*
G01*
X13980Y13087D02*
G03*
X13476Y13296I-505J-505D01*
G01*
X14057Y13272D02*
G03*
X13552Y13481I-505J-505D01*
G01*
X14550Y12385D02*
G03*
X14558Y12403I-18J18D01*
G01*
X14534Y12378D02*
G03*
X14550Y12385I0J23D01*
G01*
X14507Y12362D02*
G03*
X14526Y12370I0J27D01*
G01*
X14681Y12254D02*
G03*
X14743Y12403I-148J148D01*
G01*
Y12404D02*
G03*
X14614Y12714I-438J0D01*
G01*
X14483Y12171D02*
G03*
X14680Y12253I0J279D01*
G01*
X14558Y12403D02*
G03*
X14483Y12584I-256J0D01*
G01*
X14244Y11575D02*
G03*
X14258Y11569I14J14D01*
G01*
X14258Y11384D02*
G03*
X14244Y11378I0J-20D01*
G01*
X15105Y11337D02*
G03*
X15048Y11374I-115J-115D01*
G01*
D02*
G03*
X14990Y11384I-57J-152D01*
G01*
X14990Y11569D02*
G03*
X15048Y11580I0J163D01*
G01*
D02*
G03*
X15105Y11617I-57J152D01*
G01*
X34888Y3662D02*
G03*
X34804Y3697I-84J-84D01*
G01*
D02*
G03*
X34888Y3732I0J119D01*
G01*
X35106Y3396D02*
G03*
X35072Y3478I-117J0D01*
G01*
X35312Y3447D02*
G03*
X35291Y3396I52J-52D01*
G01*
X35611Y3697D02*
G03*
X35527Y3662I0J-119D01*
G01*
X35981Y5421D02*
G03*
X35512Y5226I0J-663D01*
G01*
X37309Y6866D02*
G03*
X37206Y6677I269J-269D01*
G01*
D02*
G03*
X37198Y6597I372J-80D01*
G01*
X37178Y6996D02*
G03*
X37041Y6774I399J-399D01*
G01*
D02*
G03*
X37012Y6598I536J-176D01*
G01*
X44645Y13350D02*
G03*
X44670Y13288I87J0D01*
G01*
X44460Y13349D02*
G03*
X44539Y13158I270J0D01*
G01*
X44590Y13107D02*
G03*
X44587Y13111I-693J-686D01*
G01*
X35095Y3938D02*
G03*
X35120Y4000I-62J62D01*
G01*
X35305D02*
G03*
X35339Y3920I114J0D01*
G01*
X35979Y5606D02*
G03*
X35382Y5359I0J-844D01*
G01*
X44651Y13515D02*
G03*
X44645Y13501I14J-14D01*
G01*
X44460Y13516D02*
G03*
X44454Y13530I-20J0D01*
G01*
X35512Y5226D02*
G03*
X35305Y4728I498J-498D01*
G01*
X36634Y5606D02*
G03*
X37012Y5984I0J379D01*
G01*
X40048Y9191D02*
G03*
X39341Y8898I0J-1000D01*
G01*
X40048Y9376D02*
G03*
X39211Y9029I0J-1184D01*
G01*
X36641Y5421D02*
G03*
X37198Y5978I0J557D01*
G01*
X43872Y9191D02*
G03*
X45057Y10376I0J1185D01*
G01*
X43872Y9376D02*
G03*
X44872Y10376I0J1000D01*
G01*
X45057Y12498D02*
G03*
X44772Y13187I-975J0D01*
G01*
X44872Y12421D02*
G03*
X44590Y13107I-975J0D01*
G01*
X35380Y5356D02*
G03*
X35120Y4730I626J-626D01*
G01*
X14258Y12171D02*
G03*
X14244Y12165I0J-21D01*
G01*
X2887Y12310D02*
X3089Y12512D01*
X2630Y12498D02*
X2817Y12310D01*
X2852Y12226D02*
X2852D01*
Y13034D02*
X2852D01*
X2623Y12755D02*
X2817Y12950D01*
X4463Y12495D02*
X4469Y12500D01*
X4164Y12372D02*
X4167D01*
X4931Y12926D02*
X5070Y13066D01*
X4931Y12926D02*
X4931Y12926D01*
X2887Y12950D02*
X3089Y12748D01*
X4612Y12559D02*
X4860D01*
X3150Y12537D02*
X3688D01*
X2204Y12535D02*
X2539D01*
X4644Y12901D02*
X4940Y13197D01*
X4840Y12607D02*
Y12707D01*
X3150Y12723D02*
X4107D01*
X2204Y12720D02*
X2539D01*
X5626Y13296D02*
X13476D01*
X5625Y13481D02*
X13552D01*
X12660Y13732D02*
X12904D01*
X12660Y13045D02*
X12904D01*
X13980Y13087D02*
X14483Y12584D01*
X14057Y13272D02*
X14614Y12714D01*
X14550Y12385D02*
X14550Y12385D01*
X14526Y12370D02*
X14534Y12378D01*
X14743Y12403D02*
Y12404D01*
X14680Y12253D02*
X14681Y12254D01*
X14244Y12362D02*
X14507D01*
X14258Y12171D02*
X14483D01*
X14258Y11384D02*
X14775D01*
X14258Y11569D02*
X14698D01*
X14699Y11569D02*
X14990D01*
X14776Y11384D02*
X14990D01*
X35106Y2849D02*
X35106Y2849D01*
Y2727D02*
Y2849D01*
X35106Y2727D02*
X35106Y2727D01*
X35106Y2489D02*
Y2727D01*
X35071Y2454D02*
X35106Y2489D01*
X34888Y3662D02*
X35072Y3478D01*
X35291Y2489D02*
Y2926D01*
Y2489D02*
X35326Y2454D01*
X35291Y2926D02*
X35291Y2926D01*
X35312Y3447D02*
X35527Y3662D01*
X35380Y5356D02*
X35382Y5359D01*
X36730Y6350D02*
X36765D01*
X37198Y5978D02*
Y6068D01*
X37012Y5984D02*
Y6068D01*
X37198Y6597D02*
X37198D01*
X37198D02*
X37198Y6597D01*
X37445Y6350D01*
X37012Y6597D02*
Y6598D01*
X37445Y6350D02*
X37480D01*
X44670Y13288D02*
X44772Y13187D01*
X44539Y13158D02*
X44587Y13111D01*
X35120Y4000D02*
Y4730D01*
X34888Y3732D02*
X35095Y3938D01*
X35106Y2849D02*
Y3396D01*
X35305Y4000D02*
Y4728D01*
X35291Y2926D02*
Y3396D01*
X35339Y3920D02*
X35527Y3732D01*
X37198Y6068D02*
X37480Y6350D01*
X44651Y13515D02*
Y13530D01*
Y13515D02*
Y13515D01*
X44645Y13350D02*
Y13501D01*
X44460Y13349D02*
Y13516D01*
X44651Y13515D02*
X44651Y13515D01*
X45057Y10376D02*
Y12498D01*
X35981Y5421D02*
X36641D01*
X35979Y5606D02*
X36634D01*
X36765Y6350D02*
X37012Y6597D01*
X36730Y6350D02*
X37012Y6068D01*
X37309Y6866D02*
X39341Y8898D01*
X44872Y10376D02*
Y12421D01*
X40048Y9191D02*
X43872D01*
X40048Y9376D02*
X43872D01*
X37178Y6996D02*
X39211Y9029D01*
X13476Y13296D02*
Y13296D01*
X13552Y13481D02*
X13552D01*
X14698Y11569D02*
X14699Y11569D01*
X14775Y11384D02*
X14776Y11384D01*
D230*
X4931Y12926D02*
D03*
X35339Y3920D02*
D03*
D231*
X35527Y3732D02*
G03*
X35611Y3697I84J84D01*
G01*
D249*
X46423Y15204D02*
X46464Y15245D01*
X46998D02*
X47101Y15142D01*
X47126Y15111D02*
X47132D01*
X47101Y15136D02*
X47126Y15111D01*
X47101Y15136D02*
Y15142D01*
X47353Y15112D02*
X47353Y15112D01*
X47132Y15111D02*
X47132Y15112D01*
X51541Y22789D02*
Y22789D01*
X46464Y15245D02*
X46998D01*
M02*
