G04*
G04 #@! TF.GenerationSoftware,Altium Limited,Altium Designer,21.3.2 (30)*
G04*
G04 Layer_Color=32896*
%FSLAX24Y24*%
%MOIN*%
G70*
G04*
G04 #@! TF.SameCoordinates,DEC0B546-127E-4CDD-B314-4E0B8DF39A68*
G04*
G04*
G04 #@! TF.FilePolarity,Positive*
G04*
G01*
G75*
%ADD22C,0.0080*%
%ADD229C,0.0087*%
D22*
X2920Y13997D02*
X2987Y13930D01*
X3120D01*
X3187Y13997D01*
Y14263D01*
X3120Y14330D01*
X2987D01*
X2920Y14263D01*
Y14197D01*
X2987Y14130D01*
X3187D01*
X3320Y14263D02*
X3387Y14330D01*
X3520D01*
X3586Y14263D01*
Y13997D01*
X3520Y13930D01*
X3387D01*
X3320Y13997D01*
Y14263D01*
X3786Y13930D02*
X3920D01*
X3986Y13997D01*
Y14130D01*
X3920Y14197D01*
X3786D01*
X3720Y14130D01*
Y13997D01*
X3786Y13930D01*
X4120Y14330D02*
Y13930D01*
Y14130D01*
X4186Y14197D01*
X4320D01*
X4386Y14130D01*
Y13930D01*
X4519D02*
Y14197D01*
X4586D01*
X4653Y14130D01*
Y13930D01*
Y14130D01*
X4719Y14197D01*
X4786Y14130D01*
Y13930D01*
X5586Y14330D02*
Y13930D01*
X5386D01*
X5319Y13997D01*
Y14130D01*
X5386Y14197D01*
X5586D01*
X5719Y13930D02*
X5852D01*
X5786D01*
Y14197D01*
X5719D01*
X6119Y13930D02*
Y14263D01*
Y14130D01*
X6052D01*
X6186D01*
X6119D01*
Y14263D01*
X6186Y14330D01*
X6452Y13930D02*
Y14263D01*
Y14130D01*
X6386D01*
X6519D01*
X6452D01*
Y14263D01*
X6519Y14330D01*
X6919Y13930D02*
X6785D01*
X6719Y13997D01*
Y14130D01*
X6785Y14197D01*
X6919D01*
X6985Y14130D01*
Y14063D01*
X6719D01*
X7119Y14197D02*
Y13930D01*
Y14063D01*
X7185Y14130D01*
X7252Y14197D01*
X7319D01*
X7718Y13930D02*
X7585D01*
X7519Y13997D01*
Y14130D01*
X7585Y14197D01*
X7718D01*
X7785Y14130D01*
Y14063D01*
X7519D01*
X7918Y13930D02*
Y14197D01*
X8118D01*
X8185Y14130D01*
Y13930D01*
X8385Y14263D02*
Y14197D01*
X8318D01*
X8452D01*
X8385D01*
Y13997D01*
X8452Y13930D01*
X8651D02*
X8785D01*
X8718D01*
Y14197D01*
X8651D01*
X9051D02*
X9185D01*
X9251Y14130D01*
Y13930D01*
X9051D01*
X8985Y13997D01*
X9051Y14063D01*
X9251D01*
X9385Y13930D02*
X9518D01*
X9451D01*
Y14330D01*
X9385D01*
X10118Y13930D02*
X10251D01*
X10184D01*
Y14197D01*
X10118D01*
X10451Y13930D02*
Y14197D01*
X10518D01*
X10584Y14130D01*
Y13930D01*
Y14130D01*
X10651Y14197D01*
X10717Y14130D01*
Y13930D01*
X10851Y13797D02*
Y14197D01*
X11051D01*
X11117Y14130D01*
Y13997D01*
X11051Y13930D01*
X10851D01*
X11451D02*
X11317D01*
X11251Y13997D01*
Y14130D01*
X11317Y14197D01*
X11451D01*
X11517Y14130D01*
Y14063D01*
X11251D01*
X11917Y14330D02*
Y13930D01*
X11717D01*
X11651Y13997D01*
Y14130D01*
X11717Y14197D01*
X11917D01*
X12117D02*
X12250D01*
X12317Y14130D01*
Y13930D01*
X12117D01*
X12050Y13997D01*
X12117Y14063D01*
X12317D01*
X12450Y13930D02*
Y14197D01*
X12650D01*
X12717Y14130D01*
Y13930D01*
X13117Y14197D02*
X12917D01*
X12850Y14130D01*
Y13997D01*
X12917Y13930D01*
X13117D01*
X13450D02*
X13317D01*
X13250Y13997D01*
Y14130D01*
X13317Y14197D01*
X13450D01*
X13517Y14130D01*
Y14063D01*
X13250D01*
D229*
X13051Y13270D02*
G03*
X12990Y13296I-61J-61D01*
G01*
D02*
G03*
X12929Y13270I0J-87D01*
G01*
X12929D02*
G03*
X12904Y13209I61J-61D01*
G01*
X14661Y11661D02*
G03*
X14660Y11661I-73J-72D01*
G01*
X15160Y11308D02*
G03*
X15176Y11307I16J390D01*
G01*
X14939Y11388D02*
G03*
X15160Y11308I238J310D01*
G01*
X14900Y11422D02*
G03*
X14939Y11388I276J276D01*
G01*
X14845Y11738D02*
G03*
X15066Y11646I221J221D01*
G01*
X12904Y13567D02*
G03*
X12929Y13506I87J0D01*
G01*
X12929Y13506D02*
G03*
X12990Y13481I61J61D01*
G01*
X13182Y13402D02*
G03*
X12991Y13481I-191J-191D01*
G01*
X12929Y13270D02*
X12929Y13270D01*
X12904Y13045D02*
Y13209D01*
Y13567D02*
Y13732D01*
X14661Y11661D02*
X14900Y11422D01*
X14660Y11661D02*
X14661Y11661D01*
X15066Y11646D02*
X15176D01*
X12990Y13481D02*
X12991D01*
X13051Y13270D02*
X14660Y11661D01*
X13182Y13402D02*
X14845Y11738D01*
M02*
