G04*
G04 #@! TF.GenerationSoftware,Altium Limited,Altium Designer,21.4.1 (30)*
G04*
G04 Layer_Color=8421504*
%FSLAX24Y24*%
%MOIN*%
G70*
G04*
G04 #@! TF.SameCoordinates,5CBE21F3-A45B-47EA-B0B1-B143E6338599*
G04*
G04*
G04 #@! TF.FilePolarity,Positive*
G04*
G01*
G75*
%ADD32O,0.0787X0.0591*%
G04:AMPARAMS|DCode=33|XSize=43.3mil|YSize=39.4mil|CornerRadius=3mil|HoleSize=0mil|Usage=FLASHONLY|Rotation=180.000|XOffset=0mil|YOffset=0mil|HoleType=Round|Shape=RoundedRectangle|*
%AMROUNDEDRECTD33*
21,1,0.0433,0.0335,0,0,180.0*
21,1,0.0374,0.0394,0,0,180.0*
1,1,0.0059,-0.0187,0.0167*
1,1,0.0059,0.0187,0.0167*
1,1,0.0059,0.0187,-0.0167*
1,1,0.0059,-0.0187,-0.0167*
%
%ADD33ROUNDEDRECTD33*%
%ADD34O,0.0591X0.0787*%
%ADD35R,0.0551X0.0197*%
%ADD36R,0.0138X0.0098*%
%ADD37R,0.0138X0.0118*%
%ADD38R,0.0366X0.0445*%
%ADD39R,0.0138X0.0098*%
%ADD40R,0.0138X0.0138*%
%ADD41R,0.0315X0.0118*%
%ADD42R,0.0197X0.0148*%
%ADD43R,0.0197X0.0236*%
%ADD44R,0.0256X0.0197*%
%ADD45R,0.0138X0.0059*%
%ADD46R,0.0108X0.0118*%
%ADD47R,0.0500X0.0300*%
%ADD48R,0.1000X0.1051*%
%ADD49R,0.0394X0.0630*%
%ADD50O,0.0551X0.0177*%
%ADD51C,0.0087*%
%ADD52O,0.0071X0.0240*%
%ADD53O,0.0240X0.0071*%
%ADD54R,0.0453X0.0177*%
%ADD55R,0.1083X0.0551*%
%ADD56R,0.0217X0.0236*%
%ADD57R,0.1252X0.0500*%
%ADD58R,0.0118X0.0315*%
%ADD59R,0.0236X0.1024*%
%ADD60R,0.0335X0.0236*%
%ADD61R,0.0335X0.0394*%
%ADD62R,0.0315X0.0295*%
%ADD63R,0.0472X0.0630*%
%ADD64R,0.1500X0.0500*%
%ADD65R,0.0402X0.0862*%
%ADD66R,0.0472X0.0787*%
%ADD67R,0.0236X0.0335*%
%ADD68R,0.0394X0.0335*%
%ADD69R,0.0531X0.0157*%
%ADD70R,0.0610X0.0748*%
%ADD71R,0.0551X0.0630*%
%ADD72C,0.0394*%
%ADD73R,0.0236X0.0197*%
%ADD74R,0.0299X0.0945*%
%ADD75R,0.0295X0.0315*%
%ADD76R,0.0709X0.0472*%
%ADD77R,0.0610X0.0236*%
%ADD78R,0.0098X0.0157*%
%ADD79R,0.0276X0.0157*%
%ADD80R,0.0138X0.0354*%
%ADD81R,0.0394X0.0709*%
%ADD82R,0.1909X0.1909*%
%ADD83C,0.0118*%
%ADD84R,0.0315X0.0295*%
%ADD85R,0.0228X0.0197*%
%ADD86R,0.0433X0.0551*%
%ADD87R,0.1063X0.0315*%
%ADD88R,0.0362X0.0280*%
%ADD89R,0.0217X0.0165*%
%ADD90R,0.0138X0.0059*%
%ADD91R,0.0138X0.0098*%
%ADD92R,0.0098X0.0142*%
%ADD93R,0.0300X0.0320*%
%ADD94R,0.0118X0.0106*%
%ADD95R,0.0280X0.0362*%
%ADD96R,0.0165X0.0217*%
%ADD97R,0.0106X0.0118*%
%ADD98C,0.0093*%
%ADD99R,0.0335X0.0374*%
%ADD100C,0.0098*%
%ADD101C,0.0167*%
%ADD102R,0.0551X0.0236*%
%ADD103R,0.0669X0.0236*%
%ADD104R,0.0197X0.0256*%
%ADD105R,0.0630X0.0551*%
%ADD106R,0.0748X0.0610*%
%ADD107R,0.0157X0.0531*%
%ADD108R,0.0945X0.0299*%
%ADD109R,0.0236X0.0217*%
%ADD110R,0.0354X0.0138*%
%ADD111R,0.0374X0.0335*%
G36*
X11334Y8518D02*
Y8282D01*
X11078Y8026D01*
X10291D01*
X10035Y8282D01*
Y8518D01*
X10291Y8774D01*
X11078D01*
X11334Y8518D01*
D02*
G37*
D32*
X765Y13799D02*
D03*
Y11201D02*
D03*
D33*
X15901Y11113D02*
D03*
X15389D02*
D03*
X14877D02*
D03*
X14366D02*
D03*
Y11585D02*
D03*
X14877D02*
D03*
X15389D02*
D03*
X15901D02*
D03*
X14366Y12058D02*
D03*
X14877D02*
D03*
X15389D02*
D03*
X15901D02*
D03*
X14366Y12530D02*
D03*
X14877D02*
D03*
X15389D02*
D03*
X15901D02*
D03*
D34*
X36626Y1400D02*
D03*
X34027D02*
D03*
D35*
X4860Y10655D02*
D03*
Y10025D02*
D03*
D36*
X4360Y10399D02*
D03*
Y10596D02*
D03*
Y10793D02*
D03*
X5360D02*
D03*
Y10596D02*
D03*
Y10399D02*
D03*
D37*
X5360Y9887D02*
D03*
Y10143D02*
D03*
X4360D02*
D03*
Y9887D02*
D03*
D38*
X45295Y8796D02*
D03*
Y9320D02*
D03*
Y9844D02*
D03*
X44850Y8796D02*
D03*
Y9320D02*
D03*
Y9844D02*
D03*
X44405Y8796D02*
D03*
Y9320D02*
D03*
Y9844D02*
D03*
D39*
X8544Y8157D02*
D03*
Y7960D02*
D03*
Y7763D02*
D03*
X7776D02*
D03*
Y7960D02*
D03*
D40*
Y8177D02*
D03*
D41*
X8160Y7783D02*
D03*
X8160Y8137D02*
D03*
D42*
X8160Y7758D02*
D03*
Y8162D02*
D03*
D43*
X49379Y15132D02*
D03*
Y15526D02*
D03*
X50937Y15631D02*
D03*
Y15238D02*
D03*
X14061Y14312D02*
D03*
Y13918D02*
D03*
X47718Y17407D02*
D03*
Y17013D02*
D03*
X46318Y17013D02*
D03*
Y17407D02*
D03*
X45468Y12989D02*
D03*
Y12595D02*
D03*
X46531Y12989D02*
D03*
Y12595D02*
D03*
X45606Y17015D02*
D03*
Y17408D02*
D03*
X41884Y15374D02*
D03*
Y14980D02*
D03*
X48256Y15133D02*
D03*
Y15527D02*
D03*
X47606Y16007D02*
D03*
Y15613D02*
D03*
X47132Y15115D02*
D03*
Y15509D02*
D03*
D44*
X47879Y15112D02*
D03*
X47505Y15112D02*
D03*
X609Y9967D02*
D03*
X983D02*
D03*
X44041Y17714D02*
D03*
X43667D02*
D03*
X2012Y14856D02*
D03*
X2386D02*
D03*
D45*
X5360Y10793D02*
D03*
Y10596D02*
D03*
Y10399D02*
D03*
X4360D02*
D03*
Y10596D02*
D03*
Y10793D02*
D03*
D46*
X5360Y10143D02*
D03*
Y9887D02*
D03*
X4360D02*
D03*
Y10143D02*
D03*
D47*
X7680Y9810D02*
D03*
D48*
Y10736D02*
D03*
D49*
X8809Y872D02*
D03*
X8120D02*
D03*
X7431D02*
D03*
Y2328D02*
D03*
X8120D02*
D03*
X8809D02*
D03*
X33189Y16797D02*
D03*
X31811D02*
D03*
X32500Y17703D02*
D03*
X17067Y8130D02*
D03*
X18445D02*
D03*
X17756Y7224D02*
D03*
D50*
X10981Y9766D02*
D03*
Y10022D02*
D03*
Y10278D02*
D03*
Y10534D02*
D03*
X8659Y9766D02*
D03*
Y10022D02*
D03*
Y10278D02*
D03*
Y10534D02*
D03*
D51*
X11937Y6687D02*
D03*
X11779D02*
D03*
X11937Y6845D02*
D03*
X11779D02*
D03*
X10899Y12029D02*
D03*
Y11871D02*
D03*
X10741Y12029D02*
D03*
Y11871D02*
D03*
X42340Y20817D02*
D03*
X42497D02*
D03*
X42340Y20660D02*
D03*
X42497D02*
D03*
X8149Y6211D02*
D03*
X7991D02*
D03*
X8149Y6369D02*
D03*
X7991D02*
D03*
X8149Y5656D02*
D03*
X7991D02*
D03*
X8149Y5814D02*
D03*
X7991D02*
D03*
X8149Y5101D02*
D03*
X7991D02*
D03*
X8149Y5259D02*
D03*
X7991D02*
D03*
X9991Y7119D02*
D03*
X10149D02*
D03*
X9991Y6961D02*
D03*
X10149D02*
D03*
X9101Y7119D02*
D03*
X9259D02*
D03*
X9101Y6961D02*
D03*
X9259D02*
D03*
D52*
X28874Y7435D02*
D03*
X29031D02*
D03*
X29189D02*
D03*
X29346D02*
D03*
Y8085D02*
D03*
X29189D02*
D03*
X29031D02*
D03*
X28874D02*
D03*
X36436Y9782D02*
D03*
X36279D02*
D03*
X36121D02*
D03*
X35964D02*
D03*
Y8818D02*
D03*
X36121D02*
D03*
X36279D02*
D03*
X36436D02*
D03*
X23776Y6828D02*
D03*
X23619D02*
D03*
X23461D02*
D03*
X23304D02*
D03*
Y7792D02*
D03*
X23461D02*
D03*
X23619D02*
D03*
X23776D02*
D03*
X32024Y8085D02*
D03*
X32181D02*
D03*
X32339D02*
D03*
X32496D02*
D03*
Y7435D02*
D03*
X32339D02*
D03*
X32181D02*
D03*
X32024D02*
D03*
D53*
X29592Y7524D02*
D03*
Y7681D02*
D03*
Y7839D02*
D03*
Y7996D02*
D03*
X28628D02*
D03*
Y7839D02*
D03*
Y7681D02*
D03*
Y7524D02*
D03*
X36525Y9064D02*
D03*
Y9221D02*
D03*
Y9379D02*
D03*
Y9536D02*
D03*
X35875D02*
D03*
Y9379D02*
D03*
Y9221D02*
D03*
Y9064D02*
D03*
X23215Y7074D02*
D03*
Y7231D02*
D03*
Y7389D02*
D03*
Y7546D02*
D03*
X23865D02*
D03*
Y7389D02*
D03*
Y7231D02*
D03*
Y7074D02*
D03*
X31778Y7524D02*
D03*
Y7681D02*
D03*
Y7839D02*
D03*
Y7996D02*
D03*
X32742D02*
D03*
Y7839D02*
D03*
Y7681D02*
D03*
Y7524D02*
D03*
D54*
X45941Y8570D02*
D03*
Y9070D02*
D03*
Y9570D02*
D03*
Y10070D02*
D03*
X43759Y8570D02*
D03*
Y9070D02*
D03*
Y9570D02*
D03*
Y10070D02*
D03*
D55*
X31759Y985D02*
D03*
Y2560D02*
D03*
X29101Y985D02*
D03*
Y2560D02*
D03*
X44307Y2560D02*
D03*
Y985D02*
D03*
X46964Y2560D02*
D03*
Y985D02*
D03*
X40267Y2560D02*
D03*
Y985D02*
D03*
X42924Y2560D02*
D03*
Y985D02*
D03*
X46964Y4657D02*
D03*
Y6232D02*
D03*
X44307Y4657D02*
D03*
Y6232D02*
D03*
X42924Y4657D02*
D03*
Y6232D02*
D03*
X40267Y4657D02*
D03*
Y6232D02*
D03*
D56*
X48900Y8947D02*
D03*
Y8553D02*
D03*
X6430Y20327D02*
D03*
Y19933D02*
D03*
X49290Y8553D02*
D03*
Y8947D02*
D03*
X6430Y16742D02*
D03*
Y17136D02*
D03*
D57*
X4650Y17429D02*
D03*
Y16429D02*
D03*
Y8090D02*
D03*
Y7090D02*
D03*
Y20657D02*
D03*
Y19657D02*
D03*
D58*
X49487Y3673D02*
D03*
X48700D02*
D03*
X48897D02*
D03*
X49094D02*
D03*
X49290D02*
D03*
D59*
X48346Y2767D02*
D03*
X49842D02*
D03*
D60*
X35611Y4445D02*
D03*
Y3697D02*
D03*
X34804D02*
D03*
D61*
Y4366D02*
D03*
D62*
X36466Y4706D02*
D03*
Y4175D02*
D03*
X43381Y13127D02*
D03*
Y12595D02*
D03*
X43667Y16769D02*
D03*
Y17300D02*
D03*
X13480Y14471D02*
D03*
Y13940D02*
D03*
X13037D02*
D03*
Y14471D02*
D03*
X20374Y16230D02*
D03*
Y15699D02*
D03*
X42367Y12595D02*
D03*
Y13127D02*
D03*
X42919Y12595D02*
D03*
Y13127D02*
D03*
X43844Y12310D02*
D03*
Y12841D02*
D03*
X3970Y9724D02*
D03*
Y10256D02*
D03*
X3500Y9724D02*
D03*
Y10256D02*
D03*
X44307Y12310D02*
D03*
Y12841D02*
D03*
D63*
X7775Y15711D02*
D03*
X8563Y14609D02*
D03*
X7775D02*
D03*
X10137D02*
D03*
X10925D02*
D03*
X8563Y15711D02*
D03*
X10137D02*
D03*
X10925D02*
D03*
D64*
X38375Y14000D02*
D03*
X36625D02*
D03*
X38375Y16000D02*
D03*
X36625D02*
D03*
X38375Y17000D02*
D03*
X36625D02*
D03*
X38375Y18000D02*
D03*
X36625D02*
D03*
X38375Y19000D02*
D03*
X36625D02*
D03*
X38375Y20000D02*
D03*
X36625D02*
D03*
X38375Y21000D02*
D03*
X36625D02*
D03*
Y15000D02*
D03*
X38375D02*
D03*
X36625Y13000D02*
D03*
X38375D02*
D03*
X26425Y12000D02*
D03*
X24675D02*
D03*
X26425Y13000D02*
D03*
X24675D02*
D03*
X26425Y14000D02*
D03*
X24675D02*
D03*
D65*
X31000Y21423D02*
D03*
Y22577D02*
D03*
X27000Y21423D02*
D03*
X30000D02*
D03*
X29000Y21423D02*
D03*
X34000Y21423D02*
D03*
X33000D02*
D03*
X27000Y22577D02*
D03*
X30000D02*
D03*
X29000D02*
D03*
X34000D02*
D03*
X33000D02*
D03*
X28000Y21423D02*
D03*
X32000D02*
D03*
X28000Y22577D02*
D03*
X32000D02*
D03*
X7400Y21423D02*
D03*
X13400D02*
D03*
X7400Y22577D02*
D03*
X13400D02*
D03*
X8400Y21423D02*
D03*
X9400Y21423D02*
D03*
X11400D02*
D03*
X12400D02*
D03*
X15400D02*
D03*
X16400D02*
D03*
X8400Y22577D02*
D03*
X9400D02*
D03*
X11400D02*
D03*
X12400D02*
D03*
X15400D02*
D03*
X16400D02*
D03*
X10400Y21423D02*
D03*
X14400Y21423D02*
D03*
X10400Y22577D02*
D03*
X14400D02*
D03*
X14000Y3577D02*
D03*
Y2423D02*
D03*
X18000Y3577D02*
D03*
X15000D02*
D03*
X16000Y3577D02*
D03*
X11000Y3577D02*
D03*
X12000D02*
D03*
X18000Y2423D02*
D03*
X15000D02*
D03*
X16000D02*
D03*
X11000D02*
D03*
X12000D02*
D03*
X17000Y3577D02*
D03*
X13000D02*
D03*
X17000Y2423D02*
D03*
X13000D02*
D03*
X23000Y3577D02*
D03*
X23000Y2423D02*
D03*
X25000Y3577D02*
D03*
X24000D02*
D03*
X21000D02*
D03*
X20000D02*
D03*
X25000Y2423D02*
D03*
X24000D02*
D03*
X21000D02*
D03*
X20000D02*
D03*
X22000Y3577D02*
D03*
Y2423D02*
D03*
X15400Y18577D02*
D03*
Y17423D02*
D03*
X16400Y18577D02*
D03*
Y17423D02*
D03*
X7400D02*
D03*
Y18577D02*
D03*
X11400D02*
D03*
Y17423D02*
D03*
X12400Y18577D02*
D03*
Y17423D02*
D03*
X10400Y18577D02*
D03*
Y17423D02*
D03*
X9400Y18577D02*
D03*
Y17423D02*
D03*
X8400D02*
D03*
Y18577D02*
D03*
X14400Y17423D02*
D03*
Y18577D02*
D03*
X13400Y17423D02*
D03*
Y18577D02*
D03*
X17400Y17423D02*
D03*
Y18577D02*
D03*
X18400Y17423D02*
D03*
Y18577D02*
D03*
X19400Y17423D02*
D03*
Y18577D02*
D03*
X23000Y22577D02*
D03*
X19000D02*
D03*
X23000Y21423D02*
D03*
X19000D02*
D03*
X24000Y22577D02*
D03*
X25000D02*
D03*
X20000D02*
D03*
X21000D02*
D03*
X18000D02*
D03*
X24000Y21423D02*
D03*
X25000D02*
D03*
X20000Y21423D02*
D03*
X21000Y21423D02*
D03*
X18000D02*
D03*
X22000Y22577D02*
D03*
Y21423D02*
D03*
D66*
X3160Y3193D02*
D03*
X1192D02*
D03*
X2176D02*
D03*
Y1027D02*
D03*
X1192D02*
D03*
X3160D02*
D03*
X40106Y23913D02*
D03*
X42074D02*
D03*
X41090D02*
D03*
Y21747D02*
D03*
X42074D02*
D03*
X40106D02*
D03*
D67*
X3600Y12226D02*
D03*
X2852D02*
D03*
Y13034D02*
D03*
D68*
X3521D02*
D03*
D69*
X1818Y12500D02*
D03*
Y12756D02*
D03*
Y13012D02*
D03*
Y12244D02*
D03*
Y11988D02*
D03*
D70*
X765Y12972D02*
D03*
Y12028D02*
D03*
D71*
X1730Y11240D02*
D03*
Y13760D02*
D03*
D72*
X50973Y23600D02*
D03*
X5411Y1120D02*
D03*
D73*
X49303Y8137D02*
D03*
X49697D02*
D03*
X47860Y14023D02*
D03*
X47466D02*
D03*
X42844Y15927D02*
D03*
X43238D02*
D03*
X44213Y16710D02*
D03*
X44607D02*
D03*
X14956Y14107D02*
D03*
X14563D02*
D03*
X15862Y13800D02*
D03*
X15468D02*
D03*
X16639Y13800D02*
D03*
X16246D02*
D03*
X14818Y13763D02*
D03*
X14425D02*
D03*
X46216Y16601D02*
D03*
X46610D02*
D03*
X42637Y14587D02*
D03*
X43031D02*
D03*
X48877Y8137D02*
D03*
X48483D02*
D03*
X47308Y16355D02*
D03*
X47702D02*
D03*
D74*
X33500Y10232D02*
D03*
X33000D02*
D03*
X32500D02*
D03*
X32000D02*
D03*
X31500D02*
D03*
X33500Y11768D02*
D03*
X33000D02*
D03*
X32500D02*
D03*
X32000D02*
D03*
X31500D02*
D03*
D75*
X4192Y11440D02*
D03*
X3660D02*
D03*
X33434Y3700D02*
D03*
X33966D02*
D03*
X42791Y16317D02*
D03*
X43322D02*
D03*
X44149Y17119D02*
D03*
X44681D02*
D03*
X5226Y9280D02*
D03*
X4694D02*
D03*
X6886Y7070D02*
D03*
X6354D02*
D03*
D76*
X484Y4203D02*
D03*
Y5857D02*
D03*
D77*
X2010Y4833D02*
D03*
Y5227D02*
D03*
D78*
X13268Y7264D02*
D03*
X13445D02*
D03*
X16093Y9843D02*
D03*
X16270D02*
D03*
X13907Y6988D02*
D03*
X13730D02*
D03*
X16880Y10866D02*
D03*
X17057D02*
D03*
X14021Y5782D02*
D03*
X14199D02*
D03*
D79*
X13356Y6988D02*
D03*
X16181Y9567D02*
D03*
X13819Y7264D02*
D03*
X16968Y11142D02*
D03*
X14110Y6058D02*
D03*
D80*
X9394Y3726D02*
D03*
X9650D02*
D03*
X9906D02*
D03*
Y4474D02*
D03*
X9394D02*
D03*
X8786Y4474D02*
D03*
X8530D02*
D03*
X8274D02*
D03*
Y3726D02*
D03*
X8530D02*
D03*
X8786D02*
D03*
X7666D02*
D03*
X7410D02*
D03*
X7154D02*
D03*
Y4474D02*
D03*
X7410D02*
D03*
X7666D02*
D03*
D81*
X42292Y15167D02*
D03*
X43276D02*
D03*
D82*
X45340Y14810D02*
D03*
D83*
X46423Y13530D02*
D03*
X46226D02*
D03*
X46029D02*
D03*
X45832D02*
D03*
X45635D02*
D03*
X45438D02*
D03*
X45242D02*
D03*
X45045D02*
D03*
X44848D02*
D03*
X44651D02*
D03*
X44454D02*
D03*
X44257D02*
D03*
X46620Y13727D02*
D03*
X46127D02*
D03*
X45931D02*
D03*
X45734D02*
D03*
X45537D02*
D03*
X45340D02*
D03*
X45143D02*
D03*
X44946D02*
D03*
X44553D02*
D03*
X44257Y13826D02*
D03*
X46620Y13924D02*
D03*
X46423Y14023D02*
D03*
X44257D02*
D03*
X46620Y14121D02*
D03*
X44060D02*
D03*
X46423Y14219D02*
D03*
X46620Y14318D02*
D03*
X44060D02*
D03*
X46423Y14416D02*
D03*
X44257D02*
D03*
X46620Y14515D02*
D03*
X44060D02*
D03*
X46423Y14613D02*
D03*
X44257D02*
D03*
X46620Y14712D02*
D03*
X44060D02*
D03*
X44257Y14810D02*
D03*
X46620Y14908D02*
D03*
X44060D02*
D03*
X44257Y15007D02*
D03*
X46620Y15105D02*
D03*
X44060D02*
D03*
X46423Y15204D02*
D03*
X44257D02*
D03*
X44060Y15302D02*
D03*
X46423Y15401D02*
D03*
X44257D02*
D03*
X46620Y15499D02*
D03*
X44257Y15597D02*
D03*
X44060Y15696D02*
D03*
X46423Y15597D02*
D03*
X46620Y15893D02*
D03*
X45931D02*
D03*
X45734D02*
D03*
X45537D02*
D03*
X45340D02*
D03*
X45143D02*
D03*
X44946D02*
D03*
X44749D02*
D03*
X44553D02*
D03*
X44356D02*
D03*
X44060D02*
D03*
X46423Y16090D02*
D03*
X46029D02*
D03*
X45832D02*
D03*
X45635D02*
D03*
X45438D02*
D03*
X45242D02*
D03*
X45045D02*
D03*
X44848D02*
D03*
X46226D02*
D03*
D84*
X49793Y14711D02*
D03*
Y15518D02*
D03*
X50541D02*
D03*
Y14711D02*
D03*
D85*
X49710Y15115D02*
D03*
X50623D02*
D03*
D86*
X8605Y8970D02*
D03*
X8015D02*
D03*
D87*
X6850Y8413D02*
D03*
Y7547D02*
D03*
X6340Y9777D02*
D03*
Y10643D02*
D03*
D88*
X5480Y4783D02*
D03*
Y5157D02*
D03*
X5950Y15437D02*
D03*
Y15063D02*
D03*
D89*
X5852Y5226D02*
D03*
Y4970D02*
D03*
Y4714D02*
D03*
X5108D02*
D03*
Y4970D02*
D03*
Y5226D02*
D03*
X5578Y15506D02*
D03*
Y15250D02*
D03*
Y14994D02*
D03*
X6322D02*
D03*
Y15250D02*
D03*
Y15506D02*
D03*
D90*
X8544Y8157D02*
D03*
Y7960D02*
D03*
Y7763D02*
D03*
X7776D02*
D03*
Y7960D02*
D03*
D91*
Y8177D02*
D03*
D92*
X10010Y11553D02*
D03*
Y11884D02*
D03*
X9370D02*
D03*
Y11553D02*
D03*
X9050Y11884D02*
D03*
Y11553D02*
D03*
X9690Y11884D02*
D03*
Y11553D02*
D03*
D93*
X46033Y19727D02*
D03*
X46583D02*
D03*
X15330Y8888D02*
D03*
X14780D02*
D03*
X44083Y21227D02*
D03*
X43533D02*
D03*
X46583D02*
D03*
X46033D02*
D03*
X44083Y19727D02*
D03*
X43533D02*
D03*
D94*
X40710Y15302D02*
D03*
Y15078D02*
D03*
X12687Y13835D02*
D03*
Y14059D02*
D03*
X14409Y9000D02*
D03*
Y8776D02*
D03*
X22589Y15213D02*
D03*
Y15437D02*
D03*
X14449Y9789D02*
D03*
Y10014D02*
D03*
X16949Y13530D02*
D03*
Y13754D02*
D03*
X13362Y12820D02*
D03*
Y12595D02*
D03*
X15576Y10014D02*
D03*
Y9790D02*
D03*
X14730Y10014D02*
D03*
Y9790D02*
D03*
X13372Y10950D02*
D03*
Y10725D02*
D03*
X15235Y14874D02*
D03*
Y14649D02*
D03*
X15015Y14874D02*
D03*
Y14649D02*
D03*
X14575Y14874D02*
D03*
Y14649D02*
D03*
X14795Y14874D02*
D03*
Y14649D02*
D03*
X13455Y8055D02*
D03*
Y7831D02*
D03*
X13819Y7831D02*
D03*
Y8055D02*
D03*
X41070Y15078D02*
D03*
Y15302D02*
D03*
X20460Y18132D02*
D03*
Y17908D02*
D03*
X40710Y14812D02*
D03*
Y14588D02*
D03*
X41070Y14812D02*
D03*
Y14588D02*
D03*
X14500Y5922D02*
D03*
Y5698D02*
D03*
X4630Y4632D02*
D03*
Y4408D02*
D03*
X12830Y15252D02*
D03*
Y15028D02*
D03*
X3939Y5382D02*
D03*
Y5158D02*
D03*
X4149D02*
D03*
Y5382D02*
D03*
X3090Y9998D02*
D03*
Y10222D02*
D03*
X2800Y9668D02*
D03*
Y9892D02*
D03*
X25400Y10758D02*
D03*
Y10982D02*
D03*
X37173Y1433D02*
D03*
Y1209D02*
D03*
X6740Y15342D02*
D03*
Y15118D02*
D03*
X37400Y23478D02*
D03*
Y23702D02*
D03*
X31020Y17312D02*
D03*
Y17088D02*
D03*
X2520Y9678D02*
D03*
Y9902D02*
D03*
X32765Y3137D02*
D03*
Y2913D02*
D03*
X37443Y1433D02*
D03*
Y1209D02*
D03*
X36076Y4428D02*
D03*
Y4653D02*
D03*
X33463Y2778D02*
D03*
Y3003D02*
D03*
X23460Y6372D02*
D03*
Y6148D02*
D03*
X7650Y5678D02*
D03*
Y5902D02*
D03*
D95*
X8849Y5652D02*
D03*
X9223D02*
D03*
D96*
X9292Y5280D02*
D03*
X9036D02*
D03*
X8780D02*
D03*
Y6024D02*
D03*
X9036D02*
D03*
X9292D02*
D03*
D97*
X18352Y15807D02*
D03*
X18577D02*
D03*
X13366Y11684D02*
D03*
X13141D02*
D03*
X17041Y12462D02*
D03*
X16817D02*
D03*
X17041Y10640D02*
D03*
X16817D02*
D03*
X13449Y7549D02*
D03*
X13224D02*
D03*
X15540Y13514D02*
D03*
X15765D02*
D03*
X17041Y9882D02*
D03*
X16817D02*
D03*
X17041Y9646D02*
D03*
X16817D02*
D03*
X16817Y11950D02*
D03*
X17041D02*
D03*
Y12792D02*
D03*
X16817D02*
D03*
X17041Y12212D02*
D03*
X16817D02*
D03*
X17041Y10354D02*
D03*
X16817D02*
D03*
X17041Y10118D02*
D03*
X16817D02*
D03*
X12388Y15520D02*
D03*
X12612D02*
D03*
X34672Y5890D02*
D03*
X34448D02*
D03*
X31772Y8560D02*
D03*
X31548D02*
D03*
X32528D02*
D03*
X32752D02*
D03*
X13398Y5810D02*
D03*
X13622D02*
D03*
X10092Y1820D02*
D03*
X9868D02*
D03*
X11312Y6540D02*
D03*
X11088D02*
D03*
X5841Y5591D02*
D03*
X5616D02*
D03*
X7878Y7120D02*
D03*
X8102D02*
D03*
X7388Y7120D02*
D03*
X7612D02*
D03*
X616Y10590D02*
D03*
X841D02*
D03*
X32100Y5561D02*
D03*
X31876D02*
D03*
X47311Y19727D02*
D03*
X47086D02*
D03*
X44821D02*
D03*
X44596D02*
D03*
X47311Y21227D02*
D03*
X47086D02*
D03*
X44821D02*
D03*
X44596D02*
D03*
X5872Y14540D02*
D03*
X5648D02*
D03*
X41398Y20990D02*
D03*
X41622D02*
D03*
X8528Y3310D02*
D03*
X8752D02*
D03*
X10028Y5070D02*
D03*
X10252D02*
D03*
X9408Y4890D02*
D03*
X9632D02*
D03*
X7408Y3310D02*
D03*
X7632D02*
D03*
X7398Y6900D02*
D03*
X7622D02*
D03*
X10952Y11100D02*
D03*
X10728D02*
D03*
X5958D02*
D03*
X6182D02*
D03*
X2084Y15197D02*
D03*
X2308D02*
D03*
X616Y10310D02*
D03*
X841D02*
D03*
X3634Y11840D02*
D03*
X3858D02*
D03*
X2662Y14520D02*
D03*
X2438D02*
D03*
X35902Y8430D02*
D03*
X35678D02*
D03*
X43788Y8050D02*
D03*
X44012D02*
D03*
X31262Y7860D02*
D03*
X31038D02*
D03*
X28102Y7950D02*
D03*
X27878D02*
D03*
X8972Y4890D02*
D03*
X8748D02*
D03*
D98*
X21043Y16319D02*
D03*
Y16161D02*
D03*
X20886Y16319D02*
D03*
Y16161D02*
D03*
X33514Y5030D02*
D03*
Y4872D02*
D03*
X33356Y5030D02*
D03*
Y4872D02*
D03*
D99*
X17037Y14951D02*
D03*
X16585D02*
D03*
Y14380D02*
D03*
X17037D02*
D03*
D100*
X13952Y12137D02*
D03*
Y10877D02*
D03*
X15921Y13081D02*
D03*
X16078Y10562D02*
D03*
X15921D02*
D03*
X16157Y10719D02*
D03*
Y12924D02*
D03*
X13795Y10798D02*
D03*
X15763Y10562D02*
D03*
X15606D02*
D03*
X15448D02*
D03*
X15291D02*
D03*
X15133D02*
D03*
X14976D02*
D03*
X14818D02*
D03*
X14661D02*
D03*
X14503D02*
D03*
X14346D02*
D03*
X14188D02*
D03*
X14031D02*
D03*
X16000Y10719D02*
D03*
X15842D02*
D03*
X15685D02*
D03*
X15527D02*
D03*
X15370D02*
D03*
X15212D02*
D03*
X15055D02*
D03*
X14897D02*
D03*
X14740D02*
D03*
X14582D02*
D03*
X14425D02*
D03*
X14267D02*
D03*
X14110D02*
D03*
X13952D02*
D03*
Y11034D02*
D03*
X13795Y10955D02*
D03*
Y11113D02*
D03*
X13952Y11192D02*
D03*
X16314Y11270D02*
D03*
X13795D02*
D03*
X13952Y11349D02*
D03*
X16314Y11428D02*
D03*
X13795D02*
D03*
X13952Y11507D02*
D03*
X16314Y11585D02*
D03*
X13795D02*
D03*
X13952Y11664D02*
D03*
X16314Y11743D02*
D03*
X13795D02*
D03*
X13952Y11822D02*
D03*
X16314Y11900D02*
D03*
X13795D02*
D03*
X13952Y11979D02*
D03*
X16314Y12058D02*
D03*
X13795D02*
D03*
X16314Y12215D02*
D03*
X13795D02*
D03*
X13952Y12294D02*
D03*
X16314Y12373D02*
D03*
X13795D02*
D03*
X13952Y12451D02*
D03*
X16314Y12530D02*
D03*
X13795D02*
D03*
X13952Y12609D02*
D03*
X16314Y12688D02*
D03*
X13795D02*
D03*
X13952Y12766D02*
D03*
X16314Y12845D02*
D03*
X13795D02*
D03*
X15527Y12924D02*
D03*
X15370D02*
D03*
X15212D02*
D03*
X15055D02*
D03*
X14897D02*
D03*
X14740D02*
D03*
X14582D02*
D03*
X14425D02*
D03*
X14267D02*
D03*
X14110D02*
D03*
X13952D02*
D03*
X15763Y13081D02*
D03*
X15606D02*
D03*
X15448D02*
D03*
X15291D02*
D03*
X15133D02*
D03*
X14976D02*
D03*
X14818D02*
D03*
X14188D02*
D03*
X15685Y12924D02*
D03*
X15842D02*
D03*
X16000D02*
D03*
X16314Y11113D02*
D03*
Y10955D02*
D03*
Y10798D02*
D03*
D101*
X13795Y13081D02*
D03*
Y10562D02*
D03*
X16314D02*
D03*
Y13081D02*
D03*
D102*
X9641Y8991D02*
D03*
Y7809D02*
D03*
D103*
X9700Y8400D02*
D03*
D104*
X37773Y1134D02*
D03*
Y1508D02*
D03*
X33113Y3077D02*
D03*
Y2703D02*
D03*
X36856Y4737D02*
D03*
Y4363D02*
D03*
X2336Y11143D02*
D03*
Y11517D02*
D03*
D105*
X34067Y2365D02*
D03*
X36586D02*
D03*
D106*
X35799Y1400D02*
D03*
X34854D02*
D03*
D107*
X35838Y2454D02*
D03*
X35582D02*
D03*
X34815D02*
D03*
X35071D02*
D03*
X35326D02*
D03*
D108*
X2298Y24140D02*
D03*
Y23640D02*
D03*
Y23140D02*
D03*
Y22640D02*
D03*
Y22140D02*
D03*
X762Y24140D02*
D03*
Y23640D02*
D03*
Y23140D02*
D03*
Y22640D02*
D03*
Y22140D02*
D03*
D109*
X48492Y9370D02*
D03*
X48885D02*
D03*
X49705D02*
D03*
X49312D02*
D03*
D110*
X10026Y5494D02*
D03*
Y6006D02*
D03*
X10774D02*
D03*
Y5750D02*
D03*
Y5494D02*
D03*
D111*
X46732Y16983D02*
D03*
Y17436D02*
D03*
X47303D02*
D03*
Y16983D02*
D03*
M02*
