M48
;Layer_Color=9474304
;FILE_FORMAT=2:4
INCH,TZ
;TYPE=PLATED
T2F00S00C0.0118
T3F00S00C0.0120
T5F00S00C0.0354
T6F00S00C0.0394
;TYPE=NON_PLATED
T7F00S00C0.0390
T8F00S00C0.0701
T9F00S00C0.1260
%
T02
X698Y285
X728Y1035
X1648
X1696Y1470
X2176Y1660
X2446Y2050
X2566Y2480
X2478Y3193
X1686Y3170
X659Y3232
Y2232
X1192Y1720
X1722Y315
X2636Y1130
X3659Y1232
X4010Y1290
X3659Y2232
X2659Y4232
X1659
X1410Y4790
X1420Y5250
X659Y5232
X490Y6500
X659Y7232
Y8232
X1659
Y7232
Y6232
X2050Y5630
X3290Y6040
X3370Y4990
X2659Y8232
Y9232
X659
X5460Y8880
X5920Y7410
X6360Y6690
X7040Y6640
X6970Y5374
X7070Y5070
X6240Y5390
X5340Y5490
X5170Y5840
X4260Y5800
X5870Y4480
X7220Y3310
X7430Y2770
X7020Y2460
X6659Y2232
Y1232
X6950Y880
X6697Y285
X7697
X8698
X9697
X9659Y1232
X9690Y2160
X10430Y2740
X11000Y3000
X12000
X11510Y2500
X12500
X13000Y3000
X14000
X15000
X15490Y2510
X16460Y2480
X17460Y2460
X18000Y3000
X18659Y3232
X19050Y2570
X19470Y2240
X18659Y1232
X18698Y285
X17520Y3490
X17659Y4232
X16659
X16500Y4500
X16470Y3520
X15530Y3530
X15659Y4232
X15330Y5164
X14760Y5100
X14440Y4684
X14140Y5500
X13659Y5232
X13183Y6293
X12268Y6296
X12159Y6855
X12060Y7370
X12430Y7360
X11600Y7620
X11100Y7440
X11000Y7780
X12150Y8420
X12630Y8940
X13686Y8790
Y8490
X13720Y8060
X13740Y7130
X15006Y7570
X15454Y7538
X15650Y7850
X16340
X16045Y7540
X16140Y8450
X17220
X17659Y8232
X17871Y8018
X17423Y7558
X19193
X19546Y7960
X18900Y8580
X17659Y9232
X14759Y9079
X15036Y8790
X15026Y8490
X13716Y9130
X14864Y6168
X15264
X16000Y6100
X16720Y6450
X16890Y5804
X17196Y5844
X17723
X18950Y6050
X18830Y6430
X19659Y6232
Y4232
X19050Y4470
X18500Y4500
X12500Y4710
X12490Y3910
X11510Y3930
X11388Y4557
X10430Y4580
X9230Y4890
X8318Y5428
X8850Y6710
X8659Y7232
X8320Y7430
X8010Y7440
X7490Y7960
X8000Y8500
X8320Y8480
X7450Y9010
X9700Y8680
X9252Y7352
X9570Y6970
X11690Y5900
X9140Y3350
X8340Y3310
X8002Y3927
X8120Y1350
X10500Y1500
Y500
X5698Y285
X4697
X4659Y1232
X4330Y2140
X20500Y2000
X21440
X22480
X23480
X24510
X25659Y2232
Y1232
X25698Y285
X26697
X27590Y290
X27659Y1232
X26659
X27659Y2232
X27880Y2870
X28698Y3255
X29390Y3060
X29830Y2300
X30659Y2232
Y1232
X30698Y285
X31697
X32698Y835
X32659Y1232
X32320Y1780
X32750Y2340
X33440Y2320
X33568Y1515
X33698Y835
X34700Y890
X34646Y2801
X34659Y3232
X33800Y3150
X34371Y3919
X32350Y3970
X31930Y3180
X30720Y3200
X30150Y3970
X30640Y5310
X30880Y5130
X31240Y5610
X31440Y6370
X31750Y6480
X31110Y6590
X30659Y6232
X29659
X29870Y5800
X28840Y5790
X28850Y5280
X28659Y6232
X28520Y6500
X28090Y6510
X27659Y6232
X27590Y5880
X27880Y5490
X27250Y4820
X27000Y6350
X26460Y6940
X26950Y7890
X27420Y7910
X27770Y8250
X28073Y8243
X28527Y8227
X28210Y8970
X30030Y8980
X30580Y8960
X30659Y8232
X31050Y8200
X31060Y8560
X31380Y9100
X32210Y8400
X32430Y7760
X33040Y7600
X33000Y8210
X33090Y8850
X33420Y8690
X33640Y7660
X32690Y7050
X32020Y7090
X31210Y7600
X30890Y7570
X29900Y7680
X27770Y7340
X24780Y7360
X24190Y6870
X23540Y7180
X23560Y7480
X23900Y8100
X24170Y7840
X22594Y7710
X22380Y7260
X22710Y6690
X23040Y6740
X23120Y6050
X21970Y5980
X20670Y5840
X20370Y6660
X20600Y7000
X20230Y7300
X19890Y6420
X20485Y4500
X20659Y4232
X20510Y3870
X21100Y4310
X21430Y4320
X21530Y4690
X22470Y4610
X23480Y4530
X24550Y4390
X24659Y5232
X24800Y5800
X25659Y6232
X25400Y9200
X22659Y9232
X21659
X20706Y9370
X20846Y8510
X21100Y8200
X22100Y8400
X22000Y3000
X21000
X20000
X23000
X24000
X25000
X28698Y285
X29697
X31910Y5210
X32342Y5557
X33250Y5880
X33100Y5020
X34960Y5470
X34900Y5900
X34659Y6232
X35310Y6700
X35170Y8450
X34980Y8890
X34310Y9090
X34430Y9370
X35580Y8700
X36610Y8840
X36240Y8100
Y7790
X36610Y7700
X37153Y7470
X37373Y7680
X37340Y9360
X37800Y9080
X38100Y9060
X38380Y9180
X38659Y7232
X39659
X39200Y6700
Y5950
X38900Y5850
X39190Y5170
X38659Y4232
X37659
X37270Y3980
X37190Y4760
X37450Y5150
X36476Y5059
X36466Y3830
X36148Y3503
X35838Y3022
X35700Y890
X36500Y850
X37170Y840
X37510
X37850
X38659Y1232
X38698Y285
X39330Y2330
X40659Y3232
X41659
Y4232
X40030Y3940
X42659Y3232
X43659
X44659
X45659
Y2232
Y1232
X45697Y285
X47698
X48608Y305
X49501Y285
X49659Y1232
X50098Y866
X50630Y1427
X50659Y2232
X51013Y1988
X50659Y3232
X50200Y2920
X49490Y3250
Y2270
X48659Y1232
X48320Y3970
X48430Y5450
X48410Y6700
X48450Y7820
X48340Y8490
X47299Y8865
X46998Y9075
X46772Y9291
X46555Y9065
X45856Y9331
X45659Y8232
Y7232
X46659
X46670Y7960
X47370Y7140
X46659Y5232
X45659
X44659
X42659
X42453Y7232
X41460Y7250
X41340Y7770
X41120Y7560
X41659Y8232
X42120Y8450
X42659Y8232
X43453
X44659
X44640Y7920
X44659Y7232
X43690Y6780
X45659Y6232
Y4232
X46659Y3232
X49659Y4232
Y5232
X49660Y5540
X49659Y6232
X49670Y6750
X50659Y7232
Y6232
Y5232
Y4232
Y8232
X50030Y8150
X49870Y8490
X50620Y8996
X39659Y8232
X41453Y6232
X37900Y5800
X41659Y2232
Y1232
X41698Y285
X51791Y2628
X52333Y3140
X52884Y3661
X53282Y4250
X53380Y5250
Y6250
Y7250
Y8250
Y9250
X52244Y8984
X51659Y9232
Y8232
X52244Y7984
Y6984
X51659Y7232
Y6232
X52244Y5984
Y4984
X51659Y5232
Y4232
X51161Y3750
X51659Y10232
X52244Y9984
Y11250
X51659Y11232
Y12232
X52244Y11984
Y12984
Y13484
Y13886
X51975Y13884
X51706Y13886
X51280Y14024
X51659Y13232
X53380Y13250
Y14250
X53065Y14526
X53177Y14980
X52686
X52327
X51969
X51606
X51348Y15871
X51122Y16142
X51706Y16068
X51975
X52244
X52244Y16484
Y16984
X52215Y17510
X52244Y18171
X51659Y18232
Y19232
X52244Y18984
Y19984
X51659Y20232
Y21033
X51112Y21624
X52244Y21984
X52888Y21250
X53380Y20827
Y20250
Y19250
Y18152
Y17250
Y16417
Y15417
X53065Y15447
X51659Y17232
X51142Y16791
X53380Y12250
Y11250
Y10250
X50856Y10744
Y9744
X49705Y9685
X49659Y10232
Y11232
X49754Y11565
Y11909
X49659Y12232
X50856Y11744
Y12744
X50571Y13819
X50049Y13661
X49793Y13898
X49518Y14193
X49272Y14400
X48873Y14715
X48903Y15597
X48931Y15918
X49326Y15910
X49274Y16359
X49273Y16663
X48927Y16782
X48659Y17232
X48066Y17034
X47985Y16349
X47826Y16011
X47906Y15608
X48221Y15837
X47909Y14741
X48165Y14013
X48150Y13340
X47830Y13570
X48659Y13232
X47760Y12320
Y11900
Y11480
Y11060
Y10640
Y10220
X47540Y10430
Y10850
Y11270
Y11690
Y12110
X47130Y12570
Y12940
X45750Y12520
X45840Y12130
X45470Y12290
X46060Y11760
X46340Y11640
X46511Y9857
X45950Y9742
X47254Y9685
X48487Y9636
X48808Y10020
X48583Y10430
X48278Y10220
X46049Y14101
Y14574
Y15046
Y15519
X45576
X45104
X44631
Y15046
X45104
X45576
Y14574
X45104
X44631
Y14101
X45104
X45576
X44510Y12640
X43381Y12301
X42919Y12251
X42407
X42690Y12910
X42394Y13487
X42013Y13127
X41950Y12740
X41289Y12825
X40709Y12274
X40770Y11930
X40550Y11710
X40660Y11430
X40272Y11350
X39690Y11710
X39410Y11830
X39320Y11360
X39020Y11350
X37880
X38040Y12510
X36450Y12280
X35780Y12000
X35680Y12500
X35781Y10209
X36140Y10210
X36190Y9480
X37580Y9550
X37860Y9680
X37827Y9380
X37350Y9970
X39760Y12080
X39530Y13590
Y14010
Y14430
Y14850
X39310Y15060
X39430Y15340
X39310Y14640
Y14220
Y13800
Y13380
X40190Y13970
X41530Y14940
Y15330
X41486Y16230
X42413Y16261
X42554Y15947
X42781Y15204
X42334Y14607
X43165Y16621
X44149Y16429
X44611Y16287
X44400Y17520
X44210Y18160
X43659Y18232
X43218Y17894
X45608Y17714
X46127Y17763
X46660Y17860
X46659Y18232
X47040Y18426
X47343Y18425
X47659Y18232
X46100Y18600
X45098Y19213
X45410Y21430
X45659Y21232
Y22232
X46659
Y23232
X47659
Y24232
X48659
Y23232
X49659
X49697Y22405
X50659Y22232
Y21232
X50167Y21329
X49659Y21232
X48307Y21063
Y20497
Y19931
X47368Y20140
X47348Y21757
X47610Y22160
X48550Y22300
X48396Y21614
X46240Y20659
X43950Y20850
X43150Y20550
X42900Y20920
X42579Y21250
X42600Y21850
X42659Y22232
X42920Y22620
X42659Y23232
X42130Y23130
X41659Y23232
X41560Y24050
X42659Y24232
X43659
X43710Y23230
X43860Y22260
X44659Y22232
X44858Y21760
X42057Y21988
X41590Y21400
X41770Y20590
X42070Y20600
X40994Y20384
Y20076
X40561Y20463
X40768Y20758
X40650Y21102
X40600Y21600
X39620Y21800
X38640Y21440
X38340Y21490
X38659Y22232
Y23232
X39659
X39697Y24255
X38659Y24232
X37659
X35698Y24255
X35659Y23232
X36300Y23430
X37659Y22232
X37270Y21700
X39330Y20530
X40080Y20560
X40030Y18903
X40310Y18783
X40590Y18663
X40750Y18403
Y18103
X39310Y18270
X39250Y18620
X38160Y18510
X36930Y18520
X36570Y18500
X36340Y17500
X36190Y16510
X35900Y15510
X37890Y14500
X39449Y16841
X46029Y16956
X46541Y16306
X47289Y16651
X50039Y16319
X50030Y17136
X50955Y17707
Y18707
Y19707
X50659Y20232
X50030Y18878
X49659Y19232
X49961Y15197
X50394
Y14764
X49961
X50877Y14250
Y15700
X51013Y23012
X50659Y23232
X50207Y23937
X49587Y24705
X46659Y24232
X41250Y22700
X34500Y22750
X34659Y23232
X34000Y22000
X33000
X32000
X31500Y21750
X31000Y22000
X30000
X29000
X28000
X27500Y21750
X27000Y22000
X27500Y23000
X28500
X29500
X30500
X31500
X32500
X32520Y21204
X34400Y21380
X34850Y20820
X33860Y20090
X33150Y18260
X32910Y17480
X31970Y17580
X31659Y18232
X31200Y18160
X30659Y18232
X30910Y17720
X31330Y16790
X31490Y15750
X32520Y15770
X33020
X33659Y16232
X33090Y14340
X34220Y13870
X32990Y12580
X32490Y12560
X32030Y12580
X31030Y11780
X30659Y11232
Y10232
X31100Y9920
X31600Y10960
X32250Y10900
X32810Y10900
X33240Y11100
X33650Y11060
X35150Y11050
X35030Y10770
X34910Y10490
X34790Y10210
X34670Y9930
X34550Y9650
X35400Y11710
X35270Y12010
X30000Y12780
X29100Y12560
X29080Y11680
X29659Y11232
Y10232
X28950Y10190
X28200Y10300
X28040Y10630
X27950Y11590
X27920Y12670
X27910Y13480
X27980Y14190
X28190Y14410
X28400Y14630
X28610Y14850
X29050Y14120
X29490
X31000Y14240
X30170Y15800
X28340Y15910
X28750Y16500
X28659Y17232
X27659
X27790Y17700
X27250Y18560
X28910Y18600
X28659Y18232
X30040Y18600
X30500Y21250
X29500
X28500
X25659Y21232
Y22232
X25000Y22000
X24000
X23000
X22000
X21000
X20000
X20500Y23000
X21500
X22500
X23500
X24500
X25659Y23232
X24500Y21000
X23500
X22500
X21500
X20500
X20450Y18610
X21030Y18644
X22030
X22244Y18136
X22540Y18380
X22810Y18050
X22850Y17600
X22276Y17622
X22410Y17320
X21970Y16950
X21553Y17010
X21570Y16610
X21600Y16200
X22800Y16210
X22570Y16470
X22890Y16620
X24060Y16820
X24450Y16510
X24410Y17510
X24050Y18000
X25480Y17780
X25659Y17232
X26659
X27659Y16232
Y15232
X26677Y14634
X26662Y13502
X26110Y13450
X24800Y13470
X24270Y13490
X23659Y13232
Y14232
X24250Y14500
X24800Y14470
X24020Y15240
X22407Y15180
X22330Y14240
X22990Y14510
X22030Y13310
X22240Y12540
X21530Y12670
X20506Y12630
X20420Y13350
X21300Y13620
X20840Y14200
X20300Y14550
X19900Y14600
X20640Y17080
X20740Y17410
X20060Y17680
X19910Y18790
X24830Y19000
X25290Y18940
X25630Y18980
X24677Y12404
X23659Y12232
Y11232
X24250Y11450
X23890Y10440
X24304Y10116
X24516Y9904
X24728Y9692
X24941Y9479
X25659Y10232
X25767Y10603
X25990Y11500
X27020Y11050
X26659Y10232
X26990Y12394
X21770Y11589
X21659Y11232
X21256Y11273
X20696Y11610
X21770Y10810
X21467Y10004
X21056Y10020
X22600Y9900
X23040Y9714
X35290Y18450
X19400Y18000
X19000Y17600
X18400Y18000
X17400Y18000
X16400
X15400
X14400
X13400
X12400Y18000
X11400Y18000
X10400
X9400
X8400
X7900Y18500
X7400Y18000
X7010Y17810
X7880Y17160
X7840Y16290
X7180Y15890
X7340Y15200
X7750Y15170
X7140Y14630
X6310Y14550
X4500Y14500
X4659Y14232
Y13232
Y12232
X4326Y11795
X4216Y11080
X4650Y10990
X5060
X5296Y11670
X5659Y12232
X6300Y12360
X6659Y12232
X6340Y11790
X8350Y11750
X8240Y12180
X9360Y12140
X9800
X10220Y12230
X10315Y11695
X10650Y11650
X11140Y11737
X11390Y11180
X11570Y10750
X12190Y10480
X12180Y9520
X12910Y9430
X12910Y10210
X13296Y10500
X13286Y10865
X13346Y11210
X12726Y10930
X13336Y9890
X14770Y9890
X14970Y9640
X15290Y9380
X16100Y9560
X16020Y9910
X15797Y11211
X15176Y11307
Y11646
X15790Y12030
X16400Y12220
X16210Y12460
X16970Y12470
X17606Y12470
X17576Y13470
X17600Y14043
X17270
X17700Y14530
X18080Y14540
X18896Y14600
X19416Y14610
X19110Y15680
X18860Y13790
X17570Y15010
X17020Y14810
X16290Y15190
X16320Y15490
X16110Y14380
X16220Y14050
X15400Y13900
X14920Y13710
X14550Y14140
X14476Y14790
X13346Y14940
X12220Y15170
X12100Y15920
X11400Y15829
X11440Y14680
X11900Y14600
X12904Y13732
Y13045
X13287Y12244
X12320Y12350
X12110Y12010
X11650Y12400
X10480Y10760
X9960Y10750
X10340Y10310
X10200Y9410
X8850Y9490
X7960Y9460
X8460Y10980
X8940Y14760
X8990Y16140
X9680Y16720
X10210Y16780
X11940
X11920Y17150
X12910Y17160
X13900Y17180
X13890Y18800
X12900Y18810
X11910Y18840
X10900Y18790
X9900Y18800
X8880Y18720
X8950Y17440
X6660Y16360
X6160Y16340
X5680
X5250Y15470
X4659Y15232
Y18232
X5730Y18420
X6400Y18730
X6430Y20910
X6726Y20752
X7340Y20790
X7900Y21000
X7870Y20120
X8900Y21000
X9900
X10900
X11900
X12900
X13900
X14900
X15900
X16800Y21200
X17500
X18000Y22000
X19000
X18500Y21500
Y23000
X19500
Y21000
X18080Y19700
X17250Y19710
X16700Y19680
X16920Y18800
X17880Y18920
X18860Y18820
X17900Y17100
X16890Y17280
X15670Y14620
X16650Y12030
X16680Y11660
X17000Y11730
X17220Y9500
X17911Y10168
X18601Y10728
X19708Y10787
X19666Y9710
X19000Y9500
X19250Y11500
X19690Y12000
X17210Y22760
X15900Y23000
X14900
X13900
X12900
X11900Y23000
X10900Y23000
X9900
X8900
X7900
X6910
X6659Y23232
X5659
X4900Y23080
X4570Y23540
X4460Y22290
X4420Y21800
X5760Y20780
X7400Y22000
X8400
X9400
X10400Y22004
X11400Y22000
X12400
X13400
X14400
X15400
X16400
X17210Y24580
X5020Y9660
X4670
X1770Y9540
X1590Y10630
X1660Y11844
Y12754
X1400Y14320
X659Y14232
X410Y14760
X570Y15430
X659Y16232
X500Y16500
X659Y17232
Y18232
Y19232
Y20232
X1659
Y21232
X2659
X3260Y21150
X3370Y21460
X3010Y21750
X3560Y20880
X3780Y22450
X3650Y23600
X2940Y23240
X1380Y23140
Y22640
Y22140
X659Y21232
X1659Y19232
Y18232
X2659
X3659
Y17232
X3570Y16450
X3370Y15434
X3060Y15190
X3210Y14500
X3090Y13554
X3700Y13504
X3140Y11682
X2746
X2970Y11360
X1659Y16232
X1000Y16020
X1659Y17232
X2320Y17350
X2659Y19232
X1520Y23670
X1380Y24140
X1680
X2550Y24710
X3880Y24570
X350Y24720
T03
X8957Y8435
X45374Y9528
X41750Y16750
X42000Y17000
X41750Y17250
X42000Y17500
X41750Y17750
X42000Y18000
T05
X3220Y4490
Y5490
X11000Y1500
Y500
X12000
Y1500
X13000
X14000
Y500
X13000
X15000
X16000
X17000
Y1500
X16000
X15000
X18000
Y500
X12000Y9000
X20000Y1500
X21000
X22000
Y500
X21000
X20000
X23000
X24000
Y1500
X23000
X25000
Y500
Y23500
X24000
X23000
Y24500
X24000
X25000
X27000
Y23500
X28000
X29000
X30000
Y24500
X31000
X32000
Y23500
X33000
Y24500
X34000
Y23500
X31000
X29000Y24500
X28000
X22000
X21000
Y23500
X22000
X20000
Y24500
X19000
X18000
Y23500
X19000
X16400
X15400
X14400
Y24500
X15400
X16400
X13400
X12400
Y23500
X13400
X11400
Y24500
X10400
X9400
Y23500
X10400
X8400
Y24500
X7400
Y23500
X12000Y11000
Y10000
T06
X26750Y2250
X49250Y24000
T07
X23500Y15500
X23900Y18500
X23100
T08
X2880Y7590
Y16929
Y20157
T09
X5500Y3000
X26000Y5000
X38000Y3000
X35500Y22000
X26000Y16000
X6000Y22000
M30
